SplineFontDB: 3.0
FontName: Samim-Bold
FullName: Samim Bold
FamilyName: Samim
Weight: Bold
Copyright: Copyright (c) 2003 by Bitstream, Inc. All Rights Reserved.\nDejaVu changes are in public domain\nCopyright (c) 2015 by Saber Rastikerdar. All Rights Reserved.\nNon-Arabic(Latin) glyphs and data are imported from Open Sans font under the Apache License, Version 2.0.
Version: 2.0.1
ItalicAngle: 0
UnderlinePosition: -200
UnderlineWidth: 100
Ascent: 1638
Descent: 410
InvalidEm: 0
LayerCount: 2
Layer: 0 1 "Back" 1
Layer: 1 1 "Fore" 0
XUID: [1021 502 1027637223 15701598]
UniqueID: 4254684
UseUniqueID: 1
FSType: 0
OS2Version: 1
OS2_WeightWidthSlopeOnly: 0
OS2_UseTypoMetrics: 1
CreationTime: 1431850356
ModificationTime: 1509583647
PfmFamily: 33
TTFWeight: 700
TTFWidth: 5
LineGap: 0
VLineGap: 0
Panose: 2 11 6 3 3 8 4 2 2 4
OS2TypoAscent: 2150
OS2TypoAOffset: 0
OS2TypoDescent: -1000
OS2TypoDOffset: 0
OS2TypoLinegap: 0
OS2WinAscent: 2150
OS2WinAOffset: 0
OS2WinDescent: 1000
OS2WinDOffset: 0
HheadAscent: 2150
HheadAOffset: 0
HheadDescent: -1000
HheadDOffset: 0
OS2SubXSize: 1331
OS2SubYSize: 1433
OS2SubXOff: 0
OS2SubYOff: 286
OS2SupXSize: 1331
OS2SupYSize: 1433
OS2SupXOff: 0
OS2SupYOff: 983
OS2StrikeYSize: 102
OS2StrikeYPos: 530
OS2CapHeight: 1638
OS2XHeight: 1082
OS2Vendor: 'PfEd'
OS2CodePages: 600001ff.dfff0000
Lookup: 1 9 0 "'fina' Terminal Forms in Arabic lookup 9" { "'fina' Terminal Forms in Arabic lookup 9 subtable"  } ['fina' ('arab' <'KUR ' 'SND ' 'URD ' 'dflt' > ) ]
Lookup: 1 9 0 "'medi' Medial Forms in Arabic lookup 11" { "'medi' Medial Forms in Arabic lookup 11 subtable"  } ['medi' ('arab' <'KUR ' 'SND ' 'URD ' 'dflt' > ) ]
Lookup: 1 9 0 "'init' Initial Forms in Arabic lookup 13" { "'init' Initial Forms in Arabic lookup 13 subtable"  } ['init' ('arab' <'KUR ' 'SND ' 'URD ' 'dflt' > ) ]
Lookup: 4 1 1 "'rlig' Required Ligatures in Arabic lookup 14" { "'rlig' Required Ligatures in Arabic lookup 14 subtable"  } ['rlig' ('arab' <'KUR ' 'dflt' > ) ]

StartChar: exclam
Encoding: 33 33 1
Width: 559
VWidth: 2210
GlyphClass: 2
Flags: W
LayerCount: 2
Fore
SplineSet
112.986328125 170.211914062 m 128,-1,1
 112.986328125 239.184570312 112.986328125 239.184570312 162.813476562 289.012695312 c 128,-1,2
 212.533203125 338.733398438 212.533203125 338.733398438 280.421875 337.658203125 c 0,3,4
 297.252929688 337.924804688 297.252929688 337.924804688 313.34375 334.853515625 c 128,-1,5
 329.434570312 331.782226562 329.434570312 331.782226562 344.21484375 325.57421875 c 128,-1,6
 358.995117188 319.3671875 358.995117188 319.3671875 372.513671875 310.189453125 c 128,-1,7
 386.03125 301.01171875 386.03125 301.01171875 398.030273438 289.012695312 c 0,8,9
 422.255859375 264.786132812 422.255859375 264.786132812 435.056640625 234.383789062 c 128,-1,10
 447.857421875 203.98046875 447.857421875 203.98046875 447.857421875 170.211914062 c 0,11,12
 447.857421875 101.240234375 447.857421875 101.240234375 398.030273438 51.4130859375 c 128,-1,13
 348.309570312 1.6923828125 348.309570312 1.6923828125 280.421875 2.7685546875 c 0,14,15
 212.534179688 1.6923828125 212.534179688 1.6923828125 162.813476562 51.4130859375 c 128,-1,0
 112.986328125 101.240234375 112.986328125 101.240234375 112.986328125 170.211914062 c 128,-1,1
179.26953125 1490.36035156 m 5,16,-1
 379.73046875 1490.36035156 l 5,17,-1
 420.508789062 1490.36035156 l 5,18,-1
 419.72265625 1449.58984375 l 5,19,-1
 398.982421875 453.689453125 l 1,20,-1
 398.2265625 414.459960938 l 1,21,-1
 358.990234375 414.459960938 l 1,22,-1
 201.046875 414.459960938 l 1,23,-1
 161.848632812 414.459960938 l 1,24,-1
 161.0546875 453.650390625 l 1,25,-1
 139.27734375 1449.55078125 l 5,26,-1
 138.452148438 1490.36035156 l 5,27,-1
 179.26953125 1490.36035156 l 5,16,-1
EndSplineSet
EndChar

StartChar: period
Encoding: 46 46 2
Width: 561
VWidth: 2210
GlyphClass: 2
Flags: W
LayerCount: 2
Fore
SplineSet
112.986328125 170.211914062 m 128,-1,1
 112.986328125 239.184570312 112.986328125 239.184570312 162.813476562 289.012695312 c 128,-1,2
 212.533203125 338.733398438 212.533203125 338.733398438 280.421875 337.658203125 c 0,3,4
 297.252929688 337.924804688 297.252929688 337.924804688 313.34375 334.853515625 c 128,-1,5
 329.434570312 331.782226562 329.434570312 331.782226562 344.21484375 325.57421875 c 128,-1,6
 358.995117188 319.3671875 358.995117188 319.3671875 372.513671875 310.189453125 c 128,-1,7
 386.03125 301.01171875 386.03125 301.01171875 398.030273438 289.012695312 c 0,8,9
 422.255859375 264.786132812 422.255859375 264.786132812 435.056640625 234.383789062 c 128,-1,10
 447.857421875 203.98046875 447.857421875 203.98046875 447.857421875 170.211914062 c 0,11,12
 447.857421875 101.240234375 447.857421875 101.240234375 398.030273438 51.4130859375 c 128,-1,13
 348.309570312 1.6923828125 348.309570312 1.6923828125 280.421875 2.7685546875 c 0,14,15
 212.534179688 1.6923828125 212.534179688 1.6923828125 162.813476562 51.4130859375 c 128,-1,0
 112.986328125 101.240234375 112.986328125 101.240234375 112.986328125 170.211914062 c 128,-1,1
EndSplineSet
EndChar

StartChar: colon
Encoding: 58 58 3
Width: 561
VWidth: 2210
GlyphClass: 2
Flags: W
LayerCount: 2
Fore
SplineSet
112.986328125 850.211914062 m 128,-1,1
 112.986328125 919.184570312 112.986328125 919.184570312 162.813476562 969.012695312 c 128,-1,2
 212.533203125 1018.73339844 212.533203125 1018.73339844 280.421875 1017.65820312 c 0,3,4
 290.061523438 1017.81054688 290.061523438 1017.81054688 299.481445312 1016.86425781 c 128,-1,5
 308.90234375 1015.91796875 308.90234375 1015.91796875 317.912109375 1013.91308594 c 128,-1,6
 326.921875 1011.90722656 326.921875 1011.90722656 335.619140625 1008.8671875 c 128,-1,7
 344.31640625 1005.82617188 344.31640625 1005.82617188 352.563476562 1001.79003906 c 128,-1,8
 360.810546875 997.752929688 360.810546875 997.752929688 368.6484375 992.74609375 c 128,-1,9
 376.487304688 987.739257812 376.487304688 987.739257812 383.8359375 981.798828125 c 128,-1,10
 391.184570312 975.859375 391.184570312 975.859375 398.030273438 969.012695312 c 0,11,12
 422.255859375 944.786132812 422.255859375 944.786132812 435.056640625 914.383789062 c 128,-1,13
 447.857421875 883.98046875 447.857421875 883.98046875 447.857421875 850.211914062 c 0,14,15
 447.857421875 781.240234375 447.857421875 781.240234375 398.030273438 731.413085938 c 128,-1,16
 348.309570312 681.692382812 348.309570312 681.692382812 280.421875 682.768554688 c 0,17,18
 212.534179688 681.692382812 212.534179688 681.692382812 162.813476562 731.413085938 c 128,-1,0
 112.986328125 781.240234375 112.986328125 781.240234375 112.986328125 850.211914062 c 128,-1,1
112.986328125 170.211914062 m 128,-1,20
 112.986328125 239.184570312 112.986328125 239.184570312 162.813476562 289.012695312 c 128,-1,21
 212.533203125 338.733398438 212.533203125 338.733398438 280.421875 337.658203125 c 0,22,23
 297.252929688 337.924804688 297.252929688 337.924804688 313.34375 334.853515625 c 128,-1,24
 329.434570312 331.782226562 329.434570312 331.782226562 344.21484375 325.57421875 c 128,-1,25
 358.995117188 319.3671875 358.995117188 319.3671875 372.513671875 310.189453125 c 128,-1,26
 386.03125 301.01171875 386.03125 301.01171875 398.030273438 289.012695312 c 0,27,28
 422.255859375 264.786132812 422.255859375 264.786132812 435.056640625 234.383789062 c 128,-1,29
 447.857421875 203.98046875 447.857421875 203.98046875 447.857421875 170.211914062 c 0,30,31
 447.857421875 101.240234375 447.857421875 101.240234375 398.030273438 51.4130859375 c 128,-1,32
 348.309570312 1.6923828125 348.309570312 1.6923828125 280.421875 2.7685546875 c 0,33,34
 212.534179688 1.6923828125 212.534179688 1.6923828125 162.813476562 51.4130859375 c 128,-1,19
 112.986328125 101.240234375 112.986328125 101.240234375 112.986328125 170.211914062 c 128,-1,20
EndSplineSet
EndChar

StartChar: afii57388
Encoding: 1548 1548 5
Width: 543
VWidth: 2217
GlyphClass: 2
Flags: W
LayerCount: 2
Fore
SplineSet
280.298828125 0 m 2,0,1
 202.423828125 0 202.423828125 0 156.336914062 41.556640625 c 128,-1,2
 110.249023438 83.11328125 110.249023438 83.11328125 110.249023438 157.384765625 c 2,3,-1
 110.249023438 227.9375 l 2,4,5
 109.98046875 497.696289062 109.98046875 497.696289062 350.608398438 682.564453125 c 2,6,-1
 370.458984375 697.814453125 l 1,7,-1
 392.852539062 686.62890625 l 1,8,-1
 460.391601562 652.891601562 l 1,9,-1
 507.670898438 629.274414062 l 1,10,-1
 472.100585938 590.185546875 l 2,11,12
 354.40234375 460.845703125 354.40234375 460.845703125 335.213867188 342.72265625 c 1,13,14
 389.76953125 334.509765625 389.76953125 334.509765625 417.702148438 293.745117188 c 128,-1,15
 445.634765625 252.98046875 445.634765625 252.98046875 445.634765625 192.830078125 c 2,16,-1
 445.634765625 155.84375 l 2,17,18
 445.860351562 84.314453125 445.860351562 84.314453125 405.211914062 42.1572265625 c 128,-1,19
 364.563476562 0 364.563476562 0 293.98046875 0 c 2,20,-1
 280.298828125 0 l 2,0,1
EndSplineSet
EndChar

StartChar: uni0615
Encoding: 1557 1557 6
Width: 6
VWidth: 2317
GlyphClass: 4
Flags: W
AnchorPoint: "Anchor-10" 583.891 1359.45 mark 0
AnchorPoint: "Anchor-9" 583.891 1359.45 mark 0
AnchorPoint: "Anchor-1" 583.891 2096.68 basemark 0
AnchorPoint: "Anchor-1" 583.891 1359.45 mark 0
LayerCount: 2
Fore
SplineSet
525.23563187 1550.73730469 m 1,0,-1
 588.40885513 1550.73730469 l 2,1,2
 613.091029893 1550.83050119 613.091029893 1550.83050119 633.86439124 1552.33986873 c 128,-1,3
 654.637752587 1553.84923627 654.637752587 1553.84923627 670.718555252 1556.63570012 c 128,-1,4
 686.799357918 1559.42216398 686.799357918 1559.42216398 698.534196154 1563.45114037 c 0,5,6
 710.84241088 1567.7275142 710.84241088 1567.7275142 720.671934585 1573.41242773 c 128,-1,7
 730.501458289 1579.09734127 730.501458289 1579.09734127 737.984738442 1586.25170371 c 128,-1,8
 745.468018595 1593.40606615 745.468018595 1593.40606615 750.649143345 1602.14195113 c 128,-1,9
 755.830268094 1610.87783611 755.830268094 1610.87783611 758.789398825 1621.14559702 c 128,-1,10
 761.748529556 1631.41335792 761.748529556 1631.41335792 762.582040503 1643.43562419 c 0,11,12
 765.417981225 1685.66803804 765.417981225 1685.66803804 730.626542163 1691.6317076 c 0,13,14
 694.416493046 1697.48011131 694.416493046 1697.48011131 640.542243939 1659.68886682 c 0,15,16
 612.847639161 1640.20894311 612.847639161 1640.20894311 583.543648361 1612.49771744 c 128,-1,17
 554.239657561 1584.78649177 554.239657561 1584.78649177 525.23563187 1550.73730469 c 1,0,-1
859.317416545 1654.35473014 m 0,18,19
 859.152337592 1551.71219215 859.152337592 1551.71219215 796.957197963 1499.54750233 c 128,-1,20
 734.762058334 1447.3828125 734.762058334 1447.3828125 614.514648438 1447.3828125 c 2,21,-1
 299.59765625 1447.3828125 l 1,22,-1
 289.59765625 1447.3828125 l 1,23,-1
 289.59765625 1457.3828125 l 1,24,-1
 289.59765625 1540.73730469 l 1,25,-1
 289.59765625 1550.73730469 l 1,26,-1
 299.59765625 1550.73730469 l 1,27,-1
 401.467773438 1550.73730469 l 1,28,-1
 401.467773438 2003.28320312 l 1,29,-1
 401.467773438 2013.28320312 l 1,30,-1
 411.467773438 2013.28320312 l 1,31,-1
 485.95703125 2013.28320312 l 1,32,-1
 495.95703125 2013.28320312 l 1,33,-1
 495.95703125 2003.28320312 l 1,34,-1
 495.95703125 1651.11140366 l 1,35,36
 605.385518837 1795.05633269 605.385518837 1795.05633269 728.87280976 1796.33570784 c 0,37,38
 776.252407875 1797.05018259 776.252407875 1797.05018259 811.617664486 1770.66202417 c 0,39,40
 835.493377318 1752.68630683 835.493377318 1752.68630683 847.322194742 1723.35438449 c 128,-1,41
 859.151012166 1694.02246216 859.151012166 1694.02246216 859.317416545 1654.35473014 c 0,18,19
EndSplineSet
EndChar

StartChar: uni061B
Encoding: 1563 1563 7
Width: 543
VWidth: 2217
GlyphClass: 2
Flags: W
LayerCount: 2
Fore
SplineSet
112.986328125 170.211914062 m 128,-1,1
 112.986328125 239.184570312 112.986328125 239.184570312 162.813476562 289.012695312 c 128,-1,2
 212.533203125 338.733398438 212.533203125 338.733398438 280.421875 337.658203125 c 0,3,4
 297.252929688 337.924804688 297.252929688 337.924804688 313.34375 334.853515625 c 128,-1,5
 329.434570312 331.782226562 329.434570312 331.782226562 344.21484375 325.57421875 c 128,-1,6
 358.995117188 319.3671875 358.995117188 319.3671875 372.513671875 310.189453125 c 128,-1,7
 386.03125 301.01171875 386.03125 301.01171875 398.030273438 289.012695312 c 0,8,9
 422.255859375 264.786132812 422.255859375 264.786132812 435.056640625 234.383789062 c 128,-1,10
 447.857421875 203.98046875 447.857421875 203.98046875 447.857421875 170.211914062 c 0,11,12
 447.857421875 101.240234375 447.857421875 101.240234375 398.030273438 51.4130859375 c 128,-1,13
 348.309570312 1.6923828125 348.309570312 1.6923828125 280.421875 2.7685546875 c 0,14,15
 212.534179688 1.6923828125 212.534179688 1.6923828125 162.813476562 51.4130859375 c 128,-1,0
 112.986328125 101.240234375 112.986328125 101.240234375 112.986328125 170.211914062 c 128,-1,1
280.361328125 417.545898438 m 2,16,17
 202.486328125 417.545898438 202.486328125 417.545898438 156.399414062 459.102539062 c 128,-1,18
 110.311523438 500.659179688 110.311523438 500.659179688 110.311523438 574.930664062 c 2,19,-1
 110.311523438 645.478515625 l 2,20,21
 109.975585938 915.727539062 109.975585938 915.727539062 350.71484375 1100.14453125 c 2,22,-1
 370.555664062 1115.34277344 l 1,23,-1
 392.915039062 1104.17480469 l 1,24,-1
 460.455078125 1070.4375 l 1,25,-1
 507.663085938 1046.85644531 l 1,26,-1
 472.204101562 1007.77539062 l 2,27,28
 412.700195312 942.194335938 412.700195312 942.194335938 378.637695312 879.8125 c 128,-1,29
 344.576171875 817.431640625 344.576171875 817.431640625 335.265625 760.161132812 c 1,30,31
 389.916015625 751.669921875 389.916015625 751.669921875 417.806640625 711.01953125 c 128,-1,32
 445.697265625 670.368164062 445.697265625 670.368164062 445.697265625 610.375976562 c 2,33,-1
 445.697265625 568.380859375 l 2,34,35
 445.887695312 498.77734375 445.887695312 498.77734375 404.948242188 458.162109375 c 128,-1,36
 364.0078125 417.545898438 364.0078125 417.545898438 294.04296875 417.545898438 c 2,37,-1
 280.361328125 417.545898438 l 2,16,17
EndSplineSet
EndChar

StartChar: uni061F
Encoding: 1567 1567 8
Width: 875
VWidth: 2210
GlyphClass: 2
Flags: W
LayerCount: 2
Fore
SplineSet
693.044921875 170.511230469 m 128,-1,1
 693.044921875 101.491210938 693.044921875 101.491210938 643.680664062 52.1264648438 c 128,-1,2
 594.31640625 2.76171875 594.31640625 2.76171875 525.526367188 2.76171875 c 128,-1,3
 456.736328125 2.76171875 456.736328125 2.76171875 407.361328125 52.1348067031 c 128,-1,4
 357.986328125 101.507894656 357.986328125 101.507894656 357.986328125 170.332519531 c 0,5,6
 357.986328125 239.822701942 357.986328125 239.822701942 407.555175781 288.737522846 c 128,-1,7
 457.124023438 337.65234375 457.124023438 337.65234375 524.46484375 337.65234375 c 0,8,9
 596.234515777 337.65234375 596.234515777 337.65234375 644.639718826 288.591796875 c 128,-1,0
 693.044921875 239.53125 693.044921875 239.53125 693.044921875 170.511230469 c 128,-1,1
393.780273438 425.059570312 m 1,10,-1
 393.780273438 456.2578125 l 2,11,12
 394.000630759 555.283454852 394.000630759 555.283454852 321.20703125 626.421875 c 2,13,-1
 227.922851562 717.584960938 l 2,14,15
 52 890 52 890 51.9560546875 1069.78222656 c 0,16,17
 52 1250 52 1250 173.109375 1363.20507812 c 0,18,19
 294 1476 294 1476 480.185546875 1475.76074219 c 0,20,21
 650.501404408 1475.99930162 650.501404408 1475.99930162 822.124023438 1355.30078125 c 6,22,-1
 849.4375 1336.09179688 l 5,23,-1
 747.2421875 1115.20507812 l 5,24,-1
 708.532226562 1140.35058594 l 6,25,26
 598 1212 598 1212 485.368164062 1211.9921875 c 0,27,28
 399 1212 399 1212 349.064453125 1148.73925781 c 0,29,30
 297 1082 297 1082 329.040039062 995 c 0,31,32
 352.341829528 931.062051529 352.341829528 931.062051529 421.684570312 862.490234375 c 2,33,-1
 497.138671875 787.875 l 2,34,35
 661.400390625 624.602019441 661.400390625 624.602019441 661.400390625 449.080078125 c 2,36,-1
 661.400390625 425.059570312 l 1,37,-1
 393.780273438 425.059570312 l 1,10,-1
EndSplineSet
EndChar

StartChar: uni0621
Encoding: 1569 1569 9
Width: 778
VWidth: 2351
GlyphClass: 2
Flags: W
AnchorPoint: "Anchor-7" 380.54 -115.76 basechar 0
AnchorPoint: "Anchor-10" 370.19 1091.23 basechar 0
LayerCount: 2
Fore
SplineSet
51.3408203125 13.8515625 m 1,0,-1
 51.3408203125 159.052734375 l 1,1,-1
 51.3408203125 183.94921875 l 1,2,-1
 73.6787109375 194.942382812 l 1,3,-1
 204.810546875 259.4765625 l 1,4,5
 52.294921875 344.577148438 52.294921875 344.577148438 55.1591796875 531.9765625 c 0,6,7
 58.37109375 725.692382812 58.37109375 725.692382812 216.439453125 822.015625 c 0,8,9
 369.926757812 915.529296875 369.926757812 915.529296875 602.234375 864.171875 c 2,10,-1
 633.599609375 857.23828125 l 1,11,-1
 633.599609375 825.115234375 l 1,12,-1
 633.599609375 650.198242188 l 1,13,-1
 633.599609375 597.771484375 l 1,14,-1
 583.034179688 611.619140625 l 2,15,16
 434.329101562 652.341796875 434.329101562 652.341796875 358.572265625 613.8984375 c 0,17,18
 321.813476562 595.176757812 321.813476562 595.176757812 306.709960938 573.44921875 c 128,-1,19
 291.607421875 551.72265625 291.607421875 551.72265625 291.944335938 522.577148438 c 0,20,21
 291.96484375 476.396484375 291.96484375 476.396484375 325.767578125 446.971679688 c 128,-1,22
 359.569335938 417.545898438 359.569335938 417.545898438 441.481445312 403.017578125 c 0,23,24
 458.3359375 400.115234375 458.3359375 400.115234375 475.788085938 399.088867188 c 128,-1,25
 493.239257812 398.061523438 493.239257812 398.061523438 511.002929688 398.950195312 c 0,26,27
 543.514648438 400.576171875 543.514648438 400.576171875 670.549804688 457.387695312 c 2,28,-1
 726.879882812 482.579101562 l 1,29,-1
 726.879882812 420.873046875 l 1,30,-1
 726.879882812 229.375 l 1,31,-1
 726.879882812 201.3125 l 1,32,-1
 700.4921875 191.762695312 l 1,33,-1
 104.953125 -23.7607421875 l 1,34,-1
 51.3408203125 -43.1630859375 l 1,35,-1
 51.3408203125 13.8515625 l 1,0,-1
EndSplineSet
EndChar

StartChar: uni0627
Encoding: 1575 1575 15
Width: 448
VWidth: 2351
GlyphClass: 2
Flags: W
AnchorPoint: "Anchor-10" 224.19 1523.38 basechar 0
AnchorPoint: "Anchor-7" 231.61 -194.79 basechar 0
LayerCount: 2
Fore
SplineSet
121.877929688 1409.07128906 m 1,0,-1
 294.608398438 1483.94238281 l 1,1,-1
 350.516601562 1508.17675781 l 1,2,-1
 350.516601562 1447.2421875 l 1,3,-1
 350.516601562 41.58984375 l 1,4,-1
 350.516601562 1.58984375 l 1,5,-1
 310.516601562 1.58984375 l 1,6,-1
 181.4375 1.58984375 l 1,7,-1
 142.65625 1.58984375 l 1,8,-1
 141.45703125 40.3525390625 l 1,9,-1
 97.8056640625 1371.13378906 l 1,10,-1
 96.9658203125 1398.2734375 l 1,11,-1
 121.877929688 1409.07128906 l 1,0,-1
EndSplineSet
Substitution2: "'fina' Terminal Forms in Arabic lookup 9 subtable" uniFE8E
EndChar

StartChar: uni062D
Encoding: 1581 1581 21
Width: 1280
VWidth: 2351
GlyphClass: 2
Flags: W
AnchorPoint: "Anchor-10" 549.59 1257.96 basechar 0
AnchorPoint: "Anchor-7" 584.525 -773.648 basechar 0
LayerCount: 2
Fore
SplineSet
86.6279296875 687.208984375 m 2,0,1
 271.088867188 958.375976562 271.088867188 958.375976562 490.383789062 954.494140625 c 0,2,3
 527.447265625 953.920898438 527.447265625 953.920898438 571.388671875 942.430664062 c 0,4,5
 584.02734375 938.9296875 584.02734375 938.9296875 602.305664062 931.791992188 c 128,-1,6
 620.583984375 924.653320312 620.583984375 924.653320312 646.506835938 913.01953125 c 128,-1,7
 672.428710938 901.384765625 672.428710938 901.384765625 702.815429688 886.977539062 c 128,-1,8
 733.202148438 872.5703125 733.202148438 872.5703125 774.962890625 852.21484375 c 0,9,10
 826.685546875 827.181640625 826.685546875 827.181640625 870.541992188 807.12890625 c 128,-1,11
 914.399414062 787.077148438 914.399414062 787.077148438 948.942382812 772.6171875 c 128,-1,12
 983.486328125 758.157226562 983.486328125 758.157226562 1009.06738281 749.086914062 c 0,13,14
 1047.51269531 735.663085938 1047.51269531 735.663085938 1089.00976562 726.002929688 c 128,-1,15
 1130.50683594 716.341796875 1130.50683594 716.341796875 1174.79101562 710.548828125 c 2,16,-1
 1214.70214844 705.328125 l 1,17,-1
 1209.23144531 665.450195312 l 1,18,-1
 1185.09472656 489.502929688 l 1,19,-1
 1180.7109375 457.546875 l 1,20,-1
 1148.55175781 455.05859375 l 2,21,22
 1127.63964844 453.440429688 1127.63964844 453.440429688 1109.22265625 452.010742188 c 128,-1,23
 1090.8046875 450.581054688 1090.8046875 450.581054688 1075.52929688 449.388671875 c 128,-1,24
 1060.25390625 448.197265625 1060.25390625 448.197265625 1047.65039062 447.208007812 c 128,-1,25
 1035.046875 446.21875 1035.046875 446.21875 1025.47949219 445.459960938 c 128,-1,26
 1015.91210938 444.702148438 1015.91210938 444.702148438 1009.21289062 444.161132812 c 128,-1,27
 1002.51367188 443.62109375 1002.51367188 443.62109375 998.764648438 443.305664062 c 0,28,29
 762.5546875 414.081054688 762.5546875 414.081054688 610.901367188 326.936523438 c 0,30,31
 305.006835938 150.874023438 305.006835938 150.874023438 305.084960938 -100.111328125 c 0,32,33
 305.059570312 -164.783203125 305.059570312 -164.783203125 323.41015625 -213.614257812 c 128,-1,34
 341.760742188 -262.444335938 341.760742188 -262.444335938 379.180664062 -297.509765625 c 128,-1,35
 416.6015625 -332.576171875 416.6015625 -332.576171875 474.798828125 -355.861328125 c 0,36,37
 528.01171875 -376.953125 528.01171875 -376.953125 603.989257812 -388.150390625 c 128,-1,38
 679.965820312 -399.34765625 679.965820312 -399.34765625 776.8359375 -399.671875 c 0,39,40
 968.45703125 -399.991210938 968.45703125 -399.991210938 1140.11816406 -351.18359375 c 2,41,-1
 1178.63476562 -340.233398438 l 1,42,-1
 1189.54394531 -378.760742188 l 1,43,-1
 1233.55273438 -534.172851562 l 1,44,-1
 1244.21289062 -571.81640625 l 1,45,-1
 1206.81445312 -583.307617188 l 2,46,47
 992.994140625 -649.00390625 992.994140625 -649.00390625 778.904296875 -648.865234375 c 0,48,49
 510.2421875 -649.004882812 510.2421875 -649.004882812 320.545898438 -550.48828125 c 0,50,51
 57.0458984375 -413.294921875 57.0458984375 -413.294921875 56.4599609375 -103.427734375 c 0,52,53
 55.970703125 98.1025390625 55.970703125 98.1025390625 165.268554688 261.46875 c 0,54,55
 327.794921875 505.305664062 327.794921875 505.305664062 674.07421875 606.5390625 c 0,56,57
 695.208007812 612.690429688 695.208007812 612.690429688 716.032226562 617.885742188 c 1,58,59
 686.776367188 630.768554688 686.776367188 630.768554688 654.14453125 646.19921875 c 0,60,61
 615.125 664.666015625 615.125 664.666015625 579.99609375 678.725585938 c 128,-1,62
 544.866210938 692.784179688 544.866210938 692.784179688 527.454101562 698.309570312 c 128,-1,63
 510.041015625 703.8359375 510.041015625 703.8359375 506.225585938 703.815429688 c 0,64,65
 490.700195312 703.836914062 490.700195312 703.836914062 474.953125 700.942382812 c 128,-1,66
 459.20703125 698.048828125 459.20703125 698.048828125 442.64453125 691.94140625 c 128,-1,67
 426.08203125 685.834960938 426.08203125 685.834960938 409.330078125 676.5859375 c 128,-1,68
 392.577148438 667.3359375 392.577148438 667.3359375 375.0234375 654.419921875 c 128,-1,69
 357.46875 641.502929688 357.46875 641.502929688 339.755859375 625.23046875 c 128,-1,70
 322.04296875 608.958007812 322.04296875 608.958007812 303.541992188 588.564453125 c 128,-1,71
 285.040039062 568.169921875 285.040039062 568.169921875 266.411132812 544.192382812 c 2,72,-1
 241.009765625 511.5 l 1,73,-1
 209.209960938 538.010742188 l 1,74,-1
 94.0869140625 633.987304688 l 1,75,-1
 66.2255859375 657.215820312 l 1,76,-1
 86.6279296875 687.208984375 l 2,0,1
EndSplineSet
Substitution2: "'fina' Terminal Forms in Arabic lookup 9 subtable" uniFEA2
Substitution2: "'medi' Medial Forms in Arabic lookup 11 subtable" uniFEA4
Substitution2: "'init' Initial Forms in Arabic lookup 13 subtable" uniFEA3
EndChar

StartChar: uni062F
Encoding: 1583 1583 23
Width: 992
VWidth: 2351
GlyphClass: 2
Flags: W
AnchorPoint: "Anchor-10" 409.091 1261.98 basechar 0
AnchorPoint: "Anchor-7" 395.442 -176.688 basechar 0
LayerCount: 2
Fore
SplineSet
110.337890625 277.501953125 m 2,0,1
 217.3828125 242.024414062 217.3828125 242.024414062 361.583007812 242.565429688 c 0,2,3
 584.823242188 242.975585938 584.823242188 242.975585938 670.045898438 305.76171875 c 0,4,5
 702.918945312 330.096679688 702.918945312 330.096679688 702.81640625 355.809570312 c 0,6,7
 703.172851562 443.673828125 703.172851562 443.673828125 595.125 583.546875 c 0,8,9
 549.69921875 642.353515625 549.69921875 642.353515625 488.346679688 701.262695312 c 128,-1,10
 426.994140625 760.170898438 426.994140625 760.170898438 349.796875 818.860351562 c 2,11,-1
 320.2109375 841.353515625 l 1,12,-1
 340.471679688 872.509765625 l 1,13,-1
 435.172851562 1018.13867188 l 1,14,-1
 458.444335938 1053.92578125 l 1,15,-1
 492.64453125 1028.37792969 l 2,16,17
 695.8203125 876.606445312 695.8203125 876.606445312 806.786132812 721.249023438 c 0,18,19
 939.908203125 534.873046875 939.908203125 534.873046875 940.018554688 357.26171875 c 0,20,21
 939.997070312 173.415039062 939.997070312 173.415039062 771.330078125 71.6591796875 c 0,22,23
 622.19140625 -18.158203125 622.19140625 -18.158203125 349.04296875 -17.4072265625 c 0,24,25
 208.077148438 -16.9794921875 208.077148438 -16.9794921875 84.0087890625 26.8935546875 c 2,26,-1
 57.2783203125 36.3466796875 l 1,27,-1
 57.3447265625 64.69921875 l 1,28,-1
 57.75390625 239.626953125 l 1,29,-1
 57.8828125 294.887695312 l 1,30,-1
 110.337890625 277.501953125 l 2,0,1
EndSplineSet
Substitution2: "'fina' Terminal Forms in Arabic lookup 9 subtable" uniFEAA
EndChar

StartChar: uni0631
Encoding: 1585 1585 25
Width: 867
VWidth: 2357
GlyphClass: 2
Flags: W
AnchorPoint: "Anchor-7" 316.38 -648.85 basechar 0
AnchorPoint: "Anchor-10" 501.618 973.71 basechar 0
LayerCount: 2
Fore
SplineSet
658.081054688 -294.493164062 m 0,0,1
 465.120117188 -532.9609375 465.120117188 -532.9609375 83.7431640625 -534.03125 c 2,2,-1
 81.306640625 -534.038085938 l 1,3,-1
 54.205078125 -534.114257812 l 1,4,-1
 44.0869140625 -508.97265625 l 1,5,-1
 -10.623046875 -373.03515625 l 1,6,-1
 -31.1572265625 -322.014648438 l 1,7,-1
 23.7080078125 -318.197265625 l 2,8,9
 286.787109375 -299.889648438 286.787109375 -299.889648438 418.7734375 -192.11328125 c 128,-1,10
 550.758789062 -84.337890625 550.758789062 -84.337890625 565.173828125 117.133789062 c 0,11,12
 572.610351562 218.177734375 572.610351562 218.177734375 501.055664062 484.842773438 c 2,13,-1
 493.09375 514.516601562 l 1,14,-1
 519.709960938 529.862304688 l 1,15,-1
 670.220703125 616.639648438 l 1,16,-1
 712.024414062 640.741210938 l 1,17,-1
 727.95703125 595.193359375 l 2,18,19
 811.01171875 357.759765625 811.01171875 357.759765625 810.649414062 154.912109375 c 0,20,21
 809.962890625 -107.227539062 809.962890625 -107.227539062 658.081054688 -294.493164062 c 0,0,1
EndSplineSet
PairPos2: "'kern' Horizontal Kerning lookup 15-1" uni06CA dx=-85 dy=0 dh=-85 dv=0 dx=0 dy=0 dh=0 dv=0
PairPos2: "'kern' Horizontal Kerning lookup 15-1" uniFB90 dx=-307 dy=0 dh=-307 dv=0 dx=0 dy=0 dh=0 dv=0
PairPos2: "'kern' Horizontal Kerning lookup 15-1" uniFB8E dx=-307 dy=0 dh=-307 dv=0 dx=0 dy=0 dh=0 dv=0
PairPos2: "'kern' Horizontal Kerning lookup 15-1" uni06A9 dx=-307 dy=0 dh=-307 dv=0 dx=0 dy=0 dh=0 dv=0
PairPos2: "'kern' Horizontal Kerning lookup 15-1" uni064A dx=-106 dy=0 dh=-106 dv=0 dx=0 dy=0 dh=0 dv=0
PairPos2: "'kern' Horizontal Kerning lookup 15-1" afii57414 dx=-106 dy=0 dh=-106 dv=0 dx=0 dy=0 dh=0 dv=0
PairPos2: "'kern' Horizontal Kerning lookup 15-1" uniFBE8 dx=-212 dy=0 dh=-212 dv=0 dx=0 dy=0 dh=0 dv=0
PairPos2: "'kern' Horizontal Kerning lookup 15-1" uni0649 dx=-106 dy=0 dh=-106 dv=0 dx=0 dy=0 dh=0 dv=0
PairPos2: "'kern' Horizontal Kerning lookup 15-1" uni0648 dx=-85 dy=0 dh=-85 dv=0 dx=0 dy=0 dh=0 dv=0
PairPos2: "'kern' Horizontal Kerning lookup 15-1" afii57412 dx=-85 dy=0 dh=-85 dv=0 dx=0 dy=0 dh=0 dv=0
PairPos2: "'kern' Horizontal Kerning lookup 15-1" uniFEEB dx=-212 dy=0 dh=-212 dv=0 dx=0 dy=0 dh=0 dv=0
PairPos2: "'kern' Horizontal Kerning lookup 15-1" uni0647 dx=-212 dy=0 dh=-212 dv=0 dx=0 dy=0 dh=0 dv=0
PairPos2: "'kern' Horizontal Kerning lookup 15-1" uniFEE7 dx=-212 dy=0 dh=-212 dv=0 dx=0 dy=0 dh=0 dv=0
PairPos2: "'kern' Horizontal Kerning lookup 15-1" uni0646 dx=-159 dy=0 dh=-159 dv=0 dx=0 dy=0 dh=0 dv=0
PairPos2: "'kern' Horizontal Kerning lookup 15-1" uniFEE3 dx=-212 dy=0 dh=-212 dv=0 dx=0 dy=0 dh=0 dv=0
PairPos2: "'kern' Horizontal Kerning lookup 15-1" uni0645 dx=-212 dy=0 dh=-212 dv=0 dx=0 dy=0 dh=0 dv=0
PairPos2: "'kern' Horizontal Kerning lookup 15-1" uniFEFB dx=-212 dy=0 dh=-212 dv=0 dx=0 dy=0 dh=0 dv=0
PairPos2: "'kern' Horizontal Kerning lookup 15-1" uniFEDF dx=-212 dy=0 dh=-212 dv=0 dx=0 dy=0 dh=0 dv=0
PairPos2: "'kern' Horizontal Kerning lookup 15-1" uni0644 dx=-159 dy=0 dh=-159 dv=0 dx=0 dy=0 dh=0 dv=0
PairPos2: "'kern' Horizontal Kerning lookup 15-1" uniFEDB dx=-307 dy=0 dh=-307 dv=0 dx=0 dy=0 dh=0 dv=0
PairPos2: "'kern' Horizontal Kerning lookup 15-1" uni0643 dx=-212 dy=0 dh=-212 dv=0 dx=0 dy=0 dh=0 dv=0
PairPos2: "'kern' Horizontal Kerning lookup 15-1" uniFED7 dx=-212 dy=0 dh=-212 dv=0 dx=0 dy=0 dh=0 dv=0
PairPos2: "'kern' Horizontal Kerning lookup 15-1" uni0642 dx=-159 dy=0 dh=-159 dv=0 dx=0 dy=0 dh=0 dv=0
PairPos2: "'kern' Horizontal Kerning lookup 15-1" uniFED3 dx=-212 dy=0 dh=-212 dv=0 dx=0 dy=0 dh=0 dv=0
PairPos2: "'kern' Horizontal Kerning lookup 15-1" uni0641 dx=-212 dy=0 dh=-212 dv=0 dx=0 dy=0 dh=0 dv=0
PairPos2: "'kern' Horizontal Kerning lookup 15-1" uniFECF dx=-212 dy=0 dh=-212 dv=0 dx=0 dy=0 dh=0 dv=0
PairPos2: "'kern' Horizontal Kerning lookup 15-1" uniFECB dx=-212 dy=0 dh=-212 dv=0 dx=0 dy=0 dh=0 dv=0
PairPos2: "'kern' Horizontal Kerning lookup 15-1" uniFEC7 dx=-212 dy=0 dh=-212 dv=0 dx=0 dy=0 dh=0 dv=0
PairPos2: "'kern' Horizontal Kerning lookup 15-1" uni0638 dx=-212 dy=0 dh=-212 dv=0 dx=0 dy=0 dh=0 dv=0
PairPos2: "'kern' Horizontal Kerning lookup 15-1" uniFEC3 dx=-212 dy=0 dh=-212 dv=0 dx=0 dy=0 dh=0 dv=0
PairPos2: "'kern' Horizontal Kerning lookup 15-1" uni0637 dx=-212 dy=0 dh=-212 dv=0 dx=0 dy=0 dh=0 dv=0
PairPos2: "'kern' Horizontal Kerning lookup 15-1" uniFEBF dx=-212 dy=0 dh=-212 dv=0 dx=0 dy=0 dh=0 dv=0
PairPos2: "'kern' Horizontal Kerning lookup 15-1" uni0636 dx=-212 dy=0 dh=-212 dv=0 dx=0 dy=0 dh=0 dv=0
PairPos2: "'kern' Horizontal Kerning lookup 15-1" uniFEBB dx=-212 dy=0 dh=-212 dv=0 dx=0 dy=0 dh=0 dv=0
PairPos2: "'kern' Horizontal Kerning lookup 15-1" uni0635 dx=-212 dy=0 dh=-212 dv=0 dx=0 dy=0 dh=0 dv=0
PairPos2: "'kern' Horizontal Kerning lookup 15-1" uniFEB7 dx=-212 dy=0 dh=-212 dv=0 dx=0 dy=0 dh=0 dv=0
PairPos2: "'kern' Horizontal Kerning lookup 15-1" uni0634 dx=-212 dy=0 dh=-212 dv=0 dx=0 dy=0 dh=0 dv=0
PairPos2: "'kern' Horizontal Kerning lookup 15-1" uniFEB3 dx=-212 dy=0 dh=-212 dv=0 dx=0 dy=0 dh=0 dv=0
PairPos2: "'kern' Horizontal Kerning lookup 15-1" uni0633 dx=-212 dy=0 dh=-212 dv=0 dx=0 dy=0 dh=0 dv=0
PairPos2: "'kern' Horizontal Kerning lookup 15-1" uni0632 dx=-85 dy=0 dh=-85 dv=0 dx=0 dy=0 dh=0 dv=0
PairPos2: "'kern' Horizontal Kerning lookup 15-1" uni0631 dx=-85 dy=0 dh=-85 dv=0 dx=0 dy=0 dh=0 dv=0
PairPos2: "'kern' Horizontal Kerning lookup 15-1" uni0630 dx=-212 dy=0 dh=-212 dv=0 dx=0 dy=0 dh=0 dv=0
PairPos2: "'kern' Horizontal Kerning lookup 15-1" uni062F dx=-212 dy=0 dh=-212 dv=0 dx=0 dy=0 dh=0 dv=0
PairPos2: "'kern' Horizontal Kerning lookup 15-1" uniFEA7 dx=-212 dy=0 dh=-212 dv=0 dx=0 dy=0 dh=0 dv=0
PairPos2: "'kern' Horizontal Kerning lookup 15-1" uniFEA3 dx=-212 dy=0 dh=-212 dv=0 dx=0 dy=0 dh=0 dv=0
PairPos2: "'kern' Horizontal Kerning lookup 15-1" uniFE9F dx=-212 dy=0 dh=-212 dv=0 dx=0 dy=0 dh=0 dv=0
PairPos2: "'kern' Horizontal Kerning lookup 15-1" uniFE9B dx=-212 dy=0 dh=-212 dv=0 dx=0 dy=0 dh=0 dv=0
PairPos2: "'kern' Horizontal Kerning lookup 15-1" uni062B dx=-212 dy=0 dh=-212 dv=0 dx=0 dy=0 dh=0 dv=0
PairPos2: "'kern' Horizontal Kerning lookup 15-1" uniFE97 dx=-212 dy=0 dh=-212 dv=0 dx=0 dy=0 dh=0 dv=0
PairPos2: "'kern' Horizontal Kerning lookup 15-1" uni062A dx=-212 dy=0 dh=-212 dv=0 dx=0 dy=0 dh=0 dv=0
PairPos2: "'kern' Horizontal Kerning lookup 15-1" uni0629 dx=-212 dy=0 dh=-212 dv=0 dx=0 dy=0 dh=0 dv=0
PairPos2: "'kern' Horizontal Kerning lookup 15-1" uniFE91 dx=-85 dy=0 dh=-85 dv=0 dx=0 dy=0 dh=0 dv=0
PairPos2: "'kern' Horizontal Kerning lookup 15-1" uni0628 dx=-212 dy=0 dh=-212 dv=0 dx=0 dy=0 dh=0 dv=0
PairPos2: "'kern' Horizontal Kerning lookup 15-1" uni0627 dx=-212 dy=0 dh=-212 dv=0 dx=0 dy=0 dh=0 dv=0
PairPos2: "'kern' Horizontal Kerning lookup 15-1" uni0623 dx=-212 dy=0 dh=-212 dv=0 dx=0 dy=0 dh=0 dv=0
PairPos2: "'kern' Horizontal Kerning lookup 15-1" uni0622 dx=-212 dy=0 dh=-212 dv=0 dx=0 dy=0 dh=0 dv=0
PairPos2: "'kern' Horizontal Kerning lookup 15-1" uni0621 dx=-212 dy=0 dh=-212 dv=0 dx=0 dy=0 dh=0 dv=0
PairPos2: "'kern' Horizontal Kerning lookup 15-1" uniFB94 dx=-307 dy=0 dh=-307 dv=0 dx=0 dy=0 dh=0 dv=0
PairPos2: "'kern' Horizontal Kerning lookup 15-1" uniFB92 dx=-307 dy=0 dh=-307 dv=0 dx=0 dy=0 dh=0 dv=0
PairPos2: "'kern' Horizontal Kerning lookup 15-1" afii57509 dx=-307 dy=0 dh=-307 dv=0 dx=0 dy=0 dh=0 dv=0
PairPos2: "'kern' Horizontal Kerning lookup 15-1" afii57508 dx=-85 dy=0 dh=-85 dv=0 dx=0 dy=0 dh=0 dv=0
PairPos2: "'kern' Horizontal Kerning lookup 15-1" uniFB7C dx=-159 dy=0 dh=-159 dv=0 dx=0 dy=0 dh=0 dv=0
PairPos2: "'kern' Horizontal Kerning lookup 15-1" afii57506 dx=-212 dy=0 dh=-212 dv=0 dx=0 dy=0 dh=0 dv=0
PairPos2: "'kern' Horizontal Kerning lookup 15-1" afii57440 dx=-212 dy=0 dh=-212 dv=0 dx=0 dy=0 dh=0 dv=0
PairPos2: "'kern' Horizontal Kerning lookup 15-1" uniFE8B dx=-212 dy=0 dh=-212 dv=0 dx=0 dy=0 dh=0 dv=0
Substitution2: "'fina' Terminal Forms in Arabic lookup 9 subtable" uniFEAE
EndChar

StartChar: uni0633
Encoding: 1587 1587 27
Width: 2384
VWidth: 2351
GlyphClass: 2
Flags: W
AnchorPoint: "Anchor-7" 638.95 -688.09 basechar 0
AnchorPoint: "Anchor-10" 1687.64 1112.47 basechar 0
LayerCount: 2
Fore
SplineSet
1456.9765625 -0.31640625 m 0,0,1
 1400.171875 -0.0673828125 1400.171875 -0.0673828125 1338.27246094 26.5029296875 c 1,2,3
 1319.9453125 -241.395507812 1319.9453125 -241.395507812 1154.66210938 -379.090820312 c 128,-1,4
 989.37890625 -516.78515625 989.37890625 -516.78515625 690.450195312 -517.545898438 c 0,5,6
 417.515625 -518.0234375 417.515625 -518.0234375 252.698242188 -392.291992188 c 0,7,8
 58.9609375 -243.701171875 58.9609375 -243.701171875 59.55859375 58.439453125 c 0,9,10
 60.017578125 273.498046875 60.017578125 273.498046875 155.828125 489.950195312 c 2,11,-1
 170.991210938 524.205078125 l 1,12,-1
 206.166015625 511.318359375 l 1,13,-1
 354.900390625 456.826171875 l 1,14,-1
 393.923828125 442.529296875 l 1,15,-1
 378.14453125 404.080078125 l 2,16,17
 339.387695312 309.646484375 339.387695312 309.646484375 320.166015625 227.233398438 c 128,-1,18
 300.943359375 144.8203125 300.943359375 144.8203125 300.893554688 75.26171875 c 0,19,20
 300.942382812 -98.98046875 300.942382812 -98.98046875 395.223632812 -181.858398438 c 128,-1,21
 489.50390625 -264.736328125 489.50390625 -264.736328125 692.98046875 -264.501953125 c 0,22,23
 911.19921875 -264.264648438 911.19921875 -264.264648438 1012.55957031 -176.780273438 c 128,-1,24
 1113.91992188 -89.2958984375 1113.91992188 -89.2958984375 1113.8515625 93.134765625 c 0,25,26
 1113.89648438 135.573242188 1113.89648438 135.573242188 1102.91894531 187.055664062 c 128,-1,27
 1091.94238281 238.538085938 1091.94238281 238.538085938 1068.97167969 300.768554688 c 128,-1,28
 1046 363 1046 363 1011.56640625 433.033203125 c 2,29,-1
 998.028320312 460.567382812 l 1,30,-1
 1021.11328125 480.778320312 l 1,31,-1
 1157.94238281 600.573242188 l 1,32,-1
 1197.56933594 635.266601562 l 1,33,-1
 1220.35449219 587.782226562 l 2,34,35
 1221.47753906 585.440429688 1221.47753906 585.440429688 1324.03417969 342.513671875 c 0,36,37
 1341.8359375 300.426757812 1341.8359375 300.426757812 1374.18847656 280.786132812 c 128,-1,38
 1406.54101562 261.145507812 1406.54101562 261.145507812 1461.15917969 261.252929688 c 0,39,40
 1521.87988281 261.547851562 1521.87988281 261.547851562 1553.66601562 296.8046875 c 128,-1,41
 1585.453125 332.061523438 1585.453125 332.061523438 1593.66796875 416.26953125 c 2,42,-1
 1612.23339844 606.586914062 l 1,43,-1
 1615.75585938 642.703125 l 1,44,-1
 1652.04394531 642.703125 l 1,45,-1
 1770.06054688 642.703125 l 1,46,-1
 1805.01367188 642.703125 l 1,47,-1
 1809.69921875 608.065429688 l 1,48,-1
 1835.63964844 416.32421875 l 2,49,50
 1847.21386719 329.537109375 1847.21386719 329.537109375 1881.63476562 293.189453125 c 128,-1,51
 1916.05566406 256.842773438 1916.05566406 256.842773438 1978.87402344 257.404296875 c 0,52,53
 2003.83691406 257.565429688 2003.83691406 257.565429688 2021.56054688 263.147460938 c 128,-1,54
 2039.28417969 268.729492188 2039.28417969 268.729492188 2050.85742188 279.23828125 c 128,-1,55
 2062.43066406 289.748046875 2062.43066406 289.748046875 2070.96679688 306.646484375 c 0,56,57
 2107.47753906 376.8515625 2107.47753906 376.8515625 2084.70117188 525.073242188 c 0,58,59
 2078.73242188 564.018554688 2078.73242188 564.018554688 2068.94238281 612.826171875 c 128,-1,60
 2059.15234375 661.633789062 2059.15234375 661.633789062 2045.58886719 719.93359375 c 2,61,-1
 2037.23632812 755.838867188 l 1,62,-1
 2072.34179688 767.088867188 l 1,63,-1
 2229.51660156 817.458007812 l 1,64,-1
 2266.47265625 829.30078125 l 1,65,-1
 2279.42871094 792.720703125 l 2,66,67
 2323.55175781 668.139648438 2323.55175781 668.139648438 2334.04394531 508.217773438 c 0,68,69
 2335.12792969 492.010742188 2335.12792969 492.010742188 2335.76757812 476.262695312 c 128,-1,70
 2336.40625 460.513671875 2336.40625 460.513671875 2336.59472656 445.305664062 c 0,71,72
 2340.37792969 140.053710938 2340.37792969 140.053710938 2159.25195312 41.736328125 c 0,73,74
 2083.82226562 1.412109375 2083.82226562 1.412109375 1981.49707031 -0.005859375 c 0,75,76
 1808.75488281 -1.85546875 1808.75488281 -1.85546875 1712.07910156 115.153320312 c 1,77,78
 1622.05371094 -0.9541015625 1622.05371094 -0.9541015625 1456.9765625 -0.31640625 c 0,0,1
EndSplineSet
Substitution2: "'fina' Terminal Forms in Arabic lookup 9 subtable" uniFEB2
Substitution2: "'medi' Medial Forms in Arabic lookup 11 subtable" uniFEB4
Substitution2: "'init' Initial Forms in Arabic lookup 13 subtable" uniFEB3
EndChar

StartChar: uni0635
Encoding: 1589 1589 29
Width: 2514
VWidth: 2351
GlyphClass: 2
Flags: W
AnchorPoint: "Anchor-10" 1687.64 1112.47 basechar 0
AnchorPoint: "Anchor-7" 638.95 -688.09 basechar 0
LayerCount: 2
Fore
SplineSet
1323.65234375 343.388671875 m 0,0,1
 1333.55078125 321.46875 1333.55078125 321.46875 1348.1953125 313.001953125 c 1,2,3
 1719.66699219 838.032226562 1719.66699219 838.032226562 2069.23144531 837.188476562 c 0,4,5
 2237.77148438 836.98046875 2237.77148438 836.98046875 2343.4765625 738.45703125 c 0,6,7
 2455.82128906 634.668945312 2455.82128906 634.668945312 2457.578125 463.3046875 c 0,8,9
 2459.15136719 256.193359375 2459.15136719 256.193359375 2281.12304688 121.787109375 c 0,10,11
 2247.23144531 95.990234375 2247.23144531 95.990234375 2204.36816406 75.77734375 c 128,-1,12
 2161.50488281 55.564453125 2161.50488281 55.564453125 2110.77441406 41.048828125 c 128,-1,13
 2060.04492188 26.533203125 2060.04492188 26.533203125 2000.03808594 17.126953125 c 128,-1,14
 1940.03027344 7.720703125 1940.03027344 7.720703125 1872.78027344 3.365234375 c 128,-1,15
 1805.53027344 -0.990234375 1805.53027344 -0.990234375 1728.69824219 -0.7109375 c 2,16,-1
 1533.04003906 0.0009765625 l 2,17,18
 1477.78417969 0.3857421875 1477.78417969 0.3857421875 1428.60449219 8.009765625 c 128,-1,19
 1379.42480469 15.6337890625 1379.42480469 15.6337890625 1338.51757812 30.20703125 c 1,20,21
 1321.21679688 -239.302734375 1321.21679688 -239.302734375 1155.83300781 -378.04296875 c 128,-1,22
 990.450195312 -516.782226562 990.450195312 -516.782226562 690.450195312 -517.545898438 c 0,23,24
 417.515625 -518.0234375 417.515625 -518.0234375 252.698242188 -392.291992188 c 0,25,26
 58.9609375 -243.701171875 58.9609375 -243.701171875 59.55859375 58.439453125 c 0,27,28
 60.017578125 273.498046875 60.017578125 273.498046875 155.828125 489.950195312 c 2,29,-1
 170.991210938 524.205078125 l 1,30,-1
 206.166015625 511.318359375 l 1,31,-1
 354.900390625 456.826171875 l 1,32,-1
 393.923828125 442.529296875 l 1,33,-1
 378.14453125 404.080078125 l 2,34,35
 339.387695312 309.646484375 339.387695312 309.646484375 320.166015625 227.233398438 c 128,-1,36
 300.943359375 144.8203125 300.943359375 144.8203125 300.893554688 75.26171875 c 0,37,38
 300.942382812 -98.98046875 300.942382812 -98.98046875 395.223632812 -181.858398438 c 128,-1,39
 489.50390625 -264.736328125 489.50390625 -264.736328125 692.98046875 -264.501953125 c 0,40,41
 911.19921875 -264.264648438 911.19921875 -264.264648438 1012.55957031 -176.780273438 c 128,-1,42
 1113.91992188 -89.2958984375 1113.91992188 -89.2958984375 1113.8515625 93.134765625 c 0,43,44
 1113.89648438 135.573242188 1113.89648438 135.573242188 1102.91894531 187.055664062 c 128,-1,45
 1091.94238281 238.538085938 1091.94238281 238.538085938 1068.97167969 300.768554688 c 128,-1,46
 1046 363 1046 363 1011.56640625 433.033203125 c 2,47,-1
 998.028320312 460.567382812 l 1,48,-1
 1021.11328125 480.778320312 l 1,49,-1
 1157.94238281 600.573242188 l 1,50,-1
 1202.28613281 639.396484375 l 1,51,-1
 1221.98925781 583.849609375 l 2,52,53
 1247.14355469 512.938476562 1247.14355469 512.938476562 1323.65234375 343.388671875 c 0,0,1
1613.93652344 266.91796875 m 1,54,-1
 1712.11425781 266.91796875 l 2,55,56
 1975.83105469 266.909179688 1975.83105469 266.909179688 2087.37695312 310.063476562 c 0,57,58
 2131.17578125 327.356445312 2131.17578125 327.356445312 2157.16601562 349.916015625 c 128,-1,59
 2183.15527344 372.475585938 2183.15527344 372.475585938 2193.18164062 400.345703125 c 128,-1,60
 2203.20703125 428.216796875 2203.20703125 428.216796875 2200.12011719 464.807617188 c 0,61,62
 2198.33105469 486.09375 2198.33105469 486.09375 2192.65136719 501.447265625 c 128,-1,63
 2186.97167969 516.80078125 2186.97167969 516.80078125 2176.93457031 529.086914062 c 0,64,65
 2139.56542969 577.951171875 2139.56542969 577.951171875 2063.93359375 577.580078125 c 0,66,67
 2008.41699219 577.786132812 2008.41699219 577.786132812 1949.01464844 553.869140625 c 128,-1,68
 1889.61230469 529.951171875 1889.61230469 529.951171875 1825.54785156 480.1171875 c 0,69,70
 1733.77246094 408.840820312 1733.77246094 408.840820312 1613.93652344 266.91796875 c 1,54,-1
EndSplineSet
Substitution2: "'fina' Terminal Forms in Arabic lookup 9 subtable" uniFEBA
Substitution2: "'medi' Medial Forms in Arabic lookup 11 subtable" uniFEBC
Substitution2: "'init' Initial Forms in Arabic lookup 13 subtable" uniFEBB
EndChar

StartChar: uni0637
Encoding: 1591 1591 31
Width: 1574
VWidth: 2351
GlyphClass: 2
Flags: W
AnchorPoint: "Anchor-10" 345.043 1506.92 basechar 0
AnchorPoint: "Anchor-7" 705.363 -194.3 basechar 0
LayerCount: 2
Fore
SplineSet
673.947265625 265.62890625 m 1,0,-1
 772.147460938 265.62890625 l 2,1,2
 1033.40039062 265.989257812 1033.40039062 265.989257812 1147.31542969 310.7265625 c 0,3,4
 1190.83984375 327.985351562 1190.83984375 327.985351562 1216.77832031 350.571289062 c 128,-1,5
 1242.71679688 373.157226562 1242.71679688 373.157226562 1252.86230469 401.098632812 c 128,-1,6
 1263.00878906 429.0390625 1263.00878906 429.0390625 1260.16796875 465.682617188 c 0,7,8
 1258.59179688 484.841796875 1258.59179688 484.841796875 1252.68945312 500.828125 c 128,-1,9
 1246.78710938 516.813476562 1246.78710938 516.813476562 1236.51464844 530.427734375 c 0,10,11
 1200.16308594 578.059570312 1200.16308594 578.059570312 1123.79785156 578.291015625 c 0,12,13
 1011.6328125 578.922851562 1011.6328125 578.922851562 885.63671875 480.850585938 c 0,14,15
 842.247070312 447.091796875 842.247070312 447.091796875 788.712890625 392.729492188 c 128,-1,16
 735.178710938 338.368164062 735.178710938 338.368164062 673.947265625 265.62890625 c 1,0,-1
476.053710938 414.310546875 m 1,17,18
 814 838 814 838 1129.21289062 837.900390625 c 0,19,20
 1211 838 1211 838 1280.29394531 813.3046875 c 0,21,22
 1349 789 1349 789 1403.38574219 739.30859375 c 0,23,24
 1459 688 1459 688 1488.10449219 618.041992188 c 0,25,26
 1517 548 1517 548 1517.640625 464.010742188 c 0,27,28
 1519 248 1519 248 1340.10839844 121.708984375 c 0,29,30
 1168 0 1168 0 788.905273438 0 c 2,31,-1
 683 0 l 2,32,33
 234.262938946 0 234.262938946 0 60.6005859375 32.6904296875 c 2,34,-1
 28.1611328125 38.796875 l 1,35,-1
 28 71.8056640625 l 1,36,-1
 27.2548828125 225.283203125 l 1,37,-1
 27.060546875 265.477539062 l 1,38,-1
 67.2548828125 265.477539062 l 1,39,-1
 253.049804688 265.479492188 l 1,40,-1
 221.319335938 1376.609375 l 5,41,-1
 220.57421875 1404.55371094 l 5,42,-1
 246.560546875 1414.85839844 l 5,43,-1
 421.405273438 1484.18847656 l 5,44,-1
 476.154296875 1505.89746094 l 5,45,-1
 476.149414062 1447.00097656 l 5,46,-1
 476.053710938 414.310546875 l 1,17,18
EndSplineSet
Substitution2: "'fina' Terminal Forms in Arabic lookup 9 subtable" uniFEC2
Substitution2: "'medi' Medial Forms in Arabic lookup 11 subtable" uniFEC4
Substitution2: "'init' Initial Forms in Arabic lookup 13 subtable" uniFEC3
EndChar

StartChar: uni0639
Encoding: 1593 1593 33
Width: 1227
VWidth: 2351
GlyphClass: 2
Flags: W
AnchorPoint: "Anchor-7" 584.525 -773.648 basechar 0
AnchorPoint: "Anchor-10" 597.59 1431.96 basechar 0
LayerCount: 2
Fore
SplineSet
463.051757812 828.469726562 m 0,0,1
 444.565429688 801.533203125 444.565429688 801.533203125 439.99609375 776.791015625 c 128,-1,2
 435.426757812 752.048828125 435.426757812 752.048828125 445.255859375 725.19140625 c 128,-1,3
 455.0859375 698.333984375 455.0859375 698.333984375 480.876953125 667.765625 c 0,4,5
 537.848632812 599.983398438 537.848632812 599.983398438 611.620117188 568.091796875 c 1,6,7
 643.173828125 566.817382812 643.173828125 566.817382812 774.48828125 588.317382812 c 0,8,9
 795.862304688 591.526367188 795.862304688 591.526367188 999.6484375 624.209960938 c 2,10,-1
 1045.98242188 631.641601562 l 1,11,-1
 1045.98242188 584.71484375 l 1,12,-1
 1045.98242188 418.348632812 l 1,13,-1
 1045.98242188 381.155273438 l 1,14,-1
 1008.88769531 378.454101562 l 2,15,16
 886.677734375 369.555664062 886.677734375 369.555664062 775.563476562 339.359375 c 128,-1,17
 664.448242188 309.163085938 664.448242188 309.163085938 563.985351562 257.6796875 c 0,18,19
 431.59375 189.641601562 431.59375 189.641601562 368.609375 99.1083984375 c 128,-1,20
 305.624023438 8.5751953125 305.624023438 8.5751953125 306.143554688 -108.370117188 c 0,21,22
 306.887695312 -235.637695312 306.887695312 -235.637695312 405.06640625 -313.869140625 c 0,23,24
 508.15625 -397.02734375 508.15625 -397.02734375 777.890625 -397.551757812 c 0,25,26
 962.4609375 -397.987304688 962.4609375 -397.987304688 1089.37304688 -361.837890625 c 2,27,-1
 1127.90234375 -350.86328125 l 1,28,-1
 1138.81738281 -389.409179688 l 1,29,-1
 1182.82617188 -544.821289062 l 1,30,-1
 1193.4765625 -582.4296875 l 1,31,-1
 1156.12402344 -593.944335938 l 2,32,33
 984.000976562 -647.0078125 984.000976562 -647.0078125 779.954101562 -646.745117188 c 0,34,35
 569.34375 -646.876953125 569.34375 -646.876953125 418.26953125 -597.305664062 c 128,-1,36
 267.1953125 -547.734375 267.1953125 -547.734375 177.803710938 -445.293945312 c 0,37,38
 55.8720703125 -305.877929688 55.8720703125 -305.877929688 57.5205078125 -111.4921875 c 0,39,40
 59.09375 101.8046875 59.09375 101.8046875 163.924804688 250.649414062 c 0,41,42
 249.09375 371.6015625 249.09375 371.6015625 361.946289062 441.630859375 c 1,43,44
 280.895507812 500.241210938 280.895507812 500.241210938 239.610351562 578.974609375 c 128,-1,45
 198.32421875 657.708007812 198.32421875 657.708007812 198.61328125 753.521484375 c 0,46,47
 199.038085938 884.977539062 199.038085938 884.977539062 264.547851562 985.142578125 c 0,48,49
 381.432617188 1163.01660156 381.432617188 1163.01660156 596.860351562 1162.85449219 c 0,50,51
 826.452148438 1163.01464844 826.452148438 1163.01464844 959.986328125 977.961914062 c 2,52,-1
 977.846679688 953.211914062 l 1,53,-1
 958.690429688 929.450195312 l 1,54,-1
 867.140625 815.89453125 l 1,55,-1
 838.911132812 780.880859375 l 1,56,-1
 807.431640625 813.002929688 l 2,57,58
 785.125976562 835.763671875 785.125976562 835.763671875 762.186523438 852.643554688 c 128,-1,59
 739.247070312 869.522460938 739.247070312 869.522460938 715.515625 880.635742188 c 128,-1,60
 691.784179688 891.749023438 691.784179688 891.749023438 667.342773438 897.439453125 c 128,-1,61
 642.901367188 903.12890625 642.901367188 903.12890625 616.971679688 903.711914062 c 0,62,63
 599.297851562 904.186523438 599.297851562 904.186523438 583.549804688 902.482421875 c 128,-1,64
 567.801757812 900.77734375 567.801757812 900.77734375 553.65234375 896.8046875 c 128,-1,65
 539.50390625 892.831054688 539.50390625 892.831054688 526.984375 886.666015625 c 128,-1,66
 514.46484375 880.5 514.46484375 880.5 503.198242188 871.921875 c 128,-1,67
 491.931640625 863.34375 491.931640625 863.34375 482.001953125 852.568359375 c 128,-1,68
 472.072265625 841.791992188 472.072265625 841.791992188 463.051757812 828.469726562 c 0,0,1
EndSplineSet
Substitution2: "'fina' Terminal Forms in Arabic lookup 9 subtable" uniFECA
Substitution2: "'medi' Medial Forms in Arabic lookup 11 subtable" uniFECC
Substitution2: "'init' Initial Forms in Arabic lookup 13 subtable" uniFECB
EndChar

StartChar: afii57440
Encoding: 1600 1600 35
Width: 260
VWidth: 2351
GlyphClass: 2
Flags: W
AnchorPoint: "Anchor-10" 133.44 1394.15 basechar 0
AnchorPoint: "Anchor-7" 133.44 -80.3096 basechar 0
LayerCount: 2
Fore
SplineSet
266.620117188 0 m 2,0,-1
 -4 0 l 2,1,2
 -29.490234375 0 -29.490234375 0 -49.1357421875 12.5048828125 c 0,3,4
 -91.6240234375 39.548828125 -91.6240234375 39.548828125 -91.6240234375 114 c 2,5,-1
 -91.6240234375 147.90234375 l 2,6,7
 -92.00390625 225.7578125 -92.00390625 225.7578125 -48.23046875 253.239257812 c 0,8,9
 -28.7333984375 265.479492188 -28.7333984375 265.479492188 -3.6240234375 265.479492188 c 2,10,-1
 267.577148438 265.479492188 l 2,11,12
 279.329101562 265.361328125 279.329101562 265.361328125 290.361328125 262.432617188 c 128,-1,13
 301.39453125 259.502929688 301.39453125 259.502929688 311.1875 253.446289062 c 0,14,15
 324.30859375 245.330078125 324.30859375 245.330078125 333.373046875 233.465820312 c 128,-1,16
 342.4375 221.6015625 342.4375 221.6015625 347.036132812 207.200195312 c 128,-1,17
 351.633789062 192.798828125 351.633789062 192.798828125 353.504882812 178.727539062 c 128,-1,18
 355.375976562 164.65625 355.375976562 164.65625 355.375976562 148 c 2,19,-1
 355.375976562 113.8984375 l 2,20,21
 355.206054688 80.384765625 355.206054688 80.384765625 345.959960938 54.427734375 c 128,-1,22
 336.713867188 28.4697265625 336.713867188 28.4697265625 313.0859375 13.0947265625 c 0,23,24
 306.153320312 8.583984375 306.153320312 8.583984375 298.203125 5.6044921875 c 128,-1,25
 290.252929688 2.625 290.252929688 2.625 282.478515625 1.3125 c 128,-1,26
 274.704101562 0 274.704101562 0 266.620117188 0 c 2,0,-1
EndSplineSet
EndChar

StartChar: uni0643
Encoding: 1603 1603 38
Width: 1876
VWidth: 2351
GlyphClass: 2
Flags: W
AnchorPoint: "Anchor-10" 934.52 1510.01 basechar 0
AnchorPoint: "Anchor-7" 798.06 -161.16 basechar 0
LayerCount: 2
Fore
SplineSet
737.805664062 864.543945312 m 2,0,1
 803.142578125 855.928710938 803.142578125 855.928710938 859.853515625 856.087890625 c 0,2,3
 880.100585938 856.037109375 880.100585938 856.037109375 897.672851562 857.65625 c 128,-1,4
 915.24609375 859.275390625 915.24609375 859.275390625 928.361328125 862.102539062 c 128,-1,5
 941.4765625 864.930664062 941.4765625 864.930664062 951.53515625 868.924804688 c 0,6,7
 973.522460938 877.631835938 973.522460938 877.631835938 986.24609375 886.927734375 c 128,-1,8
 998.970703125 896.223632812 998.970703125 896.223632812 1001.24511719 900.6171875 c 128,-1,9
 1003.51855469 905.01171875 1003.51855469 905.01171875 1003.52148438 908.446289062 c 2,10,-1
 1003.50976562 908.77734375 l 2,11,12
 1003.37109375 912.552734375 1003.37109375 912.552734375 998.881835938 916.1484375 c 0,13,14
 985.64453125 925.615234375 985.64453125 925.615234375 949.303710938 931.861328125 c 0,15,16
 909.149414062 938.208984375 909.149414062 938.208984375 876.501953125 953.77734375 c 128,-1,17
 843.853515625 969.345703125 843.853515625 969.345703125 820.633789062 994.765625 c 0,18,19
 773.666015625 1046.95019531 773.666015625 1046.95019531 775.555664062 1117.32617188 c 0,20,21
 777.2109375 1178.36328125 777.2109375 1178.36328125 806.442382812 1225.40625 c 128,-1,22
 835.674804688 1272.44824219 835.674804688 1272.44824219 889.287109375 1299.75390625 c 0,23,24
 980.197265625 1346.03515625 980.197265625 1346.03515625 1110.28027344 1354.27929688 c 2,25,-1
 1127.18652344 1355.35058594 l 1,26,-1
 1169.71582031 1358.04589844 l 1,27,-1
 1169.71582031 1315.43066406 l 1,28,-1
 1169.71582031 1222.32324219 l 1,29,-1
 1169.71582031 1185.16601562 l 1,30,-1
 1132.65917969 1182.43164062 l 1,31,-1
 1117.96875 1181.34765625 l 2,32,33
 1048.51464844 1176.08105469 1048.51464844 1176.08105469 1016.58886719 1164.20605469 c 0,34,35
 989.868164062 1154.26855469 989.868164062 1154.26855469 973.951171875 1143.52832031 c 128,-1,36
 958.034179688 1132.78808594 958.034179688 1132.78808594 954.981445312 1127.77539062 c 128,-1,37
 951.928710938 1122.76269531 951.928710938 1122.76269531 951.951171875 1119.64160156 c 0,38,39
 951.89453125 1112.828125 951.89453125 1112.828125 952.510742188 1110.48535156 c 128,-1,40
 953.126953125 1108.14160156 953.126953125 1108.14160156 956.25390625 1105.89257812 c 128,-1,41
 959.380859375 1103.64453125 959.380859375 1103.64453125 967.674804688 1100.80078125 c 0,42,43
 977.314453125 1097.32519531 977.314453125 1097.32519531 993.0390625 1093.87695312 c 128,-1,44
 1008.76367188 1090.4296875 1008.76367188 1090.4296875 1030.24902344 1087.31152344 c 0,45,46
 1076.72558594 1080.1640625 1076.72558594 1080.1640625 1110.29296875 1057.66894531 c 128,-1,47
 1143.859375 1035.17382812 1143.859375 1035.17382812 1161.6953125 999.158203125 c 128,-1,48
 1179.53125 963.143554688 1179.53125 963.143554688 1179.55273438 916.778320312 c 0,49,50
 1179.51953125 856.000976562 1179.51953125 856.000976562 1144.87988281 806.224609375 c 128,-1,51
 1110.24023438 756.448242188 1110.24023438 756.448242188 1046.96777344 720.471679688 c 0,52,53
 926.873046875 651.325195312 926.873046875 651.325195312 721.275390625 685.7109375 c 2,54,-1
 707.999023438 687.931640625 l 1,55,-1
 674.59765625 693.518554688 l 1,56,-1
 674.59765625 727.383789062 l 1,57,-1
 674.59765625 827.258789062 l 1,58,-1
 674.59765625 872.880859375 l 1,59,-1
 719.828125 866.915039062 l 1,60,-1
 737.805664062 864.543945312 l 2,0,1
1557.89257812 504.39453125 m 2,61,-1
 1520.703125 1377.26074219 l 5,62,-1
 1519.58691406 1405.85351562 l 5,63,-1
 1546.28808594 1416.14453125 l 5,64,-1
 1723.2734375 1484.35546875 l 5,65,-1
 1777.65820312 1505.31542969 l 5,66,-1
 1777.65820312 1447.03125 l 5,67,-1
 1777.65820312 474.701171875 l 2,68,69
 1778 446 1778 446 1774.72167969 411.393554688 c 0,70,71
 1765 283 1765 283 1675.09179688 192.28515625 c 0,72,73
 1585 102 1585 102 1421.7578125 51.0126953125 c 0,74,75
 1264 2 1264 2 913.2421875 1.0595703125 c 0,76,77
 556.102032694 -0.0086680814216 556.102032694 -0.0086680814216 382.823242188 73.76171875 c 0,78,79
 237 136 237 136 155.795898438 243.412109375 c 0,80,81
 74 351 74 351 61.908203125 499.64453125 c 0,82,83
 49.9062562464 651.183628283 49.9062562464 651.183628283 92.591796875 802.815429688 c 2,84,-1
 103.25390625 840.690429688 l 1,85,-1
 141.299804688 830.65234375 l 1,86,-1
 283.53515625 793.123046875 l 1,87,-1
 318.48828125 783.900390625 l 1,88,-1
 312.838867188 748.1953125 l 2,89,90
 290 605 290 605 292.798828125 549.052734375 c 0,91,92
 299 426 299 426 383.247070312 357.8984375 c 0,93,94
 467 290 467 290 644.049804688 275.24609375 c 0,95,96
 810 261 810 261 1193.73144531 277.75 c 0,97,98
 1391 286 1391 286 1476.43945312 343.134765625 c 0,99,100
 1562 400 1562 400 1557.89257812 504.39453125 c 2,61,-1
EndSplineSet
Substitution2: "'fina' Terminal Forms in Arabic lookup 9 subtable" uniFEDA
Substitution2: "'medi' Medial Forms in Arabic lookup 11 subtable" uniFEDC
Substitution2: "'init' Initial Forms in Arabic lookup 13 subtable" uniFEDB
EndChar

StartChar: uni0644
Encoding: 1604 1604 39
Width: 1369
VWidth: 2351
GlyphClass: 2
Flags: W
AnchorPoint: "Anchor-7" 638.95 -688.09 basechar 0
AnchorPoint: "Anchor-10" 624.91 1155.85 basechar 0
LayerCount: 2
Fore
SplineSet
663.09375 -234.501953125 m 0,0,1
 665 -235 665 -235 666.633789062 -234.495117188 c 0,2,3
 668 -234 668 -234 670.146484375 -234.474609375 c 0,4,5
 672 -234 672 -234 673.688476562 -234.438476562 c 0,6,7
 675 -234 675 -234 677.174804688 -234.385742188 c 0,8,9
 869 -231 869 -231 957.74609375 -130.484375 c 0,10,11
 1047.10672863 -29.8798421284 1047.10672863 -29.8798421284 1042.83886719 181.630859375 c 2,12,-1
 1018.78222656 1373.85253906 l 5,13,-1
 1018.26660156 1401.12207031 l 5,14,-1
 1043.46484375 1411.5625 l 5,15,-1
 1216.18652344 1483.12597656 l 5,16,-1
 1271.49707031 1506.04199219 l 5,17,-1
 1271.49707031 1446.171875 l 5,18,-1
 1271.49707031 446.279296875 l 1,19,-1
 1271.49707031 441.96875 l 2,20,21
 1270 433 1270 433 1269.18066406 395.05078125 c 0,22,23
 1269 357 1269 357 1269.01464844 294.260742188 c 0,24,25
 1267.85566498 231.998567258 1267.85566498 231.998567258 1268.54101562 141.599609375 c 0,26,27
 1270 -12 1270 -12 1231.21582031 -129.512695312 c 0,28,29
 1193 -247 1193 -247 1116.2734375 -326.573242188 c 0,30,31
 1040 -406 1040 -406 925.174804688 -446.669921875 c 0,32,33
 811 -487 811 -487 660.421875 -487.545898438 c 0,34,35
 410 -488 410 -488 254.596679688 -368.213867188 c 0,36,37
 49 -210 49 -210 49.55859375 88.4501953125 c 0,38,39
 50 185 50 185 76.4658203125 292.977539062 c 0,40,41
 102.665273676 399.637306236 102.665273676 399.637306236 155.817382812 519.926757812 c 2,42,-1
 170.967773438 554.213867188 l 1,43,-1
 206.166015625 541.318359375 l 1,44,-1
 354.900390625 486.826171875 l 1,45,-1
 393.923828125 472.529296875 l 1,46,-1
 378.14453125 434.080078125 l 2,47,48
 301 246 301 246 300.893554688 105.270507812 c 0,49,50
 301 -34 301 -34 381.946289062 -132.65625 c 0,51,52
 465 -234 465 -234 663.09375 -234.501953125 c 0,0,1
EndSplineSet
Substitution2: "'fina' Terminal Forms in Arabic lookup 9 subtable" uniFEDE
Substitution2: "'medi' Medial Forms in Arabic lookup 11 subtable" uniFEE0
Substitution2: "'init' Initial Forms in Arabic lookup 13 subtable" uniFEDF
EndChar

StartChar: uni0645
Encoding: 1605 1605 40
Width: 1180
VWidth: 2311
GlyphClass: 2
Flags: W
AnchorPoint: "Anchor-10" 593.79 1069.87 basechar 0
AnchorPoint: "Anchor-7" 692.148 -182.569 basechar 0
LayerCount: 2
Fore
SplineSet
521.317382812 277.461914062 m 1,0,1
 545.278320312 274.64453125 545.278320312 274.64453125 586.180664062 272.473632812 c 0,2,3
 688.125 267.989257812 688.125 267.989257812 724.709960938 267.540039062 c 0,4,5
 763.340820312 267.670898438 763.340820312 267.670898438 796.946289062 270.345703125 c 128,-1,6
 830.551757812 273.01953125 830.551757812 273.01953125 847.59375 276.008789062 c 128,-1,7
 864.634765625 278.998046875 864.634765625 278.998046875 869.400390625 281.448242188 c 0,8,9
 874.0703125 284.87890625 874.0703125 284.87890625 880.231445312 293.284179688 c 128,-1,10
 886.392578125 301.689453125 886.392578125 301.689453125 892.61328125 315.0078125 c 2,11,-1
 894.583984375 319.475585938 l 2,12,13
 912.547851562 363.075195312 912.547851562 363.075195312 867.08984375 413.0546875 c 128,-1,14
 821.631835938 463.033203125 821.631835938 463.033203125 687.609375 518.205078125 c 0,15,16
 657.618164062 530.6484375 657.618164062 530.6484375 632.482421875 531.9375 c 128,-1,17
 607.346679688 533.225585938 607.346679688 533.225585938 587.79296875 524.662109375 c 0,18,19
 555.41015625 511.821289062 555.41015625 511.821289062 541.333007812 467.295898438 c 0,20,21
 527.756835938 424.088867188 527.756835938 424.088867188 521.385742188 306.646484375 c 1,22,-1
 521.317382812 277.461914062 l 1,0,1
827.359375 7.3701171875 m 0,23,24
 802.928710938 6.5390625 802.928710938 6.5390625 775.670898438 6.5361328125 c 128,-1,25
 748.412109375 6.5322265625 748.412109375 6.5322265625 718.235351562 7.349609375 c 0,26,27
 626.243164062 10.1767578125 626.243164062 10.1767578125 549.921875 11.6484375 c 128,-1,28
 473.599609375 13.12109375 473.599609375 13.12109375 413.079101562 13.240234375 c 0,29,30
 408.177734375 13.234375 408.177734375 13.234375 403.407226562 13.00390625 c 0,31,32
 334.44921875 9.6787109375 334.44921875 9.6787109375 302.380859375 -44.265625 c 128,-1,33
 270.3125 -98.2099609375 270.3125 -98.2099609375 276.40625 -223.176757812 c 2,34,-1
 299.868164062 -704.294921875 l 1,35,-1
 301.06640625 -728.861328125 l 1,36,-1
 279.68359375 -741.017578125 l 1,37,-1
 115.16796875 -834.540039062 l 1,38,-1
 55.400390625 -868.515625 l 1,39,-1
 55.400390625 -799.765625 l 1,40,-1
 55.400390625 -176.360351562 l 2,41,42
 54.9716796875 36.9052734375 54.9716796875 36.9052734375 144.0234375 149.14453125 c 0,43,44
 195.059570312 215.084960938 195.059570312 215.084960938 284.743164062 239.640625 c 1,45,46
 275.5546875 571.990234375 275.5546875 571.990234375 406.237304688 694.321289062 c 0,47,48
 520.314453125 801.107421875 520.314453125 801.107421875 636.233398438 800.321289062 c 0,49,50
 711.237304688 799.955078125 711.237304688 799.955078125 789.701171875 762.098632812 c 0,51,52
 987.8125 667.866210938 987.8125 667.866210938 1076.23046875 551.86328125 c 128,-1,53
 1164.6484375 435.861328125 1164.6484375 435.861328125 1127.5234375 299.9765625 c 0,54,55
 1096.79492188 186.635742188 1096.79492188 186.635742188 1055.63574219 119.16796875 c 0,56,57
 989.763671875 13.3408203125 989.763671875 13.3408203125 827.359375 7.3701171875 c 0,23,24
EndSplineSet
Substitution2: "'init' Initial Forms in Arabic lookup 13 subtable" uniFEE3
Substitution2: "'medi' Medial Forms in Arabic lookup 11 subtable" uniFEE4
Substitution2: "'fina' Terminal Forms in Arabic lookup 9 subtable" uniFEE2
EndChar

StartChar: uni0647
Encoding: 1607 1607 42
Width: 915
VWidth: 2351
GlyphClass: 2
Flags: W
AnchorPoint: "Anchor-10" 428.3 1206.62 basechar 0
AnchorPoint: "Anchor-7" 428.016 -177.273 basechar 0
LayerCount: 2
Fore
SplineSet
450.090820312 636.911132812 m 1,0,1
 298.192382812 488.790039062 298.192382812 488.790039062 299.056640625 361.448242188 c 0,2,3
 299.400390625 310.306640625 299.400390625 310.306640625 334.305664062 285.541015625 c 128,-1,4
 369.2109375 260.775390625 369.2109375 260.775390625 457.600585938 260.59375 c 0,5,6
 549.620117188 260.77734375 549.620117188 260.77734375 585.80078125 283.975585938 c 128,-1,7
 621.981445312 307.173828125 621.981445312 307.173828125 622.494140625 352.059570312 c 0,8,9
 623.727539062 480.743164062 623.727539062 480.743164062 450.090820312 636.911132812 c 1,0,1
458.8203125 3.7421875 m 0,10,11
 284.19921875 4.0224609375 284.19921875 4.0224609375 177.440429688 87.427734375 c 0,12,13
 60.53515625 179.237304688 60.53515625 179.237304688 59.1875 356.473632812 c 0,14,15
 56.9658203125 554.796875 56.9658203125 554.796875 271.897460938 797.489257812 c 1,16,-1
 266.678710938 801.916992188 l 1,17,-1
 238.543945312 825.788085938 l 1,18,-1
 260.0703125 855.754882812 l 1,19,-1
 360.913085938 996.13671875 l 1,20,-1
 385.397460938 1030.21972656 l 1,21,-1
 418.267578125 1004.13085938 l 2,22,23
 858.788085938 654.48828125 858.788085938 654.48828125 862.063476562 357.263671875 c 0,24,25
 863.131835938 269.545898438 863.131835938 269.545898438 829.81640625 198.1328125 c 128,-1,26
 796.501953125 126.719726562 796.501953125 126.719726562 730.278320312 76.2099609375 c 0,27,28
 634.459960938 2.9375 634.459960938 2.9375 458.8203125 3.7421875 c 0,10,11
EndSplineSet
Substitution2: "'fina' Terminal Forms in Arabic lookup 9 subtable" uniFEEA
Substitution2: "'medi' Medial Forms in Arabic lookup 11 subtable" uniFEEC
Substitution2: "'init' Initial Forms in Arabic lookup 13 subtable" uniFEEB
EndChar

StartChar: uni0648
Encoding: 1608 1608 43
Width: 891
VWidth: 2351
GlyphClass: 2
Flags: W
AnchorPoint: "Anchor-7" 336.38 -648.85 basechar 0
AnchorPoint: "Anchor-10" 434.959 1061.28 basechar 0
LayerCount: 2
Fore
SplineSet
442.333007812 547.80859375 m 0,0,1
 389.731445312 546.333007812 389.731445312 546.333007812 354.73828125 510.899414062 c 128,-1,2
 319.745117188 475.466796875 319.745117188 475.466796875 299.333007812 394.965820312 c 0,3,4
 290.740234375 361.484375 290.740234375 361.484375 290.822265625 335.436523438 c 0,5,6
 290.975585938 286.668945312 290.975585938 286.668945312 323.1796875 263.576171875 c 128,-1,7
 355.383789062 240.484375 355.383789062 240.484375 438.734375 240.7578125 c 0,8,9
 486.528320312 240.853515625 486.528320312 240.853515625 524.357421875 249.850585938 c 128,-1,10
 562.186523438 258.84765625 562.186523438 258.84765625 590.028320312 275.616210938 c 1,11,12
 589.233398438 316.939453125 589.233398438 316.939453125 586.24609375 344.5703125 c 0,13,14
 573.338867188 457.047851562 573.338867188 457.047851562 537.345703125 503.408203125 c 128,-1,15
 501.352539062 549.768554688 501.352539062 549.768554688 442.333007812 547.80859375 c 0,0,1
763.176757812 590.915039062 m 0,16,17
 831.036132812 451.12109375 831.036132812 451.12109375 830.135742188 222.17578125 c 0,18,19
 828.950195312 -105.721679688 828.950195312 -105.721679688 694.516601562 -279.635742188 c 0,20,21
 497.62109375 -533.999023438 497.62109375 -533.999023438 103.170898438 -537.41796875 c 2,22,-1
 101.255859375 -537.434570312 l 1,23,-1
 73.83203125 -537.672851562 l 1,24,-1
 63.724609375 -512.178710938 l 1,25,-1
 8.3642578125 -372.541015625 l 1,26,-1
 -12.0224609375 -321.1171875 l 1,27,-1
 43.19921875 -317.868164062 l 2,28,29
 269.985351562 -304.524414062 269.985351562 -304.524414062 398.651367188 -221.629882812 c 128,-1,30
 527.31640625 -138.735351562 527.31640625 -138.735351562 568.537109375 13.8271484375 c 1,31,32
 497.422851562 -8.92578125 497.422851562 -8.92578125 414.296875 -8.74609375 c 0,33,34
 310.0859375 -7.931640625 310.0859375 -7.931640625 237.692382812 25.3974609375 c 0,35,36
 149.02734375 66.1015625 149.02734375 66.1015625 103.431640625 140.529296875 c 128,-1,37
 57.8359375 214.956054688 57.8359375 214.956054688 58.8818359375 315.984375 c 0,38,39
 60.0830078125 440.802734375 60.0830078125 440.802734375 113.16796875 558.258789062 c 0,40,41
 165.610351562 675.233398438 165.610351562 675.233398438 249.09765625 737.380859375 c 128,-1,42
 332.5859375 799.528320312 332.5859375 799.528320312 442.794921875 800.208007812 c 0,43,44
 550.811523438 800.6484375 550.811523438 800.6484375 632.303710938 747.125976562 c 128,-1,45
 713.794921875 693.603515625 713.794921875 693.603515625 763.176757812 590.915039062 c 0,16,17
EndSplineSet
Substitution2: "'fina' Terminal Forms in Arabic lookup 9 subtable" uniFEEE
EndChar

StartChar: uni0649
Encoding: 1609 1609 44
Width: 1470
VWidth: 2351
GlyphClass: 2
Flags: W
AnchorPoint: "Anchor-10" 628.105 802.314 basechar 0
AnchorPoint: "Anchor-7" 636.429 -667.4 basechar 0
LayerCount: 2
Fore
SplineSet
1043.86523438 229.727539062 m 2,0,-1
 1099.96582031 230.900390625 l 2,1,2
 1157.37402344 230.954101562 1157.37402344 230.954101562 1202.63378906 224.192382812 c 128,-1,3
 1247.89257812 217.431640625 1247.89257812 217.431640625 1283.56347656 202.759765625 c 0,4,5
 1347.38085938 176.680664062 1347.38085938 176.680664062 1380.28417969 120.596679688 c 128,-1,6
 1413.1875 64.513671875 1413.1875 64.513671875 1413.4375 -13.12109375 c 0,7,8
 1414.06054688 -156.931640625 1414.06054688 -156.931640625 1325.45117188 -267.93359375 c 0,9,10
 1137.29492188 -503.966796875 1137.29492188 -503.966796875 707.8671875 -504.716796875 c 0,11,12
 667.612304688 -504.775390625 667.612304688 -504.775390625 630.083984375 -502.521484375 c 128,-1,13
 592.555664062 -500.268554688 592.555664062 -500.268554688 557.189453125 -495.614257812 c 128,-1,14
 521.823242188 -490.959960938 521.823242188 -490.959960938 489.111328125 -483.90234375 c 128,-1,15
 456.3984375 -476.844726562 456.3984375 -476.844726562 425.916015625 -467.25 c 128,-1,16
 395.432617188 -457.654296875 395.432617188 -457.654296875 367.53125 -445.565429688 c 0,17,18
 88.447265625 -323.051757812 88.447265625 -323.051757812 60.1396484375 3.3583984375 c 0,19,20
 57.33203125 36.6884765625 57.33203125 36.6884765625 57.1123046875 70.77734375 c 0,21,22
 55.9501953125 279.8125 55.9501953125 279.8125 186.672851562 558.40625 c 2,23,-1
 203.266601562 593.76953125 l 1,24,-1
 239.012695312 578.01953125 l 1,25,-1
 376.127929688 517.604492188 l 1,26,-1
 412.737304688 501.473632812 l 1,27,-1
 396.602539062 464.8671875 l 2,28,29
 378.5078125 423.813476562 378.5078125 423.813476562 363.897460938 384.124023438 c 128,-1,30
 349.288085938 344.435546875 349.288085938 344.435546875 338.251953125 306.465820312 c 128,-1,31
 327.216796875 268.497070312 327.216796875 268.497070312 319.61328125 231.912109375 c 128,-1,32
 312.010742188 195.327148438 312.010742188 195.327148438 307.869140625 160.439453125 c 128,-1,33
 303.7265625 125.551757812 303.7265625 125.551757812 302.965820312 92.0673828125 c 0,34,35
 302.770507812 83.6923828125 302.770507812 83.6923828125 302.813476562 75.5537109375 c 0,36,37
 303.6796875 -91.064453125 303.6796875 -91.064453125 402.78515625 -170.71484375 c 128,-1,38
 501.889648438 -250.366210938 501.889648438 -250.366210938 716.017578125 -248.955078125 c 0,39,40
 1003.77539062 -247.103515625 1003.77539062 -247.103515625 1136.32910156 -119.581054688 c 0,41,42
 1152.23046875 -104.412109375 1152.23046875 -104.412109375 1162.58203125 -90.359375 c 128,-1,43
 1172.93359375 -76.3076171875 1172.93359375 -76.3076171875 1176.62597656 -67.361328125 c 128,-1,44
 1180.31835938 -58.4150390625 1180.31835938 -58.4150390625 1180.56152344 -51.609375 c 0,45,46
 1181.01171875 -43.9921875 1181.01171875 -43.9921875 1180.66894531 -38.748046875 c 128,-1,47
 1180.32714844 -33.5048828125 1180.32714844 -33.5048828125 1176.56738281 -30.24609375 c 128,-1,48
 1172.80859375 -26.9873046875 1172.80859375 -26.9873046875 1163.91015625 -25.515625 c 128,-1,49
 1155.01171875 -24.0439453125 1155.01171875 -24.0439453125 1138.35058594 -23.970703125 c 2,50,-1
 1027.84277344 -23.48046875 l 2,51,52
 889.024414062 -22.6748046875 889.024414062 -22.6748046875 810.837890625 39.142578125 c 128,-1,53
 732.651367188 100.9609375 732.651367188 100.9609375 732.157226562 218.743164062 c 0,54,55
 732.013671875 235.345703125 732.013671875 235.345703125 733.307617188 252.108398438 c 128,-1,56
 734.6015625 268.87109375 734.6015625 268.87109375 737.296875 285.627929688 c 128,-1,57
 739.9921875 302.384765625 739.9921875 302.384765625 744.094726562 319.293945312 c 128,-1,58
 748.197265625 336.204101562 748.197265625 336.204101562 753.646484375 353.099609375 c 128,-1,59
 759.095703125 369.994140625 759.095703125 369.994140625 765.922851562 387.036132812 c 128,-1,60
 772.75 404.077148438 772.75 404.077148438 780.870117188 421.094726562 c 128,-1,61
 788.989257812 438.112304688 788.989257812 438.112304688 798.458007812 455.268554688 c 128,-1,62
 807.926757812 472.42578125 807.926757812 472.42578125 818.6328125 489.549804688 c 128,-1,63
 829.338867188 506.672851562 829.338867188 506.672851562 841.364257812 523.928710938 c 0,64,65
 894.479492188 599.564453125 894.479492188 599.564453125 962.443359375 654.60546875 c 0,66,67
 1039.71972656 716.413085938 1039.71972656 716.413085938 1127.1484375 748.5625 c 128,-1,68
 1214.57617188 780.711914062 1214.57617188 780.711914062 1310.60351562 782.509765625 c 2,69,-1
 1368.52246094 783.59375 l 1,70,-1
 1424.02148438 784.631835938 l 1,71,-1
 1407.4453125 731.655273438 l 1,72,-1
 1347.52929688 540.169921875 l 1,73,-1
 1338.74511719 512.096679688 l 1,74,-1
 1309.33007812 512.115234375 l 1,75,-1
 1295.17285156 512.124023438 l 2,76,77
 1268.85644531 512.088867188 1268.85644531 512.088867188 1242.45703125 506.23046875 c 128,-1,78
 1216.05859375 500.372070312 1216.05859375 500.372070312 1188.58886719 488.155273438 c 128,-1,79
 1161.12011719 475.9375 1161.12011719 475.9375 1133.3359375 457.385742188 c 0,80,81
 1085.36230469 424.833007812 1085.36230469 424.833007812 1050.81445312 386.791992188 c 128,-1,82
 1016.265625 348.750976562 1016.265625 348.750976562 994.64453125 305.233398438 c 0,83,84
 979.623046875 274.864257812 979.623046875 274.864257812 975.056640625 244.560546875 c 2,85,-1
 974.857421875 240.31640625 l 2,86,87
 976.831054688 238.5390625 976.831054688 238.5390625 983.563476562 236.172851562 c 128,-1,88
 990.295898438 233.807617188 990.295898438 233.807617188 1006.84277344 231.53125 c 128,-1,89
 1023.38867188 229.255859375 1023.38867188 229.255859375 1043.86523438 229.727539062 c 2,0,-1
EndSplineSet
Substitution2: "'fina' Terminal Forms in Arabic lookup 9 subtable" uniFEF0
Substitution2: "'medi' Medial Forms in Arabic lookup 11 subtable" uniFBE9
Substitution2: "'init' Initial Forms in Arabic lookup 13 subtable" uniFBE8
EndChar

StartChar: uni064B
Encoding: 1611 1611 46
Width: 33
VWidth: 2341
GlyphClass: 4
Flags: W
AnchorPoint: "Anchor-10" 640.188 1204.32 mark 0
AnchorPoint: "Anchor-9" 640.188 1204.32 mark 0
AnchorPoint: "Anchor-1" 602.029 1728.03 basemark 0
AnchorPoint: "Anchor-1" 640.188 1204.32 mark 0
LayerCount: 2
Fore
SplineSet
336.831054688 1152.984375 m 1,0,-1
 336.831054688 1262.44628906 l 1,1,-1
 336.831054688 1269.16094856 l 1,2,-1
 343.046189095 1271.70235693 l 1,3,-1
 823.541306282 1468.17989599 l 1,4,-1
 837.326171875 1473.81661606 l 1,5,-1
 837.326171875 1458.92382812 l 1,6,-1
 837.326171875 1349.46191406 l 1,7,-1
 837.326171875 1342.74725456 l 1,8,-1
 831.111037468 1340.20584619 l 1,9,-1
 350.615920281 1143.72830713 l 1,10,-1
 336.831054688 1138.09158706 l 1,11,-1
 336.831054688 1152.984375 l 1,0,-1
336.831054688 1413.90722656 m 1,12,-1
 336.831054688 1523.36914062 l 1,13,-1
 336.831054688 1530.08380012 l 1,14,-1
 343.046189095 1532.62520849 l 1,15,-1
 823.541306282 1729.10274756 l 1,16,-1
 837.326171875 1734.73946763 l 1,17,-1
 837.326171875 1719.84667969 l 1,18,-1
 837.326171875 1610.38476562 l 1,19,-1
 837.326171875 1603.67010612 l 1,20,-1
 831.111037468 1601.12869775 l 1,21,-1
 350.615920281 1404.65115869 l 1,22,-1
 336.831054688 1399.01443862 l 1,23,-1
 336.831054688 1413.90722656 l 1,12,-1
EndSplineSet
EndChar

StartChar: uni064C
Encoding: 1612 1612 47
Width: 35
VWidth: 2358
GlyphClass: 4
Flags: W
AnchorPoint: "Anchor-10" 705.527 1320.52 mark 0
AnchorPoint: "Anchor-9" 705.527 1320.52 mark 0
AnchorPoint: "Anchor-1" 602.066 1980.89 basemark 0
AnchorPoint: "Anchor-1" 705.527 1320.52 mark 0
LayerCount: 2
Fore
SplineSet
682.844917624 1803.47361732 m 0,0,1
 658.487942775 1803.51373717 658.487942775 1803.51373717 643.234478691 1796.9411787 c 128,-1,2
 627.981014607 1790.36862022 627.981014607 1790.36862022 620.806276102 1777.03922987 c 128,-1,3
 613.631537596 1763.70983953 613.631537596 1763.70983953 613.479055911 1742.57162952 c 0,4,5
 613.289211268 1722.24861376 613.289211268 1722.24861376 626.137617969 1705.95351964 c 128,-1,6
 638.98602467 1689.65842553 638.98602467 1689.65842553 666.844710095 1676.73819077 c 0,7,8
 670.510479806 1675.02013515 670.510479806 1675.02013515 675.185947519 1673.12565818 c 128,-1,9
 679.861415231 1671.2311812 679.861415231 1671.2311812 685.266772573 1669.2686919 c 128,-1,10
 690.672129915 1667.30620259 690.672129915 1667.30620259 696.680865153 1665.30569444 c 128,-1,11
 702.689600392 1663.30518629 702.689600392 1663.30518629 709.191637023 1661.3140719 c 128,-1,12
 715.693673654 1659.3229575 715.693673654 1659.3229575 722.392768078 1657.43222677 c 1,13,-1
 723.634365239 1660.2349555 l 2,14,15
 729.399382277 1673.28226279 729.399382277 1673.28226279 733.331470259 1686.32955179 c 128,-1,16
 737.263558242 1699.37684079 737.263558242 1699.37684079 739.31167509 1712.12317506 c 128,-1,17
 741.359791939 1724.86950934 741.359791939 1724.86950934 741.564534841 1737.34305354 c 0,18,19
 740.771205607 1772.13098612 740.771205607 1772.13098612 726.576932909 1787.83007733 c 128,-1,20
 712.38266021 1803.52916854 712.38266021 1803.52916854 682.844917624 1803.47361732 c 0,0,1
377.500617585 1606.1853174 m 2,21,22
 379.22339704 1402.87033604 379.22339704 1402.87033604 489.069430424 1402.6670236 c 0,23,24
 519.289434697 1402.76960523 519.289434697 1402.76960523 551.742001837 1419.2663024 c 128,-1,25
 584.194568977 1435.76299957 584.194568977 1435.76299957 618.771020267 1469.32594928 c 0,26,27
 658.897635498 1507.77442355 658.897635498 1507.77442355 682.629589726 1555.24778885 c 2,28,-1
 686.672380028 1563.33498398 l 1,29,30
 646.121706437 1572.96031305 646.121706437 1572.96031305 613.7649626 1589.56142676 c 0,31,32
 509.084960938 1642.40784236 509.084960938 1642.40784236 509.084960938 1749.68554688 c 0,33,34
 509.084960938 1808.37487756 509.084960938 1808.37487756 537.785938466 1846.30113183 c 0,35,36
 583.677998515 1908.50976562 583.677998515 1908.50976562 666.477539062 1908.50976562 c 0,37,38
 682.630308478 1908.50976562 682.630308478 1908.50976562 697.556957266 1906.62457429 c 128,-1,39
 712.483606055 1904.73938296 712.483606055 1904.73938296 726.237381456 1900.93547694 c 128,-1,40
 739.991156857 1897.13157093 739.991156857 1897.13157093 752.429056185 1891.43206537 c 128,-1,41
 764.866955513 1885.73255981 764.866955513 1885.73255981 776.052448178 1878.06267947 c 128,-1,42
 787.237940843 1870.39279912 787.237940843 1870.39279912 797.017801989 1860.81691103 c 0,43,44
 845.786785163 1813.06301662 845.786785163 1813.06301662 846.316032401 1729.81910592 c 0,45,46
 846.78182041 1690.21492114 846.78182041 1690.21492114 833.701599025 1648.80334582 c 2,47,-1
 831.013610516 1640.29377579 l 1,48,-1
 839.909798289 1639.82710837 l 2,49,50
 865.739732113 1638.52226225 865.739732113 1638.52226225 900.115401925 1637.83000417 c 2,51,-1
 909.9140625 1637.6326785 l 1,52,-1
 909.9140625 1627.83203125 l 1,53,-1
 909.9140625 1542.97851562 l 1,54,-1
 909.9140625 1532.81746767 l 1,55,-1
 899.754311203 1532.97979173 l 2,56,57
 886.189646528 1533.19651666 886.189646528 1533.19651666 875.838532726 1533.48572 c 128,-1,58
 865.487418923 1533.77492335 865.487418923 1533.77492335 857.79378823 1534.16201925 c 128,-1,59
 850.100157536 1534.54911516 850.100157536 1534.54911516 845.225262052 1535.03824327 c 2,60,-1
 786.934026602 1540.8870918 l 1,61,62
 715.644726889 1382.065883 715.644726889 1382.065883 583.051410573 1318.05504634 c 0,63,64
 541.409052902 1297.98626698 541.409052902 1297.98626698 486.721827602 1297.91797038 c 0,65,66
 365.243570405 1297.98735221 365.243570405 1297.98735221 315.112726053 1431.33467976 c 0,67,68
 295.405042898 1483.56034273 295.405042898 1483.56034273 294.305090932 1606.01076121 c 2,69,-1
 294.214455696 1616.10058594 l 1,70,-1
 304.3046875 1616.10058594 l 1,71,-1
 367.500976562 1616.10058594 l 1,72,-1
 377.416601046 1616.10058594 l 1,73,-1
 377.500617585 1606.1853174 l 2,21,22
EndSplineSet
EndChar

StartChar: uni064D
Encoding: 1613 1613 48
Width: 34
VWidth: 2174
GlyphClass: 4
Flags: W
AnchorPoint: "Anchor-7" 586.47 49.1016 mark 0
AnchorPoint: "Anchor-6" 586.47 49.1016 mark 0
AnchorPoint: "Anchor-0" 629.301 -470.676 basemark 0
AnchorPoint: "Anchor-0" 586.47 49.1016 mark 0
LayerCount: 2
Fore
SplineSet
342.427734375 -514.862304688 m 1,0,-1
 342.427734375 -405.399414062 l 1,1,-1
 342.427734375 -398.68474193 l 1,2,-1
 348.642884899 -396.1433396 l 1,3,-1
 829.138002086 -199.6667771 l 1,4,-1
 842.922851562 -194.030091642 l 1,5,-1
 842.922851562 -208.922851562 l 1,6,-1
 842.922851562 -318.383789062 l 1,7,-1
 842.922851562 -325.09843593 l 1,8,-1
 836.707733273 -327.639850343 l 1,9,-1
 356.212616086 -524.118365969 l 1,10,-1
 342.427734375 -529.755120641 l 1,11,-1
 342.427734375 -514.862304688 l 1,0,-1
342.427734375 -253.939453125 m 1,12,-1
 342.427734375 -144.4765625 l 1,13,-1
 342.427734375 -137.761890368 l 1,14,-1
 348.642884899 -135.220488038 l 1,15,-1
 829.138002086 61.2560744619 l 1,16,-1
 842.922851562 66.8927599198 l 1,17,-1
 842.922851562 52 l 1,18,-1
 842.922851562 -57.4609375 l 1,19,-1
 842.922851562 -64.1755843685 l 1,20,-1
 836.707733272 -66.716998781 l 1,21,-1
 356.212616085 -263.195514406 l 1,22,-1
 342.427734375 -268.832269078 l 1,23,-1
 342.427734375 -253.939453125 l 1,12,-1
EndSplineSet
EndChar

StartChar: uni064E
Encoding: 1614 1614 49
Width: 30
VWidth: 2355
GlyphClass: 4
Flags: W
AnchorPoint: "Anchor-10" 580.963 1453.7 mark 0
AnchorPoint: "Anchor-9" 580.963 1453.7 mark 0
AnchorPoint: "Anchor-1" 568.56 1766.6 basemark 0
AnchorPoint: "Anchor-1" 580.963 1453.7 mark 0
LayerCount: 2
Fore
SplineSet
304.369140625 1427.28417969 m 1,0,-1
 304.369140625 1536.74511719 l 1,1,-1
 304.369140625 1543.45976406 l 1,2,-1
 310.584258915 1546.00117847 l 1,3,-1
 791.079376102 1742.47969409 l 1,4,-1
 804.864257812 1748.11644876 l 1,5,-1
 804.864257812 1733.22363281 l 1,6,-1
 804.864257812 1623.76171875 l 1,7,-1
 804.864257812 1617.04705925 l 1,8,-1
 798.649123405 1614.50565088 l 1,9,-1
 318.154006218 1418.02811182 l 1,10,-1
 304.369140625 1412.39139175 l 1,11,-1
 304.369140625 1427.28417969 l 1,0,-1
EndSplineSet
EndChar

StartChar: uni064F
Encoding: 1615 1615 50
Width: 34
VWidth: 2362
GlyphClass: 4
Flags: W
AnchorPoint: "Anchor-10" 647.393 1386.94 mark 0
AnchorPoint: "Anchor-9" 647.393 1386.94 mark 0
AnchorPoint: "Anchor-1" 581.468 1999.59 basemark 0
AnchorPoint: "Anchor-1" 647.393 1386.94 mark 0
LayerCount: 2
Fore
SplineSet
844.873614953 1551.72995407 m 2,0,1
 808.627511975 1552.07833729 808.627511975 1552.07833729 778.03149588 1554.00764855 c 128,-1,2
 747.435479785 1555.93695981 747.435479785 1555.93695981 723.590007901 1559.32938677 c 1,3,4
 673.123839855 1490.46074285 673.123839855 1490.46074285 602.823979755 1447.12399731 c 0,5,6
 487.656784223 1375.13180244 487.656784223 1375.13180244 357.154085589 1370.26281212 c 2,7,-1
 346.78125 1369.87580681 l 1,8,-1
 346.78125 1380.25585938 l 1,9,-1
 346.78125 1464.91503906 l 1,10,-1
 346.78125 1473.50295077 l 1,11,-1
 355.270606201 1474.80027832 l 2,12,13
 528.57250981 1501.28395151 528.57250981 1501.28395151 606.362788814 1589.78132419 c 1,14,15
 562.807738469 1601.55239564 562.807738469 1601.55239564 531.310065522 1621.45371352 c 128,-1,16
 499.812392574 1641.35503141 499.812392574 1641.35503141 480.139078458 1669.80674544 c 0,17,18
 451.727995925 1708.99581332 451.727995925 1708.99581332 451.62988983 1759.7511054 c 0,19,20
 451.678424736 1800.71714696 451.678424736 1800.71714696 468.830726461 1834.26054256 c 128,-1,21
 485.983028187 1867.80393817 485.983028187 1867.80393817 519.677190568 1892.94895072 c 0,22,23
 542.832078368 1910.06379146 542.832078368 1910.06379146 568.542987456 1918.60875616 c 128,-1,24
 594.253896543 1927.15372086 594.253896543 1927.15372086 621.96688657 1926.92507179 c 0,25,26
 692.839954866 1927.38396142 692.839954866 1927.38396142 742.182546624 1878.85533658 c 0,27,28
 752.041364803 1869.24052065 752.041364803 1869.24052065 759.9430395 1858.15502451 c 128,-1,29
 767.844714197 1847.06952836 767.844714197 1847.06952836 773.721081721 1834.66831367 c 128,-1,30
 779.597449245 1822.26709898 779.597449245 1822.26709898 783.524814443 1808.49119441 c 128,-1,31
 787.452179641 1794.71528983 787.452179641 1794.71528983 789.405432338 1779.70745961 c 128,-1,32
 791.358685034 1764.69962939 791.358685034 1764.69962939 791.371076562 1748.41309962 c 0,33,34
 791.308705724 1714.77374583 791.308705724 1714.77374583 776.592148373 1667.48031091 c 2,35,-1
 773.967624271 1659.04798956 l 1,36,-1
 782.783780465 1658.52690221 l 2,37,38
 818.804455367 1656.42120033 818.804455367 1656.42120033 844.959389505 1656.44823685 c 2,39,-1
 854.969726562 1656.45858459 l 1,40,-1
 854.969726562 1646.44824219 l 1,41,-1
 854.969726562 1561.72949219 l 1,42,-1
 854.969726562 1551.63291424 l 1,43,-1
 844.873614953 1551.72995407 l 2,0,1
667.487258663 1675.8334489 m 1,44,45
 687.374471421 1718.73287798 687.374471421 1718.73287798 687.576985604 1754.17195167 c 0,46,47
 687.479126542 1771.34292582 687.479126542 1771.34292582 682.204328085 1783.81941318 c 128,-1,48
 676.929529627 1796.29590055 676.929529627 1796.29590055 666.515181317 1804.90357228 c 0,49,50
 645.17087482 1822.41578787 645.17087482 1822.41578787 620.815329228 1822.17530244 c 0,51,52
 596.233190301 1822.41371774 596.233190301 1822.41371774 577.70125817 1808.52887202 c 0,53,54
 557.428660054 1790.99211749 557.428660054 1790.99211749 556.624248691 1764.47697528 c 0,55,56
 556.243739327 1743.14406462 556.243739327 1743.14406462 569.578693045 1726.03003157 c 128,-1,57
 582.913646764 1708.91599851 582.913646764 1708.91599851 611.889788327 1695.44479077 c 0,58,59
 637.606124621 1683.48835147 637.606124621 1683.48835147 667.487258663 1675.8334489 c 1,44,45
EndSplineSet
EndChar

StartChar: uni0650
Encoding: 1616 1616 51
Width: 35
VWidth: 2177
GlyphClass: 4
Flags: W
AnchorPoint: "Anchor-7" 601.679 -55.8555 mark 0
AnchorPoint: "Anchor-6" 601.679 -55.8555 mark 0
AnchorPoint: "Anchor-0" 647.119 -332.306 basemark 0
AnchorPoint: "Anchor-0" 601.679 -55.8555 mark 0
LayerCount: 2
Fore
SplineSet
353.622070312 -356.975585938 m 1,0,-1
 353.622070312 -247.514648438 l 1,1,-1
 353.622070312 -240.799994103 l 1,2,-1
 359.837198128 -238.258583261 l 1,3,-1
 840.331338754 -41.7810441984 l 1,4,-1
 854.116210938 -36.1443099826 l 1,5,-1
 854.116210938 -51.037109375 l 1,6,-1
 854.116210938 -160.499023438 l 1,7,-1
 854.116210938 -167.213690405 l 1,8,-1
 847.901067004 -169.755095205 l 1,9,-1
 367.406926378 -366.231657705 l 1,10,-1
 353.622070312 -371.868357314 l 1,11,-1
 353.622070312 -356.975585938 l 1,0,-1
EndSplineSet
EndChar

StartChar: uni0651
Encoding: 1617 1617 52
Width: 35
VWidth: 2366
GlyphClass: 4
Flags: W
AnchorPoint: "Anchor-10" 642.017 1494.77 mark 0
AnchorPoint: "Anchor-9" 642.017 1494.77 mark 0
AnchorPoint: "Anchor-1" 612.756 1924.18 basemark 0
AnchorPoint: "Anchor-1" 642.017 1494.77 mark 0
LayerCount: 2
Fore
SplineSet
616.451439706 1580.62520493 m 1,0,1
 582.387142093 1462.01726981 582.387142093 1462.01726981 454.471308638 1462.49810324 c 0,2,3
 375.604556023 1462.76289334 375.604556023 1462.76289334 335.51788841 1510.63793954 c 128,-1,4
 295.431220797 1558.51298574 295.431220797 1558.51298574 295.892625112 1649.98866285 c 0,5,6
 295.920781639 1659.1735779 295.920781639 1659.1735779 296.868484422 1672.18781327 c 128,-1,7
 297.816187205 1685.20204863 297.816187205 1685.20204863 299.695386856 1702.18586597 c 128,-1,8
 301.574586507 1719.16968332 301.574586507 1719.16968332 304.337441531 1739.91049688 c 128,-1,9
 307.100296554 1760.65131044 307.100296554 1760.65131044 310.811125923 1785.69521872 c 2,10,-1
 312.075674263 1794.22949219 l 1,11,-1
 320.703125 1794.22949219 l 1,12,-1
 392.361328125 1794.22949219 l 1,13,-1
 403.916315747 1794.22949219 l 1,14,-1
 402.257781965 1782.79415203 l 2,15,16
 390.00334062 1698.30162805 390.00334062 1698.30162805 390.125032882 1672.01800073 c 0,17,18
 390.085982645 1644.52602359 390.085982645 1644.52602359 397.332113027 1627.30510423 c 128,-1,19
 404.578243409 1610.08418487 404.578243409 1610.08418487 419.081869509 1602.13836227 c 128,-1,20
 433.585495609 1594.19253967 433.585495609 1594.19253967 456.392494108 1594.27446073 c 0,21,22
 489.112762508 1594.1894353 489.112762508 1594.1894353 510.707727018 1605.62661844 c 128,-1,23
 532.302691527 1617.06380159 532.302691527 1617.06380159 543.771206974 1641.01671141 c 128,-1,24
 555.239722421 1664.96962123 555.239722421 1664.96962123 556.740077843 1702.37480982 c 0,25,26
 557.999822577 1740.16132422 557.999822577 1740.16132422 557.944343827 1784.69810802 c 0,27,28
 557.999953432 1828.96920763 557.999953432 1828.96920763 557.933868626 1837.88190996 c 2,29,-1
 557.8591721 1847.95605469 l 1,30,-1
 567.93359375 1847.95605469 l 1,31,-1
 638.77734375 1847.95605469 l 1,32,-1
 648.144175383 1847.95605469 l 1,33,-1
 648.755989353 1838.60922536 l 2,34,35
 651.001120906 1804.30981005 651.001120906 1804.30981005 650.841820694 1757.84429806 c 0,36,37
 650.916280935 1704.25728454 650.916280935 1704.25728454 674.446606287 1679.05779156 c 128,-1,38
 697.97693164 1653.85829858 697.97693164 1653.85829858 747.385670863 1653.73539239 c 0,39,40
 783.031387526 1653.85241934 783.031387526 1653.85241934 800.704156914 1677.87315268 c 128,-1,41
 818.376926302 1701.89388601 818.376926302 1701.89388601 818.71880652 1754.38225431 c 0,42,43
 818.788486278 1775.10690144 818.788486278 1775.10690144 818.178201811 1794.33976236 c 128,-1,44
 817.567917345 1813.57262327 817.567917345 1813.57262327 816.282797495 1831.23553556 c 128,-1,45
 814.997677644 1848.89844784 814.997677644 1848.89844784 813.046522673 1865.01078771 c 128,-1,46
 811.095367703 1881.12312758 811.095367703 1881.12312758 808.477782813 1895.69816385 c 2,47,-1
 806.364385689 1907.46582031 l 1,48,-1
 818.3203125 1907.46582031 l 1,49,-1
 894.27734375 1907.46582031 l 1,50,-1
 902.642486368 1907.46582031 l 1,51,-1
 904.120100094 1899.23221425 l 2,52,53
 918.002642487 1821.8754713 918.002642487 1821.8754713 917.825206836 1762.09353472 c 0,54,55
 917.884532199 1685.69738122 917.884532199 1685.69738122 899.389454898 1633.5549041 c 128,-1,56
 880.894377597 1581.41242698 880.894377597 1581.41242698 843.086865804 1554.27158238 c 128,-1,57
 805.279354011 1527.13073778 805.279354011 1527.13073778 749.003365651 1527.20236753 c 0,58,59
 656.44354447 1527.02224975 656.44354447 1527.02224975 616.451439706 1580.62520493 c 1,0,1
EndSplineSet
EndChar

StartChar: uni0652
Encoding: 1618 1618 53
Width: 37
VWidth: 2352
GlyphClass: 4
Flags: W
AnchorPoint: "Anchor-10" 624.018 1287.49 mark 0
AnchorPoint: "Anchor-9" 624.018 1287.49 mark 0
AnchorPoint: "Anchor-1" 609.914 1865.25 basemark 0
AnchorPoint: "Anchor-1" 624.018 1287.49 mark 0
LayerCount: 2
Fore
SplineSet
727.369140625 1544.50097656 m 0,0,1
 727.369140625 1586.80033527 727.369140625 1586.80033527 697.819131963 1616.35123244 c 0,2,3
 682.916230553 1631.25592641 682.916230553 1631.25592641 664.97462246 1638.5786468 c 128,-1,4
 647.033014366 1645.90136719 647.033014366 1645.90136719 625.3125 1645.90136719 c 0,5,6
 603.236564529 1645.90136719 603.236564529 1645.90136719 585.214971137 1638.6513329 c 128,-1,7
 567.193377745 1631.40129861 567.193377745 1631.40129861 552.475364687 1616.68283844 c 0,8,9
 542.650442221 1606.85791597 542.650442221 1606.85791597 536.179994449 1595.69391023 c 128,-1,10
 529.709546678 1584.52990449 529.709546678 1584.52990449 526.48416787 1571.7723836 c 128,-1,11
 523.258789062 1559.01486271 523.258789062 1559.01486271 523.258789062 1544.50097656 c 0,12,13
 523.258789062 1535.64793114 523.258789062 1535.64793114 524.419725117 1527.4735598 c 128,-1,14
 525.580661171 1519.29918846 525.580661171 1519.29918846 527.903280645 1511.75822311 c 128,-1,15
 530.225900118 1504.21725775 530.225900118 1504.21725775 533.735862191 1497.26121346 c 128,-1,16
 537.245824263 1490.30516917 537.245824263 1490.30516917 541.917718887 1483.92835736 c 128,-1,17
 546.589613512 1477.55154555 546.589613512 1477.55154555 552.47525728 1471.66590178 c 0,18,19
 581.692827896 1442.44921875 581.692827896 1442.44921875 625.3125 1442.44921875 c 0,20,21
 668.274416246 1442.44921875 668.274416246 1442.44921875 697.819663497 1471.9989085 c 128,-1,22
 727.369140625 1501.54749713 727.369140625 1501.54749713 727.369140625 1544.50097656 c 0,0,1
816.126953125 1544.61328125 m 0,23,24
 816.126953125 1464.6432379 816.126953125 1464.6432379 760.855958341 1409.01662698 c 0,25,26
 733.358038919 1381.34526444 733.358038919 1381.34526444 699.36485989 1367.37478066 c 128,-1,27
 665.371680861 1353.40429688 665.371680861 1353.40429688 625.625976562 1353.40429688 c 0,28,29
 621.208684586 1353.40429688 621.208684586 1353.40429688 616.864135249 1353.57441523 c 128,-1,30
 612.519585913 1353.74453357 612.519585913 1353.74453357 608.240905818 1354.08521014 c 128,-1,31
 603.962225723 1354.42588672 603.962225723 1354.42588672 599.754268551 1354.93839566 c 128,-1,32
 595.54631138 1355.45090461 595.54631138 1355.45090461 591.410511764 1356.13459525 c 128,-1,33
 587.274712148 1356.8182859 587.274712148 1356.8182859 583.20706187 1357.67559565 c 128,-1,34
 579.139411592 1358.5329054 579.139411592 1358.5329054 575.149653316 1359.56209302 c 0,35,36
 563.170136576 1362.65229787 563.170136576 1362.65229787 551.856735734 1367.30274407 c 128,-1,37
 540.543334892 1371.95319028 540.543334892 1371.95319028 529.942014076 1378.14673231 c 0,38,39
 508.796366107 1390.50009042 508.796366107 1390.50009042 490.395660002 1409.01696389 c 0,40,41
 476.620781724 1422.88004405 476.620781724 1422.88004405 466.231952513 1438.33592585 c 128,-1,42
 455.843123302 1453.79180764 455.843123302 1453.79180764 448.928642666 1470.75995656 c 0,43,44
 435.123046875 1504.64351113 435.123046875 1504.64351113 435.123046875 1544.61328125 c 0,45,46
 435.123046875 1571.08722427 435.123046875 1571.08722427 441.290084831 1595.04265936 c 128,-1,47
 447.457122787 1618.99809445 447.457122787 1618.99809445 459.758317419 1640.25831731 c 128,-1,48
 472.059512052 1661.51854018 472.059512052 1661.51854018 490.387982534 1679.85043066 c 0,49,50
 545.653817466 1735.11523438 545.653817466 1735.11523438 625.625976562 1735.11523438 c 128,-1,51
 705.596237136 1735.11523438 705.596237136 1735.11523438 760.86170053 1679.84977099 c 0,52,53
 788.364093924 1652.34275905 788.364093924 1652.34275905 802.245523524 1618.34927841 c 128,-1,54
 816.126953125 1584.35579778 816.126953125 1584.35579778 816.126953125 1544.61328125 c 0,23,24
EndSplineSet
EndChar

StartChar: uni0653
Encoding: 1619 1619 54
Width: 0
VWidth: 2317
GlyphClass: 4
Flags: W
AnchorPoint: "Anchor-10" 431.25 1353.11 mark 0
AnchorPoint: "Anchor-9" 431.25 1353.11 mark 0
AnchorPoint: "Anchor-1" 469.41 1766.53 basemark 0
AnchorPoint: "Anchor-1" 431.25 1353.11 mark 0
LayerCount: 2
Fore
SplineSet
159.686523438 1315.50390625 m 1,0,-1
 68.4404296875 1467.08007812 l 1,1,2
 176.951733593 1647.91956163 176.951733593 1647.91956163 331.780273438 1618.66015625 c 2,3,-1
 466.400390625 1593.21972656 l 2,4,5
 543 1579 543 1579 661.440429688 1650.45996094 c 5,6,-1
 726.099609375 1486.12011719 l 5,7,8
 625.91885998 1372.90830565 625.91885998 1372.90830565 456.860351562 1401.3203125 c 2,9,-1
 330.719726562 1422.51953125 l 2,10,11
 220 1441 220 1441 159.686523438 1315.50390625 c 1,0,-1
EndSplineSet
EndChar

StartChar: uni0657
Encoding: 1623 1623 57
Width: 58
VWidth: 2260
GlyphClass: 4
Flags: W
AnchorPoint: "Anchor-10" 580.71 1395.84 mark 0
AnchorPoint: "Anchor-9" 580.71 1395.84 mark 0
AnchorPoint: "Anchor-1" 580.71 2059.35 basemark 0
AnchorPoint: "Anchor-1" 580.71 1395.84 mark 0
LayerCount: 2
Fore
SplineSet
538.334464573 1783.43491294 m 2,0,1
 547.209347886 1781.46691443 547.209347886 1781.46691443 566.361295346 1771.38371448 c 0,2,3
 675.283203125 1714.90945461 675.283203125 1714.90945461 675.283203125 1619.39257812 c 0,4,5
 675.283203125 1531.78099523 675.283203125 1531.78099523 605.809471401 1479.42570707 c 0,6,7
 591.274576814 1468.52481692 591.274576814 1468.52481692 568.571009399 1463.49727174 c 128,-1,8
 545.867441984 1458.46972656 545.867441984 1458.46972656 514.359375 1458.46972656 c 0,9,10
 440.819199231 1458.46972656 440.819199231 1458.46972656 400.70683154 1497.58349854 c 0,11,12
 345.270507812 1552.00274623 345.270507812 1552.00274623 345.270507812 1631.64160156 c 0,13,14
 345.270507812 1648.00625945 345.270507812 1648.00625945 348.827682261 1667.40915011 c 128,-1,15
 352.38485671 1686.81204077 352.38485671 1686.81204077 359.453498023 1709.52962138 c 2,16,-1
 360.365341371 1712.46015464 l 1,17,-1
 357.299824225 1712.64120319 l 2,18,19
 348.602951206 1713.15164553 348.602951206 1713.15164553 339.651531331 1713.53511328 c 128,-1,20
 330.700111456 1713.91858103 330.700111456 1713.91858103 321.49941923 1714.17473418 c 0,21,22
 315.365492653 1714.34467721 315.365492653 1714.34467721 308.729415086 1714.46031303 c 128,-1,23
 302.09333752 1714.57594885 302.09333752 1714.57594885 294.95826332 1714.63708583 c 2,24,-1
 285.043945312 1714.7220368 l 1,25,-1
 285.043945312 1724.63671875 l 1,26,-1
 285.043945312 1812.10058594 l 1,27,-1
 285.043945312 1822.20713068 l 1,28,-1
 295.149922497 1822.10002437 l 2,29,30
 309.71012385 1821.94571079 309.71012385 1821.94571079 323.616367391 1821.45506657 c 128,-1,31
 337.522610932 1820.96442235 337.522610932 1820.96442235 350.855539167 1820.13352542 c 0,32,33
 358.519396535 1819.62104189 358.519396535 1819.62104189 366.039250638 1819.04658627 c 128,-1,34
 373.559104742 1818.47213064 373.559104742 1818.47213064 380.946553946 1817.83475062 c 128,-1,35
 388.334003151 1817.1973706 388.334003151 1817.1973706 395.589115313 1816.49710469 c 128,-1,36
 402.844227475 1815.79683879 402.844227475 1815.79683879 409.980148133 1815.03250437 c 2,37,-1
 411.387473532 1814.88245028 l 1,38,-1
 411.79491059 1815.46051285 l 1,39,-1
 412.202347663 1816.03857544 l 2,40,41
 455.811612494 1877.90832246 455.811612494 1877.90832246 525.846839918 1920.53327823 c 0,42,43
 720.382747171 2040.15771255 720.382747171 2040.15771255 866.010948435 2045.49134666 c 2,44,-1
 876.376953125 2045.87100167 l 1,45,-1
 876.376953125 2035.49804688 l 1,46,-1
 876.376953125 1948.06347656 l 1,47,-1
 876.376953125 1938.34874521 l 1,48,-1
 866.666288984 1938.0676632 l 2,49,50
 791.881359093 1935.90296072 791.881359093 1935.90296072 720.362156698 1908.07546425 c 128,-1,51
 648.842954303 1880.24796778 648.842954303 1880.24796778 580.2518046 1826.46349131 c 0,52,53
 568.437781452 1817.21572275 568.437781452 1817.21572275 557.654008336 1807.45862192 c 128,-1,54
 546.870235221 1797.70152108 546.870235221 1797.70152108 537.117682345 1787.44018071 c 2,55,-1
 534.189327093 1784.35725285 l 1,56,-1
 538.334464573 1783.43491294 l 2,0,1
469.108498642 1694.79488464 m 1,57,-1
 462.133715934 1678.52147111 l 2,58,59
 459.004769601 1671.22119609 459.004769601 1671.22119609 456.92358198 1663.6131185 c 128,-1,60
 454.842394358 1656.0050409 454.842394358 1656.0050409 453.797662023 1648.0122188 c 128,-1,61
 452.752929688 1640.0193967 452.752929688 1640.0193967 452.752929688 1631.64160156 c 0,62,63
 452.752929688 1595.80614882 452.752929688 1595.80614882 470.981136049 1580.79463689 c 0,64,65
 480.16251378 1573.23147267 480.16251378 1573.23147267 489.866247712 1569.59132227 c 128,-1,66
 499.569981644 1565.95117188 499.569981644 1565.95117188 510.276367188 1565.95117188 c 0,67,68
 533.973726327 1565.95117188 533.973726327 1565.95117188 546.50797159 1575.67010972 c 0,69,70
 565.758789062 1590.16094035 565.758789062 1590.16094035 565.758789062 1619.39257812 c 0,71,72
 565.758789062 1639.23019371 565.758789062 1639.23019371 554.380757921 1653.55972881 c 128,-1,73
 543.002726781 1667.88926392 543.002726781 1667.88926392 518.312691703 1677.7657267 c 0,74,75
 513.206821701 1679.8091732 513.206821701 1679.8091732 507.712687965 1681.85415161 c 128,-1,76
 502.218554229 1683.89913002 502.218554229 1683.89913002 496.326971656 1685.94879382 c 128,-1,77
 490.435389084 1687.99845763 490.435389084 1687.99845763 484.141838776 1690.05277257 c 128,-1,78
 477.848288468 1692.10708751 477.848288468 1692.10708751 471.171183574 1694.15968884 c 2,79,-1
 469.108498642 1694.79488464 l 1,57,-1
EndSplineSet
EndChar

StartChar: uni065A
Encoding: 1626 1626 58
Width: 1160
VWidth: 2317
GlyphClass: 4
Flags: W
AnchorPoint: "Anchor-10" 580.71 1356.27 mark 0
AnchorPoint: "Anchor-9" 580.71 1356.27 mark 0
AnchorPoint: "Anchor-1" 578.442 1866.66 basemark 0
AnchorPoint: "Anchor-1" 580.71 1356.27 mark 0
LayerCount: 2
Fore
SplineSet
496.011857163 1435.23678344 m 1,0,-1
 291.328263413 1777.42623656 l 1,1,-1
 282.276128381 1792.55957031 l 1,2,-1
 299.91015625 1792.55957031 l 1,3,-1
 425.889648438 1792.55957031 l 1,4,-1
 431.24154844 1792.55957031 l 1,5,-1
 434.210205209 1788.10649153 l 1,6,-1
 580.709934696 1568.35227691 l 1,7,-1
 727.208723955 1788.10646731 l 1,8,-1
 730.177378147 1792.55957031 l 1,9,-1
 735.529296875 1792.55957031 l 1,10,-1
 861.510742188 1792.55957031 l 1,11,-1
 879.144856434 1792.55957031 l 1,12,-1
 870.092613446 1777.42620049 l 1,13,-1
 665.40706657 1435.23674737 l 1,14,-1
 662.496021677 1430.37011719 l 1,15,-1
 656.825195312 1430.37011719 l 1,16,-1
 504.59375 1430.37011719 l 1,17,-1
 498.922895857 1430.37011719 l 1,18,-1
 496.011857163 1435.23678344 l 1,0,-1
EndSplineSet
EndChar

StartChar: afii57392
Encoding: 1632 1632 59
Width: 866
VWidth: 2351
GlyphClass: 2
Flags: W
LayerCount: 2
Fore
SplineSet
339.875976562 591.4921875 m 132,-1,1
 339.875976562 553.374023438 339.875976562 553.374023438 368.157226562 525.09375 c 4,2,3
 395.20703125 498.041992188 395.20703125 498.041992188 433.325195312 498.041992188 c 4,4,5
 472.672851562 498.041992188 472.672851562 498.041992188 499.724609375 525.09375 c 4,6,7
 526.774414062 553.374023438 526.774414062 553.374023438 526.774414062 591.4921875 c 4,8,9
 526.774414062 630.83984375 526.774414062 630.83984375 499.724609375 656.661132812 c 4,10,11
 471.443359375 684.94140625 471.443359375 684.94140625 433.325195312 684.94140625 c 4,12,13
 393.978515625 684.94140625 393.978515625 684.94140625 368.157226562 656.661132812 c 4,14,0
 339.875976562 629.609375 339.875976562 629.609375 339.875976562 591.4921875 c 132,-1,1
130.469726562 593.634765625 m 0,15,16
 130.469726562 655.634765625 130.469726562 655.634765625 152.944335938 710.075195312 c 128,-1,17
 175.418945312 764.516601562 175.418945312 764.516601562 219.172851562 808.526367188 c 0,18,19
 307.9296875 897.801757812 307.9296875 897.801757812 433.010742188 897.801757812 c 128,-1,20
 558.09765625 897.801757812 558.09765625 897.801757812 646.850585938 808.525390625 c 128,-1,21
 735.55078125 719.302734375 735.55078125 719.302734375 735.55078125 593.634765625 c 128,-1,22
 735.55078125 467.958984375 735.55078125 467.958984375 646.84765625 378.745117188 c 128,-1,23
 558.0859375 289.471679688 558.0859375 289.471679688 433.010742188 289.471679688 c 0,24,25
 391.920898438 289.471679688 391.920898438 289.471679688 353.990234375 299.564453125 c 128,-1,26
 316.060546875 309.657226562 316.060546875 309.657226562 282.17578125 329.557617188 c 128,-1,27
 248.291015625 349.458984375 248.291015625 349.458984375 219.173828125 378.74609375 c 0,28,29
 130.469726562 467.963867188 130.469726562 467.963867188 130.469726562 593.634765625 c 0,15,16
EndSplineSet
EndChar

StartChar: afii57393
Encoding: 1633 1633 60
Width: 746
VWidth: 2351
GlyphClass: 2
Flags: W
LayerCount: 2
Fore
SplineSet
550.645507812 49.068359375 m 2,0,-1
 550.704101562 9.009765625 l 1,1,-1
 308.310546875 9.009765625 l 1,2,-1
 308.244140625 52.1416015625 l 2,3,4
 307.000252126 807.84682499 307.000252126 807.84682499 78.455078125 1301.75 c 6,5,-1
 61.9521484375 1337.4140625 l 5,6,-1
 289.489257812 1447.63574219 l 5,7,-1
 306 1409.15234375 l 6,8,9
 423 1137 423 1137 486.354492188 836.198242188 c 4,10,11
 550 535 550 535 550.645507812 49.068359375 c 2,0,-1
EndSplineSet
EndChar

StartChar: afii57394
Encoding: 1634 1634 61
Width: 1106
VWidth: 2210
GlyphClass: 2
Flags: W
LayerCount: 2
Fore
SplineSet
291.822265625 1448.765625 m 5,0,-1
 404.623046875 1135.27832031 l 6,1,2
 438 1043 438 1043 598.432617188 1042.80761719 c 4,3,4
 710 1043 710 1043 768.075195312 1176.54589844 c 4,5,6
 795.181278754 1238.41375687 795.181278754 1238.41375687 816.721679688 1397.61425781 c 6,7,-1
 822.869140625 1443.04882812 l 5,8,-1
 1041.45117188 1382.42871094 l 5,9,-1
 1039.00097656 1349.67773438 l 6,10,11
 1011 975 1011 975 816.748046875 843.8671875 c 4,12,13
 683 754 683 754 491.1171875 792.983398438 c 5,14,15
 550.157073963 427.026381617 550.157073963 427.026381617 550.645507812 49.0615234375 c 2,16,-1
 550.697265625 9.009765625 l 1,17,-1
 308.310546875 9.009765625 l 1,18,-1
 308.244140625 52.1416015625 l 2,19,20
 307.000252126 807.84682499 307.000252126 807.84682499 78.455078125 1301.75 c 6,21,-1
 61.9521484375 1337.4140625 l 5,22,-1
 291.822265625 1448.765625 l 5,0,-1
EndSplineSet
EndChar

StartChar: afii57395
Encoding: 1635 1635 62
Width: 1305
VWidth: 2210
GlyphClass: 2
Flags: W
LayerCount: 2
Fore
SplineSet
747.474609375 865.663085938 m 5,0,1
 651 762 651 762 491.7890625 791.756835938 c 5,2,3
 549.449497724 427.157730998 549.449497724 427.157730998 550.645507812 49.1357421875 c 2,4,-1
 550.772460938 9.009765625 l 1,5,-1
 308.310546875 9.009765625 l 1,6,-1
 308.244140625 52.1416015625 l 2,7,8
 307.000252126 807.84682499 307.000252126 807.84682499 78.455078125 1301.75 c 6,9,-1
 61.9521484375 1337.4140625 l 5,10,-1
 291.852539062 1448.78125 l 5,11,-1
 406.823242188 1128.49023438 l 6,12,13
 439 1038 439 1038 538.908203125 1037.85253906 c 4,14,15
 575 1038 575 1038 589.291015625 1053.0625 c 4,16,17
 635.53515625 1100.52293017 635.53515625 1100.52293017 635.53515625 1341.0546875 c 6,18,-1
 635.53515625 1384.55957031 l 5,19,-1
 842.811523438 1383.00585938 l 5,20,-1
 844.864257812 1345.47265625 l 6,21,22
 855 1168 855 1168 860.379882812 1115.54492188 c 4,23,24
 869 1040 869 1040 938.049804688 1039.18457031 c 4,25,26
 1004.08145399 1037.9802763 1004.08145399 1037.9802763 1017.85351562 1156.37207031 c 4,27,28
 1027 1235 1027 1235 1016.16992188 1380.95410156 c 5,29,-1
 1012.87890625 1424.61035156 l 5,30,-1
 1235.63183594 1421.28320312 l 5,31,-1
 1238.12890625 1384.55078125 l 6,32,33
 1260 1060 1260 1060 1168.35742188 907.325195312 c 4,34,35
 1096 787 1096 787 960.68359375 788.583007812 c 4,36,37
 825 790 825 790 747.474609375 865.663085938 c 5,0,1
EndSplineSet
EndChar

StartChar: afii57396
Encoding: 1636 1636 63
Width: 990
VWidth: 2482
GlyphClass: 2
Flags: W
LayerCount: 2
Fore
SplineSet
345.309570312 767.68359375 m 1,0,1
 134 852 134 852 134.232421875 1081.04589844 c 0,2,3
 133.999828389 1423.25248556 133.999828389 1423.25248556 687.604492188 1462.8046875 c 2,4,-1
 730.456054688 1465.86621094 l 1,5,-1
 730.456054688 1196.2578125 l 1,6,-1
 692.676757812 1194.15722656 l 1,7,8
 404 1177 404 1177 404.826171875 1071.52148438 c 0,9,10
 405 1031 405 1031 438.095703125 1008.77441406 c 0,11,12
 498 970 498 970 570.657226562 959.59375 c 0,13,14
 644.288399329 948.556372216 644.288399329 948.556372216 724.83984375 946.694335938 c 2,15,-1
 763.368164062 945.803710938 l 1,16,-1
 766.493164062 724.359375 l 1,17,-1
 742.328125 713.65234375 l 1,18,19
 547 614 547 614 417.795898438 521.616210938 c 0,20,21
 314 448 314 448 314 380 c 4,22,23
 314 260.361033831 314 260.361033831 577.552734375 261.259765625 c 2,24,-1
 930.94140625 262.46484375 l 1,25,-1
 934.103515625 -0.046875 l 1,26,-1
 537.575195312 0.3857421875 l 2,27,28
 307 1 307 1 181.697265625 92.408203125 c 0,29,30
 57 184 57 184 56.4599609375 344.287109375 c 0,31,32
 56 549 56 549 345.309570312 767.68359375 c 1,0,1
EndSplineSet
EndChar

StartChar: afii57397
Encoding: 1637 1637 64
Width: 1234
VWidth: 2351
GlyphClass: 2
Flags: W
LayerCount: 2
Fore
SplineSet
634.984375 273.802734375 m 0,0,1
 785 274 785 274 852.325195312 337.194335938 c 0,2,3
 919 401 919 401 917.338867188 507.470703125 c 0,4,5
 914 725 914 725 601.102539062 1027.05273438 c 5,6,7
 319 722 319 722 319.563476562 526.60546875 c 0,8,9
 321 274 321 274 634.984375 273.802734375 c 0,0,1
362.310546875 1265.66015625 m 5,10,-1
 488.266601562 1429.74316406 l 5,11,-1
 512.59375 1461.43457031 l 5,12,-1
 544.314453125 1437.14550781 l 6,13,14
 1180 950 1180 950 1181.5 504.421875 c 0,15,16
 1182 365 1182 365 1118.95410156 248.663085938 c 0,17,18
 1056 132 1056 132 934.001953125 73.3896484375 c 0,19,20
 812 14 812 14 634.086914062 14.126953125 c 0,21,22
 357 14 357 14 209.5 130.5 c 128,-1,23
 62 247 62 247 56.6279296875 501.08984375 c 0,24,25
 50 810 50 810 399.993164062 1181.12402344 c 5,26,-1
 366.791015625 1212.02148438 l 5,27,-1
 340.159179688 1236.80371094 l 5,28,-1
 362.310546875 1265.66015625 l 5,10,-1
EndSplineSet
EndChar

StartChar: afii57398
Encoding: 1638 1638 65
Width: 1205
VWidth: 2351
GlyphClass: 2
Flags: W
LayerCount: 2
Fore
SplineSet
105.529296875 1425.453125 m 2,0,1
 482.633958168 1326.19767519 482.633958168 1326.19767519 917.73046875 1426.42285156 c 2,2,-1
 966.475585938 1437.65136719 l 1,3,-1
 966.728515625 1383.62792969 l 2,4,5
 968 1059 968 1059 1002.23632812 735.133789062 c 0,6,7
 1021.90745296 545.890336584 1021.90745296 545.890336584 1146.81152344 58.9482421875 c 2,8,-1
 1159.62109375 9.009765625 l 1,9,-1
 887.578125 9.009765625 l 1,10,-1
 879.833007812 39.009765625 l 2,11,12
 738.159866474 589.636422591 738.159866474 589.636422591 717.614257812 1135.73046875 c 5,13,14
 601 1110 601 1110 437.376953125 1109.9921875 c 0,15,16
 273.383929993 1109.99998175 273.383929993 1109.99998175 84.3359375 1164.13378906 c 2,17,-1
 55.34765625 1172.43457031 l 1,18,-1
 55.34765625 1438.66113281 l 1,19,-1
 105.529296875 1425.453125 l 2,0,1
EndSplineSet
EndChar

StartChar: afii57399
Encoding: 1639 1639 66
Width: 1220
VWidth: 2351
GlyphClass: 2
Flags: W
LayerCount: 2
Fore
SplineSet
486.03125 44.146484375 m 2,0,1
 420.142051374 582.084620652 420.142051374 582.084620652 69.615234375 1288.27636719 c 6,2,-1
 52.4267578125 1322.90527344 l 5,3,-1
 283.868164062 1447.79003906 l 5,4,-1
 302.124023438 1410.29296875 l 6,5,6
 507 989 507 989 615.760742188 512.973632812 c 5,7,8
 723.916661361 982.638103968 723.916661361 982.638103968 917.47265625 1409.30859375 c 6,9,-1
 935.185546875 1448.35449219 l 5,10,-1
 1166.58203125 1323.36816406 l 5,11,-1
 1150.75976562 1289.23242188 l 6,12,13
 815.967346876 566.929552033 815.967346876 566.929552033 734.561523438 42.8701171875 c 2,14,-1
 729.301757812 9.009765625 l 1,15,-1
 490.334960938 9.009765625 l 1,16,-1
 486.03125 44.146484375 l 2,0,1
EndSplineSet
EndChar

StartChar: afii57400
Encoding: 1640 1640 67
Width: 1220
VWidth: 2351
GlyphClass: 2
Flags: W
LayerCount: 2
Fore
SplineSet
490.3359375 1432.78417969 m 5,0,-1
 729.3515625 1432.78417969 l 5,1,-1
 734.5703125 1398.86621094 l 6,2,3
 814.802629853 875.287993578 814.802629853 875.287993578 1150.74121094 152.600585938 c 2,4,-1
 1166.61816406 118.4453125 l 1,5,-1
 935.1796875 -6.5634765625 l 1,6,-1
 917.469726562 32.490234375 l 2,7,8
 724 459 724 459 615.760742188 928.876953125 c 1,9,10
 506.774654073 452.014010653 506.774654073 452.014010653 302.126953125 31.5068359375 c 2,11,-1
 283.874023438 -5.9990234375 l 1,12,-1
 52.4306640625 118.88671875 l 1,13,-1
 69.61328125 153.513671875 l 2,14,15
 420.213502771 860.430486605 420.213502771 860.430486605 486.03125 1397.6484375 c 6,16,-1
 490.3359375 1432.78417969 l 5,0,-1
EndSplineSet
EndChar

StartChar: afii57401
Encoding: 1641 1641 68
Width: 1209
VWidth: 2351
GlyphClass: 2
Flags: W
LayerCount: 2
Fore
SplineSet
841.994140625 27.5263671875 m 2,0,1
 771.125177793 243.443733844 771.125177793 243.443733844 741.979492188 605.795898438 c 1,2,3
 592 598 592 598 472.985351562 616.654296875 c 0,4,5
 354 635 354 635 265.556640625 681.721679688 c 0,6,7
 166 733 166 733 115.184570312 819.416992188 c 0,8,9
 64 905 64 905 63.8798828125 1019.77246094 c 0,10,11
 63.9985775513 1200.8301875 63.9985775513 1200.8301875 191.493164062 1329.24121094 c 0,12,13
 317 1456 317 1456 498.014648438 1456.48046875 c 0,14,15
 640 1457 640 1457 740.51953125 1403.61425781 c 0,16,17
 841 1350 841 1350 896.451171875 1245.0234375 c 128,-1,18
 952 1140 952 1140 960.951171875 987.923828125 c 0,19,20
 985.361803434 648.860912568 985.361803434 648.860912568 993.774414062 521.782226562 c 0,21,22
 1007 322 1007 322 1084.671875 62.3212890625 c 5,23,-1
 1048.11425781 50.845703125 l 1,24,-1
 891.979492188 1.8359375 l 1,25,-1
 854.307617188 -9.9892578125 l 1,26,-1
 841.994140625 27.5263671875 l 2,0,1
718.603515625 857.859375 m 1,27,-1
 715.33984375 919.471679688 l 2,28,29
 711 995 711 995 696.16015625 1048.89550781 c 0,30,31
 681 1103 681 1103 654.668945312 1135.58789062 c 0,32,33
 628 1169 628 1169 592.482421875 1183.49707031 c 128,-1,34
 557 1198 557 1198 508.90234375 1198.07714844 c 0,35,36
 430 1197 430 1197 376.735351562 1155.00097656 c 0,37,38
 322 1112 322 1112 322.095703125 1026.44921875 c 0,39,40
 322 977 322 977 344.798828125 942.672851562 c 0,41,42
 368 909 368 909 418.1640625 884.533203125 c 0,43,44
 510 841 510 841 718.603515625 857.859375 c 1,27,-1
EndSplineSet
EndChar

StartChar: afii57381
Encoding: 1642 1642 69
Width: 1253
VWidth: 2357
GlyphClass: 2
Flags: W
LayerCount: 2
Fore
SplineSet
229.572265625 1337.6875 m 0,0,1
 229.572265625 1369.85644531 229.572265625 1369.85644531 241.791015625 1398.87890625 c 128,-1,2
 254.009765625 1427.90039062 254.009765625 1427.90039062 277.073242188 1450.96386719 c 0,3,4
 292.2890625 1466.1796875 292.2890625 1466.1796875 310.541992188 1476.70996094 c 128,-1,5
 328.794921875 1487.23925781 328.794921875 1487.23925781 348.732421875 1492.45605469 c 128,-1,6
 368.669921875 1497.671875 368.669921875 1497.671875 389.229492188 1497.35546875 c 0,7,8
 453.999023438 1498.3515625 453.999023438 1498.3515625 501.38671875 1450.96386719 c 128,-1,9
 548.887695312 1403.46191406 548.887695312 1403.46191406 548.887695312 1337.6875 c 0,10,11
 548.887695312 1324.83007812 548.887695312 1324.83007812 546.892578125 1312.33105469 c 128,-1,12
 544.897460938 1299.83300781 544.897460938 1299.83300781 540.98828125 1288.03320312 c 128,-1,13
 537.079101562 1276.23339844 537.079101562 1276.23339844 531.346679688 1265.13671875 c 128,-1,14
 525.614257812 1254.04101562 525.614257812 1254.04101562 518.088867188 1243.81542969 c 128,-1,15
 510.564453125 1233.59082031 510.564453125 1233.59082031 501.38671875 1224.41308594 c 0,16,17
 453.999023438 1177.02539062 453.999023438 1177.02539062 389.229492188 1178.02148438 c 0,18,19
 324.4609375 1177.02539062 324.4609375 1177.02539062 277.073242188 1224.41308594 c 128,-1,20
 229.572265625 1271.9140625 229.572265625 1271.9140625 229.572265625 1337.6875 c 0,0,1
709.572265625 220.6875 m 128,-1,22
 709.572265625 286.461914062 709.572265625 286.461914062 757.073242188 333.963867188 c 128,-1,23
 804.4609375 381.3515625 804.4609375 381.3515625 869.229492188 380.35546875 c 0,24,25
 933.999023438 381.3515625 933.999023438 381.3515625 981.38671875 333.963867188 c 0,26,27
 1004.44921875 310.900390625 1004.44921875 310.900390625 1016.66894531 281.87890625 c 128,-1,28
 1028.88769531 252.857421875 1028.88769531 252.857421875 1028.88769531 220.6875 c 0,29,30
 1028.88769531 154.9140625 1028.88769531 154.9140625 981.38671875 107.413085938 c 128,-1,31
 933.999023438 60.025390625 933.999023438 60.025390625 869.229492188 61.021484375 c 0,32,33
 837.18359375 60.5283203125 837.18359375 60.5283203125 808.629882812 72.46875 c 128,-1,34
 780.077148438 84.408203125 780.077148438 84.408203125 757.073242188 107.413085938 c 0,35,21
 709.572265625 154.9140625 709.572265625 154.9140625 709.572265625 220.6875 c 128,-1,22
943.815429688 1538.92675781 m 1,36,-1
 1067.77050781 1475.06640625 l 1,37,-1
 1103.41503906 1456.703125 l 1,38,-1
 1084.96582031 1421.10253906 l 1,39,-1
 359.079101562 20.4189453125 l 1,40,-1
 340.219726562 -15.970703125 l 1,41,-1
 304.299804688 3.7685546875 l 1,42,-1
 181.061523438 71.4931640625 l 1,43,-1
 146.825195312 90.3076171875 l 1,44,-1
 164.825195312 124.979492188 l 1,45,-1
 889.995117188 1521.79882812 l 1,46,-1
 908.368164062 1557.18847656 l 1,47,-1
 943.815429688 1538.92675781 l 1,36,-1
EndSplineSet
EndChar

StartChar: uni066B
Encoding: 1643 1643 70
Width: 760
VWidth: 2357
GlyphClass: 2
Flags: W
LayerCount: 2
Fore
SplineSet
449.209960938 599.747070312 m 1,0,-1
 582.186523438 537.247070312 l 1,1,-1
 620.919921875 519.041992188 l 1,2,-1
 600.141601562 481.625976562 l 1,3,-1
 207.978515625 -224.549804688 l 1,4,-1
 189.21875 -258.330078125 l 1,5,-1
 154.810546875 -240.75 l 1,6,-1
 26.19140625 -175.038085938 l 1,7,-1
 -10.580078125 -156.251953125 l 1,8,-1
 9.3662109375 -120.096679688 l 1,9,-1
 397.171875 582.8671875 l 1,10,-1
 415.280273438 615.693359375 l 1,11,-1
 449.209960938 599.747070312 l 1,0,-1
EndSplineSet
EndChar

StartChar: uni066C
Encoding: 1644 1644 71
Width: 627
VWidth: 2482
GlyphClass: 2
Flags: W
LayerCount: 2
Fore
SplineSet
317.873046875 337.708984375 m 0,0,1
 358.110351562 336.93359375 358.110351562 336.93359375 391.5 326.24609375 c 128,-1,2
 424.889648438 315.559570312 424.889648438 315.559570312 449.6875 295.793945312 c 128,-1,3
 474.486328125 276.029296875 474.486328125 276.029296875 489.478515625 246.234375 c 128,-1,4
 504.470703125 216.439453125 504.470703125 216.439453125 507.508789062 178.784179688 c 0,5,6
 512.15234375 117.936523438 512.15234375 117.936523438 498.212890625 56.9091796875 c 128,-1,7
 484.2734375 -4.1181640625 484.2734375 -4.1181640625 452.365234375 -64.6904296875 c 0,8,9
 410.583984375 -143.4921875 410.583984375 -143.4921875 348.341796875 -213.111328125 c 128,-1,10
 286.099609375 -282.73046875 286.099609375 -282.73046875 203.873046875 -343.102539062 c 2,11,-1
 177.340820312 -362.583007812 l 1,12,-1
 153.118164062 -340.297851562 l 1,13,-1
 119.256835938 -309.14453125 l 1,14,-1
 100.118164062 -291.537109375 l 1,15,-1
 67.8828125 -261.879882812 l 1,16,-1
 100.3359375 -232.462890625 l 2,17,18
 230.6171875 -114.372070312 230.6171875 -114.372070312 288.5703125 1.1220703125 c 1,19,20
 280.368164062 1.951171875 280.368164062 1.951171875 273.240234375 3.0458984375 c 0,21,22
 198.231445312 14.5634765625 198.231445312 14.5634765625 162.891601562 66.4619140625 c 128,-1,23
 127.551757812 118.360351562 127.551757812 118.360351562 139.701171875 195.788085938 c 0,24,25
 150.776367188 265.180664062 150.776367188 265.180664062 198.146484375 302.434570312 c 128,-1,26
 245.516601562 339.688476562 245.516601562 339.688476562 317.873046875 337.708984375 c 0,0,1
EndSplineSet
EndChar

StartChar: uni066E
Encoding: 1646 1646 72
Width: 1832
VWidth: 2351
GlyphClass: 2
Flags: W
AnchorPoint: "Anchor-10" 806.894 1157.77 basechar 0
AnchorPoint: "Anchor-7" 563.093 -178.36 basechar 0
LayerCount: 2
Fore
SplineSet
920.884765625 265.604492188 m 0,0,1
 965.895507812 265.734375 965.895507812 265.734375 1004.0390625 266.478515625 c 128,-1,2
 1042.18164062 267.22265625 1042.18164062 267.22265625 1072.20117188 268.529296875 c 128,-1,3
 1102.22167969 269.836914062 1102.22167969 269.836914062 1124.38378906 271.689453125 c 0,4,5
 1185.96679688 277.465820312 1185.96679688 277.465820312 1240.45605469 285.348632812 c 128,-1,6
 1294.94628906 293.231445312 1294.94628906 293.231445312 1335.13183594 301.6171875 c 128,-1,7
 1375.31835938 310.00390625 1375.31835938 310.00390625 1408.72460938 319.30078125 c 128,-1,8
 1442.13085938 328.59765625 1442.13085938 328.59765625 1464.1953125 337.28125 c 128,-1,9
 1486.25878906 345.965820312 1486.25878906 345.965820312 1501.6796875 354.359375 c 128,-1,10
 1517.10058594 362.752929688 1517.10058594 362.752929688 1524.140625 369.41796875 c 128,-1,11
 1531.18066406 376.083007812 1531.18066406 376.083007812 1531.88964844 381.26171875 c 0,12,13
 1540.71679688 445.661132812 1540.71679688 445.661132812 1527.41601562 573.848632812 c 0,14,15
 1520.99316406 638.077148438 1520.99316406 638.077148438 1511.515625 689.685546875 c 128,-1,16
 1502.03808594 741.294921875 1502.03808594 741.294921875 1489.84960938 779.521484375 c 2,17,-1
 1476.86230469 820.25390625 l 1,18,-1
 1518.3671875 830.505859375 l 1,19,-1
 1675.89355469 869.416015625 l 1,20,-1
 1714.82128906 879.03125 l 1,21,-1
 1724.34179688 840.080078125 l 2,22,23
 1749.62890625 736.620117188 1749.62890625 736.620117188 1762.20507812 647.270507812 c 128,-1,24
 1774.78125 557.920898438 1774.78125 557.920898438 1774.54296875 481.849609375 c 0,25,26
 1773.96679688 329.120117188 1773.96679688 329.120117188 1735.13769531 245.223632812 c 0,27,28
 1647.52734375 56.7978515625 1647.52734375 56.7978515625 1224.0078125 13.9365234375 c 0,29,30
 1085.6171875 0.0419921875 1085.6171875 0.0419921875 907.125976562 -0 c 0,31,32
 558.962890625 0 558.962890625 0 383.009765625 73.6826171875 c 0,33,34
 237.314453125 134.111328125 237.314453125 134.111328125 155.362304688 242.90625 c 128,-1,35
 73.4091796875 351.700195312 73.4091796875 351.700195312 59.80859375 503.650390625 c 0,36,37
 53.6318359375 574.05078125 53.6318359375 574.05078125 61.8935546875 648.865234375 c 128,-1,38
 70.154296875 723.680664062 70.154296875 723.680664062 92.6181640625 802.887695312 c 2,39,-1
 103.333007812 840.668945312 l 1,40,-1
 141.305664062 830.650390625 l 1,41,-1
 283.513671875 793.12890625 l 1,42,-1
 318.20703125 783.974609375 l 1,43,-1
 312.862304688 748.494140625 l 2,44,45
 305.961914062 702.684570312 305.961914062 702.684570312 301.623046875 664.145507812 c 128,-1,46
 297.28515625 625.60546875 297.28515625 625.60546875 295.666015625 597.01953125 c 128,-1,47
 294.046875 568.43359375 294.046875 568.43359375 294.926757812 548.881835938 c 0,48,49
 300.231445312 434.670898438 300.231445312 434.670898438 373.33203125 368.561523438 c 128,-1,50
 446.43359375 302.452148438 446.43359375 302.452148438 599.522460938 280.298828125 c 0,51,52
 706.9453125 264.986328125 706.9453125 264.986328125 920.884765625 265.604492188 c 0,0,1
EndSplineSet
Substitution2: "'init' Initial Forms in Arabic lookup 13 subtable" uni066E.init
Substitution2: "'medi' Medial Forms in Arabic lookup 11 subtable" uni066E.medi
Substitution2: "'fina' Terminal Forms in Arabic lookup 9 subtable" uni066E.fina
EndChar

StartChar: uni066F
Encoding: 1647 1647 73
Width: 1427
VWidth: 2351
GlyphClass: 2
Flags: W
AnchorPoint: "Anchor-10" 152.36 1121.41 basechar 0
AnchorPoint: "Anchor-7" 283.8 -626 basechar 0
LayerCount: 2
Fore
SplineSet
690.546875 -463.552734375 m 0,0,1
 417.506835938 -464.0234375 417.506835938 -464.0234375 252.828125 -338.297851562 c 0,2,3
 58.9521484375 -189.703125 58.9521484375 -189.703125 59.689453125 112.426757812 c 0,4,5
 60.0126953125 327.497070312 60.0126953125 327.497070312 155.967773438 543.961914062 c 2,6,-1
 171.140625 578.190429688 l 1,7,-1
 206.296875 565.310546875 l 1,8,-1
 355.03125 510.818359375 l 1,9,-1
 394.078125 496.512695312 l 1,10,-1
 378.266601562 458.05078125 l 2,11,12
 301.000976562 270.1015625 301.000976562 270.1015625 301.024414062 129.260742188 c 0,13,14
 301.013671875 -44.9921875 301.013671875 -44.9921875 395.2890625 -127.866210938 c 128,-1,15
 489.564453125 -210.740234375 489.564453125 -210.740234375 693.110351562 -210.509765625 c 0,16,17
 887.734375 -210.291992188 887.734375 -210.291992188 992.203125 -141.643554688 c 128,-1,18
 1096.67089844 -72.994140625 1096.67089844 -72.994140625 1124.04199219 65.2958984375 c 1,19,20
 1084.61816406 51.650390625 1084.61816406 51.650390625 1043.56542969 44.8994140625 c 128,-1,21
 1002.51367188 38.1484375 1002.51367188 38.1484375 959.883789062 38.23828125 c 0,22,23
 781.66796875 37.9697265625 781.66796875 37.9697265625 687.981445312 166.629882812 c 0,24,25
 626.920898438 251.17578125 626.920898438 251.17578125 627.6484375 370.250976562 c 0,26,27
 629.09765625 511.715820312 629.09765625 511.715820312 686.256835938 624.95703125 c 0,28,29
 736.891601562 726.224609375 736.891601562 726.224609375 815.463867188 779.499023438 c 128,-1,30
 894.037109375 832.772460938 894.037109375 832.772460938 995.674804688 832.48046875 c 0,31,32
 1088.58203125 832.211914062 1088.58203125 832.211914062 1161.69335938 790.104492188 c 128,-1,33
 1234.80566406 747.99609375 1234.80566406 747.99609375 1282.95703125 667.235351562 c 0,34,35
 1368.98925781 523.043945312 1368.98925781 523.043945312 1369.2421875 253.056640625 c 0,36,37
 1369.11621094 -98.37109375 1369.11621094 -98.37109375 1196.89453125 -280.817382812 c 128,-1,38
 1024.67285156 -463.263671875 1024.67285156 -463.263671875 690.546875 -463.552734375 c 0,0,1
866.52734375 439.022460938 m 0,39,40
 864.78125 431.88671875 864.78125 431.88671875 863.377929688 425.018554688 c 128,-1,41
 861.975585938 418.149414062 861.975585938 418.149414062 860.958984375 411.8359375 c 128,-1,42
 859.94140625 405.522460938 859.94140625 405.522460938 859.255859375 399.548828125 c 128,-1,43
 858.5703125 393.575195312 858.5703125 393.575195312 858.23046875 388.165039062 c 128,-1,44
 857.890625 382.754882812 857.890625 382.754882812 857.870117188 377.756835938 c 0,45,46
 857.916992188 331.297851562 857.916992188 331.297851562 883.809570312 310.751953125 c 128,-1,47
 909.701171875 290.206054688 909.701171875 290.206054688 978.7109375 290.361328125 c 0,48,49
 1068.27246094 290.078125 1068.27246094 290.078125 1132.40429688 328.958007812 c 1,50,51
 1131.2890625 377.009765625 1131.2890625 377.009765625 1123.890625 424.912109375 c 0,52,53
 1111.97460938 510.578125 1111.97460938 510.578125 1081.70703125 545.670898438 c 128,-1,54
 1051.43945312 580.764648438 1051.43945312 580.764648438 999.91796875 580.623046875 c 0,55,56
 950.383789062 580.766601562 950.383789062 580.766601562 917.890625 548.338867188 c 128,-1,57
 885.396484375 515.911132812 885.396484375 515.911132812 866.52734375 439.022460938 c 0,39,40
EndSplineSet
Substitution2: "'init' Initial Forms in Arabic lookup 13 subtable" uni066F.init
Substitution2: "'medi' Medial Forms in Arabic lookup 11 subtable" uni066F.medi
Substitution2: "'fina' Terminal Forms in Arabic lookup 9 subtable" uni066F.fina
EndChar

StartChar: uni0670
Encoding: 1648 1648 74
Width: 6
VWidth: 2317
GlyphClass: 4
Flags: W
AnchorPoint: "Anchor-10" 583.891 1359.45 mark 0
AnchorPoint: "Anchor-9" 583.891 1359.45 mark 0
AnchorPoint: "Anchor-1" 583.891 1936.62 basemark 0
AnchorPoint: "Anchor-1" 583.891 1359.45 mark 0
LayerCount: 2
Fore
SplineSet
547.731344278 1406.87128212 m 1,0,-1
 522.031148965 1829.32440712 l 1,1,-1
 521.659121137 1835.43970377 l 1,2,-1
 526.938358048 1838.5485485 l 1,3,-1
 630.597537736 1899.59151726 l 1,4,-1
 645.671875 1908.46851495 l 1,5,-1
 645.671875 1890.97460938 l 1,6,-1
 645.671875 1407.47851562 l 1,7,-1
 645.671875 1397.47851562 l 1,8,-1
 635.671875 1397.47851562 l 1,9,-1
 557.712890625 1397.47851562 l 1,10,-1
 548.302758997 1397.47851562 l 1,11,-1
 547.731344278 1406.87128212 l 1,0,-1
EndSplineSet
EndChar

StartChar: uni0674
Encoding: 1652 1652 75
Width: 683
VWidth: 2317
GlyphClass: 2
Flags: W
LayerCount: 2
Fore
SplineSet
303.34167685 2020.35079579 m 0,0,1
 418.565150457 2043.84350808 418.565150457 2043.84350808 516.915856227 1985.9071284 c 2,2,-1
 521.840252337 1983.00626784 l 1,3,-1
 526.764648438 1980.10540729 l 1,4,-1
 526.764648438 1974.39010599 l 1,5,-1
 526.764648438 1968.67480469 l 1,6,-1
 526.764648438 1856.87304688 l 1,7,-1
 526.764648438 1840.69447866 l 1,8,-1
 526.764648438 1824.51591044 l 1,9,-1
 512.293388533 1831.74976878 l 1,10,-1
 497.822128623 1838.98362712 l 1,11,-1
 477.878424397 1848.95303772 l 2,12,13
 418.238533442 1878.77118838 418.238533442 1878.77118838 358.723724952 1872.29511054 c 0,14,15
 349.58633543 1871.30916135 349.58633543 1871.30916135 341.447320642 1869.77760978 c 128,-1,16
 333.308305853 1868.2460582 333.308305853 1868.2460582 326.199580343 1866.19010432 c 0,17,18
 312.24519085 1862.15427803 312.24519085 1862.15427803 302.041830127 1856.17740369 c 0,19,20
 292.199793601 1850.41218405 292.199793601 1850.41218405 285.5260892 1842.65634836 c 0,21,22
 283.858566409 1840.71843922 283.858566409 1840.71843922 282.384452162 1838.68092524 c 128,-1,23
 280.910337916 1836.64341126 280.910337916 1836.64341126 279.6202807 1834.49177605 c 128,-1,24
 278.330223484 1832.34014084 278.330223484 1832.34014084 277.224539042 1830.07425452 c 128,-1,25
 276.1188546 1827.8083682 276.1188546 1827.8083682 275.189924946 1825.41444731 c 0,26,27
 273.307851721 1820.56420444 273.307851721 1820.56420444 272.079564985 1815.05653213 c 128,-1,28
 270.851278249 1809.54885982 270.851278249 1809.54885982 270.310589733 1803.4177612 c 0,29,30
 264.597817648 1737.27156745 264.597817648 1737.27156745 362.945709647 1707.47865827 c 0,31,32
 392.701338863 1698.46336693 392.701338863 1698.46336693 526.076842197 1729.30703954 c 2,33,-1
 538.329925008 1732.1406189 l 1,34,-1
 550.583007812 1734.97419826 l 1,35,-1
 550.583007812 1722.39774366 l 1,36,-1
 550.583007812 1709.82128906 l 1,37,-1
 550.583007812 1594.234375 l 1,38,-1
 550.583007812 1586.23054214 l 1,39,-1
 550.583007812 1578.22670928 l 1,40,-1
 542.77357016 1576.47341979 l 1,41,-1
 534.964132512 1574.7201303 l 1,42,-1
 145.933859073 1487.37930999 l 1,43,-1
 133.743296723 1484.64241832 l 1,44,-1
 121.552734375 1481.90552665 l 1,45,-1
 121.552734375 1494.39954067 l 1,46,-1
 121.552734375 1506.89355469 l 1,47,-1
 121.552734375 1620.31738281 l 1,48,-1
 121.552734375 1628.27264164 l 1,49,-1
 121.552734375 1636.22790047 l 1,50,-1
 129.3042976 1638.01659012 l 1,51,-1
 137.055860815 1639.80527977 l 1,52,-1
 187.44314419 1651.43225229 l 1,53,54
 166.153062879 1670.80471315 166.153062879 1670.80471315 151.998617763 1693.42227599 c 128,-1,55
 137.844172648 1716.03983883 137.844172648 1716.03983883 130.832242574 1741.73405914 c 128,-1,56
 123.8203125 1767.42827946 123.8203125 1767.42827946 123.8203125 1796.35742188 c 0,57,58
 123.8203125 1903.95570326 123.8203125 1903.95570326 199.272207294 1970.50198365 c 0,59,60
 206.467321197 1976.7775057 206.467321197 1976.7775057 214.153444564 1982.32855977 c 128,-1,61
 221.839567932 1987.87961384 221.839567932 1987.87961384 230.078706797 1992.75392956 c 0,62,63
 246.498610513 2002.46802665 246.498610513 2002.46802665 264.845578276 2009.36232796 c 128,-1,64
 283.115132722 2016.22753942 283.115132722 2016.22753942 303.34167685 2020.35079579 c 0,0,1
EndSplineSet
EndChar

StartChar: uni06A1
Encoding: 1697 1697 79
Width: 1857
VWidth: 2351
GlyphClass: 2
Flags: W
AnchorPoint: "Anchor-10" 534.823 1341.98 basechar 0
AnchorPoint: "Anchor-7" 648.243 -118.873 basechar 0
LayerCount: 2
Fore
SplineSet
921.012695312 265.604492188 m 0,0,1
 1268 266 1268 266 1393.15722656 304.098632812 c 0,2,3
 1475 329 1475 329 1525.12109375 398.23046875 c 5,4,5
 1463 383 1463 383 1380.05273438 383.475585938 c 4,6,7
 1193 384 1193 384 1108.23925781 501.91015625 c 0,8,9
 1078 544 1078 544 1063.1875 595.038085938 c 0,10,11
 1048 646 1048 646 1048.9375 705.483398438 c 0,12,13
 1050 847 1050 847 1107.55078125 960.204101562 c 0,14,15
 1158 1061 1158 1061 1236.59765625 1114.59179688 c 128,-1,16
 1315 1168 1315 1168 1416.84667969 1167.71777344 c 0,17,18
 1511 1168 1511 1168 1584.3515625 1126.23535156 c 0,19,20
 1658 1085 1658 1085 1704.8515625 1004.23632812 c 0,21,22
 1802 840 1802 840 1800.29394531 593.797851562 c 0,23,24
 1799 454 1799 454 1771.89160156 363.45703125 c 0,25,26
 1737 248 1737 248 1658.45703125 170.26953125 c 0,27,28
 1580 92 1580 92 1460.19824219 53.8583984375 c 0,29,30
 1403 35 1403 35 1322.015625 23.369140625 c 0,31,32
 1241 11 1241 11 1138.50976562 5.6865234375 c 0,33,34
 1036 0 1036 0 907.125976562 0 c 0,35,36
 559 0 559 0 383.009765625 73.6826171875 c 0,37,38
 237 134 237 134 155.362304688 242.90625 c 0,39,40
 73 352 73 352 59.80859375 503.650390625 c 0,41,42
 54 574 54 574 61.8935546875 648.865234375 c 0,43,44
 69.8492888798 722.603130687 69.8492888798 722.603130687 92.6181640625 802.887695312 c 2,45,-1
 103.333007812 840.668945312 l 1,46,-1
 141.305664062 830.650390625 l 1,47,-1
 283.513671875 793.12890625 l 1,48,-1
 318.20703125 783.974609375 l 1,49,-1
 312.862304688 748.494140625 l 2,50,51
 306 703 306 703 301.623046875 664.145507812 c 0,52,53
 297 626 297 626 295.666015625 597.01953125 c 0,54,55
 294 568 294 568 294.926757812 548.881835938 c 0,56,57
 300 435 300 435 373.33203125 368.561523438 c 0,58,59
 446 302 446 302 599.522460938 280.298828125 c 0,60,61
 700 266 700 266 921.012695312 265.604492188 c 0,0,1
1399.25390625 625.59765625 m 0,62,63
 1424.43261719 625.475585938 1424.43261719 625.475585938 1447.34765625 628.009765625 c 128,-1,64
 1470.26367188 630.543945312 1470.26367188 630.543945312 1490.51757812 635.634765625 c 128,-1,65
 1510.77246094 640.724609375 1510.77246094 640.724609375 1528.57128906 648.086914062 c 128,-1,66
 1546.37011719 655.450195312 1546.37011719 655.450195312 1562.18164062 665.203125 c 1,67,68
 1561.85839844 679.456054688 1561.85839844 679.456054688 1558.77441406 703.2734375 c 128,-1,69
 1555.69042969 727.090820312 1555.69042969 727.090820312 1549.90722656 758.653320312 c 0,70,71
 1539.03222656 816.888671875 1539.03222656 816.888671875 1520.47460938 852.467773438 c 128,-1,72
 1501.91699219 888.045898438 1501.91699219 888.045898438 1479.17871094 901.970703125 c 128,-1,73
 1456.44140625 915.896484375 1456.44140625 915.896484375 1425.93359375 915.946289062 c 0,74,75
 1372.25976562 916.03515625 1372.25976562 916.03515625 1338.59277344 883.502929688 c 128,-1,76
 1304.92578125 850.969726562 1304.92578125 850.969726562 1286.91699219 774.680664062 c 0,77,78
 1284.27832031 763.266601562 1284.27832031 763.266601562 1282.37304688 751.974609375 c 128,-1,79
 1280.46679688 740.68359375 1280.46679688 740.68359375 1279.44140625 730.912109375 c 128,-1,80
 1278.41601562 721.140625 1278.41601562 721.140625 1278.1640625 712.673828125 c 0,81,82
 1278.67578125 667.284179688 1278.67578125 667.284179688 1304.70898438 646.741210938 c 128,-1,83
 1330.7421875 626.198242188 1330.7421875 626.198242188 1399.25390625 625.59765625 c 0,62,63
EndSplineSet
Substitution2: "'init' Initial Forms in Arabic lookup 13 subtable" uni06A1.init
Substitution2: "'medi' Medial Forms in Arabic lookup 11 subtable" uni06A1.medi
Substitution2: "'fina' Terminal Forms in Arabic lookup 9 subtable" uni06A1.fina
EndChar

StartChar: uni06A9
Encoding: 1705 1705 80
Width: 1987
VWidth: 2351
GlyphClass: 2
Flags: W
AnchorPoint: "Anchor-7" 798.06 -161.16 basechar 0
AnchorPoint: "Anchor-10" 980.9 1389.66 basechar 0
LayerCount: 2
Fore
SplineSet
1955.66308594 1566.91992188 m 1,0,-1
 1952.91308594 1382.33789062 l 1,1,-1
 1952.55566406 1358.33691406 l 1,2,-1
 1931.20898438 1347.36035156 l 1,3,-1
 1320.49023438 1033.33203125 l 1,4,-1
 1633.83984375 686.91796875 l 2,5,6
 1787.84960938 516.100585938 1787.84960938 516.100585938 1737.02929688 306.45703125 c 0,7,8
 1699.53515625 152.424804688 1699.53515625 152.424804688 1564.48535156 76.2119140625 c 128,-1,9
 1429.43652344 0 1429.43652344 0 1209.45996094 0 c 2,10,-1
 907.125976562 0 l 2,11,12
 558.962890625 0 558.962890625 0 383.009765625 73.6826171875 c 0,13,14
 237.314453125 134.111328125 237.314453125 134.111328125 155.362304688 242.90625 c 128,-1,15
 73.4091796875 351.700195312 73.4091796875 351.700195312 59.80859375 503.650390625 c 0,16,17
 53.6318359375 574.05078125 53.6318359375 574.05078125 61.8935546875 648.865234375 c 128,-1,18
 70.154296875 723.680664062 70.154296875 723.680664062 92.6181640625 802.887695312 c 2,19,-1
 103.333007812 840.668945312 l 1,20,-1
 141.305664062 830.650390625 l 1,21,-1
 283.513671875 793.12890625 l 1,22,-1
 318.20703125 783.974609375 l 1,23,-1
 312.862304688 748.494140625 l 2,24,25
 302.552734375 680.052734375 302.552734375 680.052734375 298.073242188 629.27734375 c 128,-1,26
 293.59375 578.501953125 293.59375 578.501953125 294.926757812 548.881835938 c 0,27,28
 298.475585938 472.48046875 298.475585938 472.48046875 330.970703125 418.509765625 c 128,-1,29
 363.465820312 364.538085938 363.465820312 364.538085938 430.038085938 329.682617188 c 128,-1,30
 496.610351562 294.827148438 496.610351562 294.827148438 599.375976562 280.319335938 c 0,31,32
 651.85546875 273.05078125 651.85546875 273.05078125 717.442382812 269.342773438 c 128,-1,33
 783.030273438 265.635742188 783.030273438 265.635742188 861.015625 265.604492188 c 2,34,-1
 1115.90820312 265.50390625 l 1,35,-1
 1294.21386719 265.637695312 l 2,36,37
 1336.46484375 265.706054688 1336.46484375 265.706054688 1370.03613281 270.802734375 c 128,-1,38
 1403.60839844 275.900390625 1403.60839844 275.900390625 1427.65039062 285.198242188 c 128,-1,39
 1451.69140625 294.497070312 1451.69140625 294.497070312 1468.83105469 308.50390625 c 128,-1,40
 1485.97167969 322.509765625 1485.97167969 322.509765625 1495.92285156 339.451171875 c 128,-1,41
 1505.875 356.393554688 1505.875 356.393554688 1510.70117188 377.721679688 c 0,42,43
 1523.296875 438.610351562 1523.296875 438.610351562 1456.0625 513.783203125 c 2,44,-1
 1075.86816406 938.864257812 l 1,45,-1
 1066.54003906 949.29296875 l 1,46,-1
 1065.74707031 963.262695312 l 2,47,48
 1060.73730469 1051.5 1060.73730469 1051.5 1078.54882812 1127.52734375 c 0,49,50
 1083.58691406 1149.68359375 1083.58691406 1149.68359375 1094.80371094 1168.94824219 c 128,-1,51
 1106.01953125 1188.21289062 1106.01953125 1188.21289062 1122.39941406 1203.34082031 c 128,-1,52
 1138.77832031 1218.46777344 1138.77832031 1218.46777344 1159.59375 1229.02246094 c 2,53,-1
 1897.57910156 1603.19238281 l 1,54,-1
 1956.65039062 1633.14160156 l 1,55,-1
 1955.66308594 1566.91992188 l 1,0,-1
EndSplineSet
Substitution2: "'init' Initial Forms in Arabic lookup 13 subtable" uniFB90
Substitution2: "'medi' Medial Forms in Arabic lookup 11 subtable" uniFB91
Substitution2: "'fina' Terminal Forms in Arabic lookup 9 subtable" uniFB8F
EndChar

StartChar: afii57514
Encoding: 1722 1722 82
Width: 1403
VWidth: 2357
GlyphClass: 2
Flags: W
AnchorPoint: "Anchor-10" 632.479 1018.46 basechar 0
AnchorPoint: "Anchor-7" 575.075 -515.182 basechar 0
LayerCount: 2
Fore
SplineSet
1279.53320312 -161.4765625 m 0,0,1
 1130.1171875 -446.48828125 1130.1171875 -446.48828125 690.434570312 -447.545898438 c 0,2,3
 417.515625 -448.0234375 417.515625 -448.0234375 252.698242188 -322.291992188 c 0,4,5
 58.9609375 -173.701171875 58.9609375 -173.701171875 59.55859375 128.439453125 c 0,6,7
 60.017578125 343.498046875 60.017578125 343.498046875 155.828125 559.950195312 c 2,8,-1
 170.991210938 594.205078125 l 1,9,-1
 206.166015625 581.318359375 l 1,10,-1
 354.900390625 526.826171875 l 1,11,-1
 393.923828125 512.529296875 l 1,12,-1
 378.14453125 474.080078125 l 2,13,14
 300.994140625 286.09765625 300.994140625 286.09765625 300.893554688 145.26171875 c 0,15,16
 300.942382812 -28.98046875 300.942382812 -28.98046875 395.223632812 -111.858398438 c 128,-1,17
 489.50390625 -194.736328125 489.50390625 -194.736328125 692.98046875 -194.501953125 c 0,18,19
 911.19921875 -194.264648438 911.19921875 -194.264648438 1012.55957031 -106.780273438 c 128,-1,20
 1113.91992188 -19.2958984375 1113.91992188 -19.2958984375 1113.8515625 163.134765625 c 0,21,22
 1113.91894531 227.211914062 1113.91894531 227.211914062 1088.46777344 312.801757812 c 128,-1,23
 1063.015625 398.392578125 1063.015625 398.392578125 1011.56640625 503.033203125 c 2,24,-1
 998.028320312 530.567382812 l 1,25,-1
 1021.11328125 550.778320312 l 1,26,-1
 1157.94238281 670.573242188 l 1,27,-1
 1196.76269531 704.560546875 l 1,28,-1
 1220.00390625 658.494140625 l 2,29,30
 1247.0546875 604.875 1247.0546875 604.875 1268.53320312 552.762695312 c 128,-1,31
 1290.01269531 500.650390625 1290.01269531 500.650390625 1305.9140625 449.963867188 c 0,32,33
 1328.39160156 378.250976562 1328.39160156 378.250976562 1339.81933594 308.025390625 c 128,-1,34
 1351.24707031 237.798828125 1351.24707031 237.798828125 1351.51953125 169.1328125 c 0,35,36
 1352.02539062 -20.6396484375 1352.02539062 -20.6396484375 1279.53320312 -161.4765625 c 0,0,1
EndSplineSet
Substitution2: "'init' Initial Forms in Arabic lookup 13 subtable" uni06BA.init
Substitution2: "'medi' Medial Forms in Arabic lookup 11 subtable" uni06BA.medi
Substitution2: "'fina' Terminal Forms in Arabic lookup 9 subtable" uniFB9F
EndChar

StartChar: uni06F4
Encoding: 1780 1780 89
Width: 1108
VWidth: 2351
GlyphClass: 2
Flags: W
LayerCount: 2
Fore
SplineSet
380.583984375 1205.60449219 m 5,0,1
 403 1252 403 1252 450.67578125 1307.72265625 c 4,2,3
 498 1364 498 1364 581.771484375 1397.13964844 c 4,4,5
 665 1431 665 1431 778.205078125 1430.31445312 c 4,6,7
 890.993170713 1430.00001904 890.993170713 1430.00001904 959.791015625 1384.68847656 c 6,8,-1
 977.790039062 1372.83398438 l 5,9,-1
 977.790039062 1149.99707031 l 5,10,-1
 929.776367188 1159.81445312 l 6,11,12
 735 1200 735 1200 633.650390625 1142.15917969 c 4,13,14
 552 1097 552 1097 551.766601562 1006.70605469 c 4,15,16
 550.992027582 907.983887344 550.992027582 907.983887344 762.881835938 907.32421875 c 4,17,18
 860.060175173 906.999799112 860.060175173 906.999799112 985.810546875 951.974609375 c 6,19,-1
 1038.47070312 970.80859375 l 5,20,-1
 1042.04199219 723.069335938 l 5,21,-1
 1012.23730469 714.84765625 l 6,22,23
 705 630 705 630 502.4765625 730.97265625 c 5,24,25
 549.475846085 418.839798676 549.475846085 418.839798676 550.645507812 49.13671875 c 2,26,-1
 550.772460938 9.009765625 l 1,27,-1
 308.310546875 9.009765625 l 1,28,-1
 308.244140625 52.1416015625 l 2,29,30
 307.000252126 807.84682499 307.000252126 807.84682499 78.455078125 1301.75 c 6,31,-1
 61.9521484375 1337.4140625 l 5,32,-1
 291.599609375 1448.65820312 l 5,33,-1
 380.583984375 1205.60449219 l 5,0,1
EndSplineSet
EndChar

StartChar: uni06F5
Encoding: 1781 1781 90
Width: 1294
VWidth: 2210
GlyphClass: 2
Flags: W
LayerCount: 2
Fore
SplineSet
761.764648438 423.573242188 m 2,0,1
 778.393645738 268.995489879 778.393645738 268.995489879 876.446289062 267.872070312 c 0,2,3
 922 267 922 267 943.625 280.181640625 c 0,4,5
 990 308 990 308 989.672851562 420.924804688 c 0,6,7
 989 621 989 621 629.774414062 1010.61132812 c 5,8,9
 303 621 303 621 303.752929688 420.87109375 c 0,10,11
 304 337 304 337 333.85546875 302.337890625 c 0,12,13
 364 268 364 268 431.745117188 267.798828125 c 0,14,15
 483 268 483 268 504.145182884 292.574838957 c 0,16,17
 539.769516152 334.727280317 539.769516152 334.727280317 546.103515625 422.383789062 c 2,18,-1
 553.2265625 520.959960938 l 1,19,-1
 751.288085938 520.959960938 l 1,20,-1
 761.764648438 423.573242188 l 2,0,1
652.962890625 113.775390625 m 1,21,22
 579 10 579 10 413.094583225 9.13260211472 c 0,23,24
 248 8 248 8 152.375 107.063476562 c 0,25,26
 57 206 57 206 57.4267578125 390.788085938 c 0,27,28
 58 687 58 687 447.948242188 1173.79492188 c 5,29,-1
 400.884765625 1214.65625 l 5,30,-1
 555.086914062 1428.51953125 l 5,31,-1
 588.04296875 1401.09570312 l 6,32,33
 1241 858 1241 858 1239.81152344 384.912109375 c 0,34,35
 1239 141 1239 141 1087.25488281 52.8203125 c 0,36,37
 1011 9 1011 9 901.9921875 9.1103515625 c 0,38,39
 733 10 733 10 652.962890625 113.775390625 c 1,21,22
EndSplineSet
EndChar

StartChar: uni06F6
Encoding: 1782 1782 91
Width: 1008
VWidth: 2351
GlyphClass: 2
Flags: W
LayerCount: 2
Fore
SplineSet
408.717773438 1393.73828125 m 0,0,1
 491 1423 491 1423 562.567382812 1423.56835938 c 0,2,3
 676.257276385 1424.000979 676.257276385 1424.000979 781.22265625 1390.31640625 c 2,4,-1
 809 1381.40234375 l 1,5,-1
 809 1133.23925781 l 1,6,-1
 757.505859375 1148.68652344 l 2,7,8
 556 1209 556 1209 459.607421875 1140.75878906 c 0,9,10
 382 1085 382 1085 382.079101562 1006.734375 c 0,11,12
 382 928 382 928 440.219726562 884.6640625 c 0,13,14
 558 799 558 799 649.370117188 836.877929688 c 0,15,16
 669 845 669 845 791.84765625 899.478515625 c 0,17,18
 915.916693702 953.83980617 915.916693702 953.83980617 930.001953125 958.0390625 c 2,19,-1
 978.549804688 972.512695312 l 1,20,-1
 993.09375 711.516601562 l 1,21,-1
 963.544921875 702.126953125 l 2,22,23
 553.197902069 572.062727346 553.197902069 572.062727346 275.521484375 31.548828125 c 6,24,-1
 257.521484375 -3.4892578125 l 1,25,-1
 45.2529296875 92.576171875 l 1,26,-1
 61.4736328125 128.915039062 l 2,27,28
 197 432 197 432 418.071289062 643.171875 c 1,29,30
 148 729 148 729 136.010742188 965.581054688 c 0,31,32
 126 1172 126 1172 264.744140625 1305.12988281 c 0,33,34
 326 1364 326 1364 408.717773438 1393.73828125 c 0,0,1
EndSplineSet
EndChar

StartChar: uniFB8F
Encoding: 64399 64399 106
Width: 2117
VWidth: 2351
GlyphClass: 2
Flags: W
AnchorPoint: "Anchor-10" 980.9 1389.66 basechar 0
AnchorPoint: "Anchor-7" 798.06 -161.16 basechar 0
LayerCount: 2
Fore
SplineSet
1955.66796875 1567.515625 m 1,0,-1
 1955.66796875 1383.46386719 l 1,1,-1
 1955.66796875 1359.05371094 l 1,2,-1
 1933.95898438 1347.890625 l 1,3,-1
 1323.14257812 1033.81152344 l 1,4,-1
 1938.64453125 350.564453125 l 2,5,6
 2012.14746094 268.666015625 2012.14746094 268.666015625 2095.0859375 266.323242188 c 2,7,-1
 2125.56152344 265.461914062 l 2,8,9
 2130.06640625 265.322265625 2130.06640625 265.322265625 2134.47363281 264.76953125 c 128,-1,10
 2138.88085938 264.216796875 2138.88085938 264.216796875 2143.36621094 263.188476562 c 128,-1,11
 2147.8515625 262.159179688 2147.8515625 262.159179688 2152.12792969 260.6875 c 128,-1,12
 2156.40332031 259.215820312 2156.40332031 259.215820312 2160.65429688 257.180664062 c 128,-1,13
 2164.90429688 255.145507812 2164.90429688 255.145507812 2168.83398438 252.63671875 c 0,14,15
 2193.37402344 236.966796875 2193.37402344 236.966796875 2202.875 209.96875 c 128,-1,16
 2212.37597656 182.970703125 2212.37597656 182.970703125 2212.37597656 148 c 2,17,-1
 2212.37597656 113.899414062 l 2,18,19
 2212.29589844 97.8837890625 2212.29589844 97.8837890625 2210.4375 84.365234375 c 128,-1,20
 2208.57910156 70.8466796875 2208.57910156 70.8466796875 2204.09375 56.958984375 c 128,-1,21
 2199.60839844 43.0703125 2199.60839844 43.0703125 2190.828125 31.5703125 c 128,-1,22
 2182.04785156 20.0693359375 2182.04785156 20.0693359375 2169.36523438 12.1064453125 c 0,23,24
 2149.00488281 -0.6767578125 2149.00488281 -0.6767578125 2122.57617188 0.013671875 c 2,25,-1
 2081.97851562 1.07421875 l 2,26,27
 1904.7421875 5.8837890625 1904.7421875 5.8837890625 1714.1875 225.921875 c 1,28,29
 1668.24511719 110.217773438 1668.24511719 110.217773438 1540.91210938 55.548828125 c 128,-1,30
 1413.57910156 0.8798828125 1413.57910156 0.8798828125 1212.27929688 0.5302734375 c 2,31,-1
 907.21875 0 l 2,32,33
 558.458007812 -1.013671875 558.458007812 -1.013671875 382.728515625 73.80078125 c 0,34,35
 106.56640625 191.374023438 106.56640625 191.374023438 64.3349609375 466.383789062 c 0,36,37
 61.505859375 485.224609375 61.505859375 485.224609375 59.810546875 503.631835938 c 0,38,39
 47.509765625 643.834960938 47.509765625 643.834960938 92.6181640625 802.887695312 c 2,40,-1
 103.333007812 840.668945312 l 1,41,-1
 141.305664062 830.650390625 l 1,42,-1
 283.513671875 793.12890625 l 1,43,-1
 318.20703125 783.974609375 l 1,44,-1
 312.862304688 748.494140625 l 2,45,46
 292.134765625 610.900390625 292.134765625 610.900390625 294.92578125 548.904296875 c 0,47,48
 300.283203125 436.219726562 300.283203125 436.219726562 373.499023438 370.004882812 c 128,-1,49
 446.71484375 303.791015625 446.71484375 303.791015625 599.829101562 280.25390625 c 0,50,51
 704.4921875 264.623046875 704.4921875 264.623046875 852.638671875 265.009765625 c 2,52,-1
 1296.88183594 266.16796875 l 2,53,54
 1399.23242188 266.549804688 1399.23242188 266.549804688 1450.13964844 295.1953125 c 128,-1,55
 1501.046875 323.840820312 1501.046875 323.840820312 1513.54394531 378.671875 c 0,56,57
 1527.28613281 438.399414062 1527.28613281 438.399414062 1458.92480469 514.188476562 c 2,58,-1
 1075.98046875 938.739257812 l 1,59,-1
 1066.54589844 949.19921875 l 1,60,-1
 1065.74707031 963.262695312 l 2,61,62
 1060.73730469 1051.5 1060.73730469 1051.5 1078.54882812 1127.52734375 c 0,63,64
 1083.58691406 1149.68359375 1083.58691406 1149.68359375 1094.80371094 1168.94824219 c 128,-1,65
 1106.01953125 1188.21289062 1106.01953125 1188.21289062 1122.39941406 1203.34082031 c 128,-1,66
 1138.77832031 1218.46777344 1138.77832031 1218.46777344 1159.59375 1229.02246094 c 2,67,-1
 1897.57910156 1603.19238281 l 1,68,-1
 1955.66796875 1632.64355469 l 1,69,-1
 1955.66796875 1567.515625 l 1,0,-1
EndSplineSet
EndChar

StartChar: uniFB9F
Encoding: 64415 64415 114
Width: 1467
VWidth: 2351
GlyphClass: 2
Flags: W
AnchorPoint: "Anchor-10" 393.357 797.317 basechar 0
AnchorPoint: "Anchor-7" 293.314 -699.99 basechar 0
LayerCount: 2
Fore
SplineSet
1323.57226562 343.564453125 m 0,0,1
 1336.00488281 316.440429688 1336.00488281 316.440429688 1352.39160156 299.521484375 c 128,-1,2
 1368.77734375 282.6015625 1368.77734375 282.6015625 1390.50585938 274.43359375 c 128,-1,3
 1412.23339844 266.266601562 1412.23339844 266.266601562 1441.34082031 265.899414062 c 2,4,-1
 1474.82910156 265.4765625 l 2,5,6
 1499.13183594 265.232421875 1499.13183594 265.232421875 1518.1875 253.446289062 c 0,7,8
 1531.30859375 245.330078125 1531.30859375 245.330078125 1540.37304688 233.465820312 c 128,-1,9
 1549.4375 221.6015625 1549.4375 221.6015625 1554.03613281 207.200195312 c 128,-1,10
 1558.63378906 192.798828125 1558.63378906 192.798828125 1560.50488281 178.727539062 c 128,-1,11
 1562.37597656 164.65625 1562.37597656 164.65625 1562.37597656 148 c 2,12,-1
 1562.37597656 113.899414062 l 2,13,14
 1562.0078125 40.41015625 1562.0078125 40.41015625 1520.70214844 13.15625 c 0,15,16
 1510.16894531 6.2060546875 1510.16894531 6.2060546875 1497.89257812 2.9990234375 c 128,-1,17
 1485.6171875 -0.20703125 1485.6171875 -0.20703125 1472.94824219 0.005859375 c 2,18,-1
 1441.45800781 0.53515625 l 2,19,20
 1380.44335938 1.388671875 1380.44335938 1.388671875 1337.60351562 17.35546875 c 1,21,22
 1316.72753906 -246.607421875 1316.72753906 -246.607421875 1151.72460938 -381.69921875 c 128,-1,23
 986.721679688 -516.791992188 986.721679688 -516.791992188 690.450195312 -517.545898438 c 0,24,25
 417.515625 -518.0234375 417.515625 -518.0234375 252.698242188 -392.291992188 c 0,26,27
 58.9609375 -243.701171875 58.9609375 -243.701171875 59.55859375 58.439453125 c 0,28,29
 60.017578125 273.498046875 60.017578125 273.498046875 155.828125 489.950195312 c 2,30,-1
 170.991210938 524.205078125 l 1,31,-1
 206.166015625 511.318359375 l 1,32,-1
 354.900390625 456.826171875 l 1,33,-1
 393.923828125 442.529296875 l 1,34,-1
 378.14453125 404.080078125 l 2,35,36
 339.387695312 309.646484375 339.387695312 309.646484375 320.166015625 227.233398438 c 128,-1,37
 300.943359375 144.8203125 300.943359375 144.8203125 300.893554688 75.26171875 c 0,38,39
 300.942382812 -98.98046875 300.942382812 -98.98046875 395.223632812 -181.858398438 c 128,-1,40
 489.50390625 -264.736328125 489.50390625 -264.736328125 692.98046875 -264.501953125 c 0,41,42
 911.19921875 -264.264648438 911.19921875 -264.264648438 1012.55957031 -176.780273438 c 128,-1,43
 1113.91992188 -89.2958984375 1113.91992188 -89.2958984375 1113.8515625 93.134765625 c 0,44,45
 1113.89648438 135.573242188 1113.89648438 135.573242188 1102.91894531 187.055664062 c 128,-1,46
 1091.94238281 238.538085938 1091.94238281 238.538085938 1068.97167969 300.768554688 c 128,-1,47
 1046 363 1046 363 1011.56640625 433.033203125 c 2,48,-1
 998.028320312 460.567382812 l 1,49,-1
 1021.11328125 480.778320312 l 1,50,-1
 1157.94238281 600.573242188 l 1,51,-1
 1202.51953125 639.600585938 l 1,52,-1
 1222.0546875 583.666015625 l 2,53,54
 1234.87207031 546.96484375 1234.87207031 546.96484375 1260.41503906 486.501953125 c 128,-1,55
 1285.95800781 426.0390625 1285.95800781 426.0390625 1323.57226562 343.564453125 c 0,0,1
EndSplineSet
EndChar

StartChar: uniFBE8
Encoding: 64488 64488 117
Width: 640
VWidth: 2357
GlyphClass: 2
Flags: W
AnchorPoint: "Anchor-10" 293.546 1120.67 basechar 0
AnchorPoint: "Anchor-7" 327.466 -76.0703 basechar 0
LayerCount: 2
Fore
SplineSet
466.709960938 90.1220703125 m 0,0,1
 429.35546875 58.025390625 429.35546875 58.025390625 373.057617188 37.8115234375 c 128,-1,2
 316.760742188 17.59765625 316.760742188 17.59765625 246.5625 8.798828125 c 128,-1,3
 176.364257812 -0 176.364257812 -0 85.48828125 -0 c 2,4,-1
 -2 0 l 2,5,6
 -29.6337890625 0 -29.6337890625 0 -50.3916015625 13.966796875 c 0,7,8
 -91.6240234375 41.7109375 -91.6240234375 41.7109375 -91.6240234375 114 c 2,9,-1
 -91.6240234375 147.90234375 l 2,10,11
 -92.001953125 225.346679688 -92.001953125 225.346679688 -48.8828125 252.948242188 c 0,12,13
 -29.306640625 265.479492188 -29.306640625 265.479492188 -4 265.479492188 c 2,14,-1
 89.1953125 265.479492188 l 2,15,16
 178.822265625 265.016601562 178.822265625 265.016601562 203.2265625 269.046875 c 0,17,18
 296.94921875 281.599609375 296.94921875 281.599609375 318.114257812 332.212890625 c 0,19,20
 336.044921875 375.127929688 336.044921875 375.127929688 336.485351562 453.7421875 c 0,21,22
 336.329101562 503.333984375 336.329101562 503.333984375 331.985351562 553.690429688 c 128,-1,23
 327.641601562 604.046875 327.641601562 604.046875 319.080078125 655.229492188 c 128,-1,24
 310.518554688 706.411132812 310.518554688 706.411132812 297.768554688 758.088867188 c 2,25,-1
 287.993164062 797.70703125 l 1,26,-1
 327.797851562 806.689453125 l 1,27,-1
 478.9453125 840.799804688 l 1,28,-1
 513.842773438 848.67578125 l 1,29,-1
 525.548828125 814.869140625 l 2,30,31
 544.079101562 761.35546875 544.079101562 761.35546875 556.462890625 704.680664062 c 128,-1,32
 568.845703125 648.005859375 568.845703125 648.005859375 575.075195312 588.459960938 c 128,-1,33
 581.305664062 528.9140625 581.305664062 528.9140625 581.465820312 466.196289062 c 0,34,35
 580.966796875 189.783203125 580.966796875 189.783203125 466.709960938 90.1220703125 c 0,0,1
EndSplineSet
EndChar

StartChar: uniFBE9
Encoding: 64489 64489 118
Width: 744
VWidth: 2351
GlyphClass: 2
Flags: W
AnchorPoint: "Anchor-10" 317.926 1065.55 basechar 0
AnchorPoint: "Anchor-7" 285.065 -224.47 basechar 0
LayerCount: 2
Fore
SplineSet
749.620117188 0 m 2,0,-1
 706.977539062 0 l 2,1,2
 552.829101562 0 552.829101562 0 431.290039062 113.427734375 c 1,3,4
 308.860351562 0 308.860351562 0 129.21484375 0 c 2,5,-1
 -6 0 l 2,6,7
 -30.1728515625 0 -30.1728515625 0 -49.06640625 11.814453125 c 0,8,9
 -91.6240234375 38.427734375 -91.6240234375 38.427734375 -91.6240234375 114 c 2,10,-1
 -91.6240234375 147.90234375 l 2,11,12
 -92.0078125 226.598632812 -92.0078125 226.598632812 -48.5029296875 253.724609375 c 0,13,14
 -29.6494140625 265.479492188 -29.6494140625 265.479492188 -5.6240234375 265.479492188 c 2,15,-1
 132.596679688 265.479492188 l 2,16,17
 171.301757812 265.392578125 171.301757812 265.392578125 200.420898438 270.845703125 c 128,-1,18
 229.540039062 276.299804688 229.540039062 276.299804688 250.232421875 287.174804688 c 128,-1,19
 270.92578125 298.049804688 270.92578125 298.049804688 284.00390625 315.346679688 c 128,-1,20
 297.08203125 332.643554688 297.08203125 332.643554688 303.369140625 355.149414062 c 128,-1,21
 309.657226562 377.654296875 309.657226562 377.654296875 310.30078125 407.461914062 c 2,22,-1
 315.154296875 632.380859375 l 1,23,-1
 315.864257812 665.322265625 l 1,24,-1
 348.333007812 670.93359375 l 1,25,-1
 501.716796875 697.439453125 l 1,26,-1
 546.833007812 705.235351562 l 1,27,-1
 548.501953125 659.481445312 l 1,28,-1
 557.673828125 408.060546875 l 2,29,30
 560.326171875 331.6015625 560.326171875 331.6015625 595.41796875 298.540039062 c 128,-1,31
 630.509765625 265.479492188 630.509765625 265.479492188 709.999023438 265.479492188 c 2,32,-1
 750.577148438 265.479492188 l 2,33,34
 762.329101562 265.361328125 762.329101562 265.361328125 773.361328125 262.432617188 c 128,-1,35
 784.39453125 259.502929688 784.39453125 259.502929688 794.1875 253.446289062 c 0,36,37
 819.240234375 237.950195312 819.240234375 237.950195312 828.807617188 210.731445312 c 128,-1,38
 838.375976562 183.51171875 838.375976562 183.51171875 838.375976562 148 c 2,39,-1
 838.375976562 113.8984375 l 2,40,41
 838.001953125 40.3701171875 838.001953125 40.3701171875 796.0859375 13.0947265625 c 0,42,43
 775.9609375 0 775.9609375 0 749.620117188 0 c 2,0,-1
EndSplineSet
EndChar

StartChar: uniFE73
Encoding: 65139 65139 126
Width: 613
VWidth: 2357
GlyphClass: 2
Flags: W
AnchorPoint: "Anchor-10" 226.617 1388.45 basechar 0
AnchorPoint: "Anchor-7" 226.617 -86.0098 basechar 0
LayerCount: 2
Fore
SplineSet
360.364257812 403.96484375 m 2,0,1
 360.364257812 332.330078125 360.364257812 332.330078125 403.07421875 298.916015625 c 128,-1,2
 445.783203125 265.502929688 445.783203125 265.502929688 548.73046875 265.502929688 c 2,3,-1
 623.1953125 265.502929688 l 1,4,-1
 663.1953125 265.502929688 l 1,5,-1
 663.1953125 225.502929688 l 1,6,-1
 663.1953125 40.009765625 l 1,7,-1
 663.1953125 0.009765625 l 1,8,-1
 623.1953125 0.009765625 l 1,9,-1
 536.350585938 0.009765625 l 2,10,11
 322.240234375 0.0048828125 322.240234375 0.0048828125 207.555664062 99.5625 c 128,-1,12
 92.8701171875 199.120117188 92.8701171875 199.120117188 92.8701171875 390.354492188 c 2,13,-1
 92.8701171875 428.524414062 l 1,14,-1
 92.8701171875 468.524414062 l 1,15,-1
 132.870117188 468.524414062 l 1,16,-1
 320.364257812 468.524414062 l 1,17,-1
 360.364257812 468.524414062 l 1,18,-1
 360.364257812 428.524414062 l 1,19,-1
 360.364257812 403.96484375 l 2,0,1
EndSplineSet
EndChar

StartChar: uniFE8E
Encoding: 65166 65166 152
Width: 557
VWidth: 2351
GlyphClass: 2
Flags: W
AnchorPoint: "Anchor-10" 216.907 1513.98 basechar 0
AnchorPoint: "Anchor-7" 264.947 -175.71 basechar 0
LayerCount: 2
Fore
SplineSet
564.375976562 265.479492188 m 2,0,1
 588.190012721 265.479492188 588.190012721 265.479492188 608.032226562 253.733398438 c 0,2,3
 652.375976562 226.771397766 652.375976562 226.771397766 652.375976562 148 c 2,4,-1
 652.375976562 113.8984375 l 2,5,6
 652 41 652 41 610.0859375 13.0947265625 c 0,7,8
 590 0 590 0 563.620117188 0 c 2,9,-1
 523.619140625 0 l 2,10,11
 298 0 298 0 199.932617188 151.126953125 c 0,12,13
 133.871310997 254.200790298 133.871310997 254.200790298 126.98046875 470.06640625 c 2,14,-1
 98.2802734375 1369.14160156 l 5,15,-1
 97.490234375 1396.07910156 l 5,16,-1
 122.158203125 1406.92871094 l 5,17,-1
 294.890625 1482.90039062 l 5,18,-1
 351.020507812 1507.58691406 l 5,19,-1
 350.995117188 1446.26855469 l 5,20,-1
 350.568359375 484.915039062 l 2,21,22
 351 367 351 367 391.94921875 316.194335938 c 0,23,24
 433.606147424 265.479492188 433.606147424 265.479492188 523.459960938 265.479492188 c 2,25,-1
 564.375976562 265.479492188 l 2,0,1
EndSplineSet
EndChar

StartChar: uniFEA2
Encoding: 65186 65186 172
Width: 1333
VWidth: 2351
GlyphClass: 2
Flags: W
AnchorPoint: "Anchor-7" 584.525 -773.648 basechar 0
AnchorPoint: "Anchor-10" 549.59 1257.96 basechar 0
LayerCount: 2
Fore
SplineSet
827.005859375 412.004882812 m 1,0,1
 802.94140625 406.1171875 802.94140625 406.1171875 780.03125 399.229492188 c 128,-1,2
 757.12109375 392.341796875 757.12109375 392.341796875 735.244140625 384.430664062 c 128,-1,3
 713.3671875 376.518554688 713.3671875 376.518554688 692.280273438 367.484375 c 128,-1,4
 671.193359375 358.450195312 671.193359375 358.450195312 650.938476562 348.352539062 c 128,-1,5
 630.684570312 338.25390625 630.684570312 338.25390625 610.85546875 326.91015625 c 0,6,7
 305.006835938 150.874023438 305.006835938 150.874023438 305.084960938 -100.111328125 c 0,8,9
 305.059570312 -164.783203125 305.059570312 -164.783203125 323.41015625 -213.614257812 c 128,-1,10
 341.760742188 -262.444335938 341.760742188 -262.444335938 379.180664062 -297.509765625 c 128,-1,11
 416.6015625 -332.576171875 416.6015625 -332.576171875 474.798828125 -355.861328125 c 0,12,13
 528.01171875 -376.953125 528.01171875 -376.953125 603.989257812 -388.150390625 c 128,-1,14
 679.965820312 -399.34765625 679.965820312 -399.34765625 776.8359375 -399.671875 c 0,15,16
 968.45703125 -399.991210938 968.45703125 -399.991210938 1140.11816406 -351.18359375 c 2,17,-1
 1178.63476562 -340.233398438 l 1,18,-1
 1189.54394531 -378.760742188 l 1,19,-1
 1233.55273438 -534.172851562 l 1,20,-1
 1244.21289062 -571.81640625 l 1,21,-1
 1206.81445312 -583.307617188 l 2,22,23
 992.994140625 -649.00390625 992.994140625 -649.00390625 778.904296875 -648.865234375 c 0,24,25
 510.2421875 -649.004882812 510.2421875 -649.004882812 320.545898438 -550.48828125 c 0,26,27
 57.0458984375 -413.294921875 57.0458984375 -413.294921875 56.4599609375 -103.427734375 c 0,28,29
 55.970703125 98.1025390625 55.970703125 98.1025390625 165.268554688 261.46875 c 0,30,31
 327.794921875 505.305664062 327.794921875 505.305664062 674.07421875 606.5390625 c 0,32,33
 695.208007812 612.690429688 695.208007812 612.690429688 716.032226562 617.885742188 c 1,34,35
 686.776367188 630.768554688 686.776367188 630.768554688 654.14453125 646.19921875 c 0,36,37
 615.125 664.666015625 615.125 664.666015625 579.99609375 678.725585938 c 128,-1,38
 544.866210938 692.784179688 544.866210938 692.784179688 527.454101562 698.309570312 c 128,-1,39
 510.041015625 703.8359375 510.041015625 703.8359375 506.225585938 703.815429688 c 0,40,41
 490.700195312 703.836914062 490.700195312 703.836914062 474.953125 700.942382812 c 128,-1,42
 459.20703125 698.048828125 459.20703125 698.048828125 442.64453125 691.94140625 c 128,-1,43
 426.08203125 685.834960938 426.08203125 685.834960938 409.330078125 676.5859375 c 128,-1,44
 392.577148438 667.3359375 392.577148438 667.3359375 375.0234375 654.419921875 c 128,-1,45
 357.46875 641.502929688 357.46875 641.502929688 339.755859375 625.23046875 c 128,-1,46
 322.04296875 608.958007812 322.04296875 608.958007812 303.541992188 588.564453125 c 128,-1,47
 285.040039062 568.169921875 285.040039062 568.169921875 266.411132812 544.192382812 c 2,48,-1
 241.009765625 511.5 l 1,49,-1
 209.209960938 538.010742188 l 1,50,-1
 94.0869140625 633.987304688 l 1,51,-1
 66.2255859375 657.215820312 l 1,52,-1
 86.6279296875 687.208984375 l 2,53,54
 271.088867188 958.375976562 271.088867188 958.375976562 490.383789062 954.494140625 c 0,55,56
 527.447265625 953.920898438 527.447265625 953.920898438 571.388671875 942.430664062 c 0,57,58
 584.02734375 938.9296875 584.02734375 938.9296875 602.305664062 931.791992188 c 128,-1,59
 620.583984375 924.653320312 620.583984375 924.653320312 646.506835938 913.01953125 c 128,-1,60
 672.428710938 901.384765625 672.428710938 901.384765625 702.815429688 886.977539062 c 128,-1,61
 733.202148438 872.5703125 733.202148438 872.5703125 774.962890625 852.21484375 c 0,62,63
 826.685546875 827.181640625 826.685546875 827.181640625 870.541992188 807.12890625 c 128,-1,64
 914.399414062 787.077148438 914.399414062 787.077148438 948.942382812 772.6171875 c 128,-1,65
 983.486328125 758.157226562 983.486328125 758.157226562 1009.06738281 749.086914062 c 0,66,67
 1047.51269531 735.663085938 1047.51269531 735.663085938 1089.00976562 726.002929688 c 128,-1,68
 1130.50683594 716.341796875 1130.50683594 716.341796875 1174.79101562 710.548828125 c 2,69,-1
 1214.70214844 705.328125 l 1,70,-1
 1209.23144531 665.450195312 l 1,71,-1
 1185.09472656 489.502929688 l 1,72,-1
 1180.83300781 458.439453125 l 1,73,-1
 1149.65136719 455.159179688 l 2,74,75
 1093.58789062 449.260742188 1093.58789062 449.260742188 1037.32617188 443.594726562 c 1,76,77
 1042.78515625 397.094726562 1042.78515625 397.094726562 1059.62695312 363.721679688 c 128,-1,78
 1076.46972656 330.34765625 1076.46972656 330.34765625 1107.05957031 307.716796875 c 128,-1,79
 1137.6484375 285.084960938 1137.6484375 285.084960938 1183.34960938 274.549804688 c 128,-1,80
 1229.04980469 264.014648438 1229.04980469 264.014648438 1291.5703125 264.838867188 c 2,81,-1
 1339.89355469 265.4765625 l 2,82,83
 1364.3203125 265.743164062 1364.3203125 265.743164062 1383.52929688 254.247070312 c 0,84,85
 1409.10449219 238.94140625 1409.10449219 238.94140625 1418.74023438 211.499023438 c 128,-1,86
 1428.37597656 184.056640625 1428.37597656 184.056640625 1428.37597656 148 c 2,87,-1
 1428.37597656 113.897460938 l 2,88,89
 1428 40.9169921875 1428 40.9169921875 1386.25097656 13.4541015625 c 0,90,91
 1366.29296875 0.3271484375 1366.29296875 0.3271484375 1340.11425781 0.0029296875 c 2,92,-1
 1297.25976562 -0.5263671875 l 2,93,94
 1086.57128906 -3.28515625 1086.57128906 -3.28515625 966.192382812 102.305664062 c 128,-1,95
 845.814453125 207.897460938 845.814453125 207.897460938 827.005859375 412.004882812 c 1,0,1
EndSplineSet
EndChar

StartChar: uniFEA3
Encoding: 65187 65187 173
Width: 1361
VWidth: 2311
GlyphClass: 2
Flags: W
AnchorPoint: "Anchor-10" 638.26 1119.07 basechar 0
AnchorPoint: "Anchor-7" 599.96 -177.83 basechar 0
LayerCount: 2
Fore
SplineSet
1304.59179688 558.411132812 m 1,0,-1
 1280.25878906 411.748046875 l 1,1,-1
 1275.78710938 384.795898438 l 1,2,-1
 1249.09863281 379.166015625 l 2,3,4
 1200.47070312 367.66015625 1200.47070312 367.66015625 645.87109375 99.1708984375 c 0,5,6
 576.284179688 65.45703125 576.284179688 65.45703125 486.229492188 43.35546875 c 128,-1,7
 396.174804688 21.25390625 396.174804688 21.25390625 287.66015625 10.626953125 c 128,-1,8
 179.145507812 -0 179.145507812 -0 49.0302734375 -0 c 2,9,-1
 -4 0 l 2,10,11
 -29.490234375 0 -29.490234375 0 -49.1357421875 12.5048828125 c 0,12,13
 -91.6240234375 39.548828125 -91.6240234375 39.548828125 -91.6240234375 114 c 2,14,-1
 -91.6240234375 147.90234375 l 2,15,16
 -92.001953125 225.346679688 -92.001953125 225.346679688 -48.8828125 252.948242188 c 0,17,18
 -29.306640625 265.479492188 -29.306640625 265.479492188 -4 265.479492188 c 2,19,-1
 39.8857421875 265.479492188 l 2,20,21
 349.620117188 265.015625 349.620117188 265.015625 488.29296875 315.359375 c 0,22,23
 668.815429688 380.896484375 668.815429688 380.896484375 826.500976562 451.737304688 c 1,24,25
 792.618164062 463.087890625 792.618164062 463.087890625 753.256835938 478.638671875 c 128,-1,26
 713.895507812 494.189453125 713.895507812 494.189453125 668.229492188 514.228515625 c 0,27,28
 576.009765625 554.958984375 576.009765625 554.958984375 512.30078125 578.744140625 c 128,-1,29
 448.591796875 602.528320312 448.591796875 602.528320312 429.16015625 604.979492188 c 0,30,31
 421.419921875 605.995117188 421.419921875 605.995117188 412.348632812 606.203125 c 0,32,33
 321.534179688 605.606445312 321.534179688 605.606445312 211.696289062 461.176757812 c 2,34,-1
 187.349609375 429.161132812 l 1,35,-1
 155.46875 453.684570312 l 1,36,-1
 40.2666015625 542.301757812 l 1,37,-1
 9.71875 565.80078125 l 1,38,-1
 32.06640625 597.200195312 l 2,39,40
 136.176757812 743.485351562 136.176757812 743.485351562 200.577148438 790.473632812 c 0,41,42
 300.133789062 862.009765625 300.133789062 862.009765625 419.515625 861.916015625 c 0,43,44
 516.396484375 862.0078125 516.396484375 862.0078125 660.147460938 798.728515625 c 0,45,46
 701.66796875 780.366210938 701.66796875 780.366210938 907.3046875 682.763671875 c 0,47,48
 1092.86230469 594.551757812 1092.86230469 594.551757812 1262.70214844 604.883789062 c 2,49,-1
 1312.80761719 607.932617188 l 1,50,-1
 1304.59179688 558.411132812 l 1,0,-1
EndSplineSet
EndChar

StartChar: uniFEA4
Encoding: 65188 65188 174
Width: 1393
VWidth: 2311
GlyphClass: 2
Flags: W
AnchorPoint: "Anchor-7" 599.96 -177.83 basechar 0
AnchorPoint: "Anchor-10" 639.26 1119.07 basechar 0
LayerCount: 2
Fore
SplineSet
907.12109375 682.850585938 m 0,0,1
 1095.71679688 594.553710938 1095.71679688 594.553710938 1262.66113281 604.881835938 c 2,2,-1
 1312.81640625 607.984375 l 1,3,-1
 1304.59179688 558.411132812 l 1,4,-1
 1280.26660156 411.791992188 l 1,5,-1
 1275.93945312 385.712890625 l 1,6,-1
 1250.25195312 379.469726562 l 2,7,8
 1215.93164062 371.129882812 1215.93164062 371.129882812 1166.91503906 351.798828125 c 128,-1,9
 1117.89746094 332.466796875 1117.89746094 332.466796875 1059.25 303.923828125 c 1,10,11
 1085.00878906 287.87109375 1085.00878906 287.87109375 1144.70507812 277.530273438 c 128,-1,12
 1204.40136719 267.190429688 1204.40136719 267.190429688 1291.44824219 266.430664062 c 2,13,-1
 1400.75195312 265.477539062 l 2,14,15
 1406.37109375 265.420898438 1406.37109375 265.420898438 1411.88867188 264.693359375 c 128,-1,16
 1417.40527344 263.96484375 1417.40527344 263.96484375 1422.91699219 262.530273438 c 128,-1,17
 1428.42871094 261.094726562 1428.42871094 261.094726562 1433.83789062 258.798828125 c 128,-1,18
 1439.24707031 256.501953125 1439.24707031 256.501953125 1444.1875 253.446289062 c 0,19,20
 1488.37597656 226.114257812 1488.37597656 226.114257812 1488.37597656 148 c 2,21,-1
 1488.37597656 113.8984375 l 2,22,23
 1488.20605469 80.384765625 1488.20605469 80.384765625 1478.95996094 54.427734375 c 128,-1,24
 1469.71386719 28.4697265625 1469.71386719 28.4697265625 1446.0859375 13.0947265625 c 0,25,26
 1435.80371094 6.404296875 1435.80371094 6.404296875 1423.88574219 3.2021484375 c 128,-1,27
 1411.96679688 0 1411.96679688 0 1399.62011719 0 c 2,28,-1
 1268.41503906 0 l 2,29,30
 1159.83496094 0 1159.83496094 0 1075.73144531 20.4287109375 c 128,-1,31
 991.627929688 40.857421875 991.627929688 40.857421875 929.9609375 84.7998046875 c 128,-1,32
 868.293945312 128.7421875 868.293945312 128.7421875 835.247070312 195.584960938 c 1,33,34
 741.758789062 145.494140625 741.758789062 145.494140625 645.850585938 99.1611328125 c 0,35,36
 441.1796875 0 441.1796875 0 49.0302734375 0 c 2,37,-1
 -4 0 l 2,38,39
 -29.490234375 0 -29.490234375 0 -49.1357421875 12.5048828125 c 0,40,41
 -91.6240234375 39.548828125 -91.6240234375 39.548828125 -91.6240234375 114 c 2,42,-1
 -91.6240234375 147.90234375 l 2,43,44
 -92.001953125 225.346679688 -92.001953125 225.346679688 -48.8828125 252.948242188 c 0,45,46
 -29.306640625 265.479492188 -29.306640625 265.479492188 -4 265.479492188 c 2,47,-1
 39.884765625 265.479492188 l 2,48,49
 355.689453125 265.010742188 355.689453125 265.010742188 487.862304688 315.200195312 c 0,50,51
 677.861328125 385.971679688 677.861328125 385.971679688 826.034179688 451.893554688 c 1,52,53
 758.763671875 474.499023438 758.763671875 474.499023438 668.229492188 514.228515625 c 0,54,55
 576.009765625 554.958984375 576.009765625 554.958984375 512.30078125 578.744140625 c 128,-1,56
 448.591796875 602.528320312 448.591796875 602.528320312 429.16015625 604.979492188 c 0,57,58
 421.419921875 605.995117188 421.419921875 605.995117188 412.348632812 606.203125 c 0,59,60
 321.534179688 605.606445312 321.534179688 605.606445312 211.696289062 461.176757812 c 2,61,-1
 187.349609375 429.161132812 l 1,62,-1
 155.46875 453.684570312 l 1,63,-1
 40.2666015625 542.301757812 l 1,64,-1
 9.71875 565.80078125 l 1,65,-1
 32.06640625 597.200195312 l 2,66,67
 136.176757812 743.485351562 136.176757812 743.485351562 200.577148438 790.473632812 c 0,68,69
 300.133789062 862.009765625 300.133789062 862.009765625 419.516601562 861.916015625 c 0,70,71
 446.706054688 861.940429688 446.706054688 861.940429688 475.543945312 857.864257812 c 128,-1,72
 504.381835938 853.788085938 504.381835938 853.788085938 534.596679688 845.692382812 c 128,-1,73
 564.811523438 837.596679688 564.811523438 837.596679688 596.237304688 825.80859375 c 128,-1,74
 627.6640625 814.01953125 627.6640625 814.01953125 660.994140625 798.34375 c 0,75,76
 782.9921875 741.211914062 782.9921875 741.211914062 907.12109375 682.850585938 c 0,0,1
EndSplineSet
EndChar

StartChar: uniFEAA
Encoding: 65194 65194 180
Width: 1162
VWidth: 2351
GlyphClass: 2
Flags: W
AnchorPoint: "Anchor-10" 515.149 1329.65 basechar 0
AnchorPoint: "Anchor-7" 475.41 -206.98 basechar 0
LayerCount: 2
Fore
SplineSet
1170.60742188 265.4609375 m 2,0,1
 1194.92675781 264.711914062 1194.92675781 264.711914062 1213.83007812 252.64453125 c 0,2,3
 1257.37597656 224.845703125 1257.37597656 224.845703125 1257.37597656 148 c 2,4,-1
 1257.37597656 113.8984375 l 2,5,6
 1257.29589844 98.1396484375 1257.29589844 98.1396484375 1255.42089844 84.7236328125 c 128,-1,7
 1253.546875 71.306640625 1253.546875 71.306640625 1249.09375 57.642578125 c 128,-1,8
 1244.640625 43.9775390625 1244.640625 43.9775390625 1236.04101562 32.556640625 c 128,-1,9
 1227.44238281 21.1357421875 1227.44238281 21.1357421875 1215.0859375 13.0947265625 c 0,10,11
 1194.9609375 0 1194.9609375 0 1168.62011719 0 c 2,12,-1
 1137.85644531 0 l 2,13,14
 1060.20117188 0 1060.20117188 0 993.182617188 29.365234375 c 128,-1,15
 926.163085938 58.7294921875 926.163085938 58.7294921875 872.353515625 116.00390625 c 1,16,17
 729.791992188 -21.984375 729.791992188 -21.984375 405.545898438 -21.7431640625 c 0,18,19
 251.291992188 -22.01171875 251.291992188 -22.01171875 82.4736328125 36.55859375 c 2,20,-1
 55.5849609375 45.8876953125 l 1,21,-1
 55.5849609375 74.3486328125 l 1,22,-1
 55.5849609375 262.038085938 l 1,23,-1
 55.5849609375 322.76171875 l 1,24,-1
 111.376953125 298.7890625 l 2,25,26
 172.51171875 272.51953125 172.51171875 272.51953125 243.737304688 259.318359375 c 128,-1,27
 314.962890625 246.116210938 314.962890625 246.116210938 396.694335938 246.22265625 c 0,28,29
 623.404296875 246.015625 623.404296875 246.015625 694.481445312 317.346679688 c 0,30,31
 703.889648438 326.624023438 703.889648438 326.624023438 703.814453125 337.967773438 c 0,32,33
 703.936523438 356.532226562 703.936523438 356.532226562 692.005859375 380.860351562 c 2,34,-1
 444.0859375 886.387695312 l 1,35,-1
 428.397460938 918.377929688 l 1,36,-1
 458.369140625 937.646484375 l 1,37,-1
 607.33984375 1033.41894531 l 1,38,-1
 645.844726562 1058.17382812 l 1,39,-1
 665.213867188 1016.69726562 l 1,40,-1
 926.616210938 456.927734375 l 2,41,42
 1013.79589844 270.291015625 1013.79589844 270.291015625 1142.26367188 266.333984375 c 2,43,-1
 1170.60742188 265.4609375 l 2,0,1
EndSplineSet
EndChar

StartChar: uniFEAE
Encoding: 65198 65198 184
Width: 966
VWidth: 2357
GlyphClass: 2
Flags: W
AnchorPoint: "Anchor-10" 501.618 973.71 basechar 0
AnchorPoint: "Anchor-7" 316.38 -648.85 basechar 0
LayerCount: 2
Fore
SplineSet
519.709960938 529.862304688 m 1,0,-1
 670.220703125 616.639648438 l 1,1,-1
 717.013671875 643.618164062 l 1,2,-1
 729.173828125 590.991210938 l 2,3,4
 755.883789062 475.393554688 755.883789062 475.393554688 797.05078125 312.119140625 c 0,5,6
 801.963867188 292.8671875 801.963867188 292.8671875 832.916992188 279.172851562 c 128,-1,7
 863.870117188 265.479492188 863.870117188 265.479492188 932.770507812 265.479492188 c 2,8,-1
 973.577148438 265.479492188 l 2,9,10
 998.131835938 265.232421875 998.131835938 265.232421875 1017.1875 253.446289062 c 0,11,12
 1061.37597656 226.114257812 1061.37597656 226.114257812 1061.37597656 148 c 2,13,-1
 1061.37597656 113.8984375 l 2,14,15
 1061.00195312 40.3583984375 1061.00195312 40.3583984375 1019.08203125 13.0869140625 c 0,16,17
 998.953125 -0.0078125 998.953125 -0.0078125 972.608398438 0 c 2,18,-1
 937.994140625 0.009765625 l 2,19,20
 849.018554688 0.0029296875 849.018554688 0.0029296875 792.640625 23.626953125 c 1,21,22
 739.432617188 -251.765625 739.432617188 -251.765625 559.787109375 -392.482421875 c 128,-1,23
 380.141601562 -533.19921875 380.141601562 -533.19921875 83.7431640625 -534.03125 c 2,24,-1
 81.306640625 -534.038085938 l 1,25,-1
 54.205078125 -534.114257812 l 1,26,-1
 44.0869140625 -508.97265625 l 1,27,-1
 -10.623046875 -373.03515625 l 1,28,-1
 -31.12890625 -322.083984375 l 1,29,-1
 23.65625 -318.201171875 l 2,30,31
 281.662109375 -299.912109375 281.662109375 -299.912109375 413.903320312 -191.936523438 c 128,-1,32
 546.145507812 -83.9599609375 546.145507812 -83.9599609375 565.239257812 117.921875 c 0,33,34
 573.876953125 213.4609375 573.876953125 213.4609375 501.055664062 484.842773438 c 2,35,-1
 493.09375 514.516601562 l 1,36,-1
 519.709960938 529.862304688 l 1,0,-1
EndSplineSet
PairPos2: "'kern' Horizontal Kerning lookup 15-1" uni06CA dx=-85 dy=0 dh=-85 dv=0 dx=0 dy=0 dh=0 dv=0
PairPos2: "'kern' Horizontal Kerning lookup 15-1" uniFB90 dx=-307 dy=0 dh=-307 dv=0 dx=0 dy=0 dh=0 dv=0
PairPos2: "'kern' Horizontal Kerning lookup 15-1" uniFB8E dx=-307 dy=0 dh=-307 dv=0 dx=0 dy=0 dh=0 dv=0
PairPos2: "'kern' Horizontal Kerning lookup 15-1" uni06A9 dx=-307 dy=0 dh=-307 dv=0 dx=0 dy=0 dh=0 dv=0
PairPos2: "'kern' Horizontal Kerning lookup 15-1" uni064A dx=-106 dy=0 dh=-106 dv=0 dx=0 dy=0 dh=0 dv=0
PairPos2: "'kern' Horizontal Kerning lookup 15-1" afii57414 dx=-106 dy=0 dh=-106 dv=0 dx=0 dy=0 dh=0 dv=0
PairPos2: "'kern' Horizontal Kerning lookup 15-1" uniFBE8 dx=-212 dy=0 dh=-212 dv=0 dx=0 dy=0 dh=0 dv=0
PairPos2: "'kern' Horizontal Kerning lookup 15-1" uni0649 dx=-85 dy=0 dh=-85 dv=0 dx=0 dy=0 dh=0 dv=0
PairPos2: "'kern' Horizontal Kerning lookup 15-1" uni0648 dx=-85 dy=0 dh=-85 dv=0 dx=0 dy=0 dh=0 dv=0
PairPos2: "'kern' Horizontal Kerning lookup 15-1" afii57412 dx=-85 dy=0 dh=-85 dv=0 dx=0 dy=0 dh=0 dv=0
PairPos2: "'kern' Horizontal Kerning lookup 15-1" uniFEEB dx=-212 dy=0 dh=-212 dv=0 dx=0 dy=0 dh=0 dv=0
PairPos2: "'kern' Horizontal Kerning lookup 15-1" uni0647 dx=-212 dy=0 dh=-212 dv=0 dx=0 dy=0 dh=0 dv=0
PairPos2: "'kern' Horizontal Kerning lookup 15-1" uniFEE7 dx=-212 dy=0 dh=-212 dv=0 dx=0 dy=0 dh=0 dv=0
PairPos2: "'kern' Horizontal Kerning lookup 15-1" uni0646 dx=-159 dy=0 dh=-159 dv=0 dx=0 dy=0 dh=0 dv=0
PairPos2: "'kern' Horizontal Kerning lookup 15-1" uniFEE3 dx=-212 dy=0 dh=-212 dv=0 dx=0 dy=0 dh=0 dv=0
PairPos2: "'kern' Horizontal Kerning lookup 15-1" uni0645 dx=-212 dy=0 dh=-212 dv=0 dx=0 dy=0 dh=0 dv=0
PairPos2: "'kern' Horizontal Kerning lookup 15-1" uniFEFB dx=-212 dy=0 dh=-212 dv=0 dx=0 dy=0 dh=0 dv=0
PairPos2: "'kern' Horizontal Kerning lookup 15-1" uniFEDF dx=-212 dy=0 dh=-212 dv=0 dx=0 dy=0 dh=0 dv=0
PairPos2: "'kern' Horizontal Kerning lookup 15-1" uni0644 dx=-159 dy=0 dh=-159 dv=0 dx=0 dy=0 dh=0 dv=0
PairPos2: "'kern' Horizontal Kerning lookup 15-1" uniFEDB dx=-307 dy=0 dh=-307 dv=0 dx=0 dy=0 dh=0 dv=0
PairPos2: "'kern' Horizontal Kerning lookup 15-1" uni0643 dx=-212 dy=0 dh=-212 dv=0 dx=0 dy=0 dh=0 dv=0
PairPos2: "'kern' Horizontal Kerning lookup 15-1" uniFED7 dx=-212 dy=0 dh=-212 dv=0 dx=0 dy=0 dh=0 dv=0
PairPos2: "'kern' Horizontal Kerning lookup 15-1" uni0642 dx=-159 dy=0 dh=-159 dv=0 dx=0 dy=0 dh=0 dv=0
PairPos2: "'kern' Horizontal Kerning lookup 15-1" uniFED3 dx=-212 dy=0 dh=-212 dv=0 dx=0 dy=0 dh=0 dv=0
PairPos2: "'kern' Horizontal Kerning lookup 15-1" uni0641 dx=-212 dy=0 dh=-212 dv=0 dx=0 dy=0 dh=0 dv=0
PairPos2: "'kern' Horizontal Kerning lookup 15-1" uniFECF dx=-212 dy=0 dh=-212 dv=0 dx=0 dy=0 dh=0 dv=0
PairPos2: "'kern' Horizontal Kerning lookup 15-1" uniFECB dx=-212 dy=0 dh=-212 dv=0 dx=0 dy=0 dh=0 dv=0
PairPos2: "'kern' Horizontal Kerning lookup 15-1" uniFEC7 dx=-212 dy=0 dh=-212 dv=0 dx=0 dy=0 dh=0 dv=0
PairPos2: "'kern' Horizontal Kerning lookup 15-1" uni0638 dx=-212 dy=0 dh=-212 dv=0 dx=0 dy=0 dh=0 dv=0
PairPos2: "'kern' Horizontal Kerning lookup 15-1" uniFEC3 dx=-212 dy=0 dh=-212 dv=0 dx=0 dy=0 dh=0 dv=0
PairPos2: "'kern' Horizontal Kerning lookup 15-1" uni0637 dx=-212 dy=0 dh=-212 dv=0 dx=0 dy=0 dh=0 dv=0
PairPos2: "'kern' Horizontal Kerning lookup 15-1" uniFEBF dx=-212 dy=0 dh=-212 dv=0 dx=0 dy=0 dh=0 dv=0
PairPos2: "'kern' Horizontal Kerning lookup 15-1" uni0636 dx=-212 dy=0 dh=-212 dv=0 dx=0 dy=0 dh=0 dv=0
PairPos2: "'kern' Horizontal Kerning lookup 15-1" uniFEBB dx=-212 dy=0 dh=-212 dv=0 dx=0 dy=0 dh=0 dv=0
PairPos2: "'kern' Horizontal Kerning lookup 15-1" uni0635 dx=-212 dy=0 dh=-212 dv=0 dx=0 dy=0 dh=0 dv=0
PairPos2: "'kern' Horizontal Kerning lookup 15-1" uniFEB7 dx=-212 dy=0 dh=-212 dv=0 dx=0 dy=0 dh=0 dv=0
PairPos2: "'kern' Horizontal Kerning lookup 15-1" uni0634 dx=-212 dy=0 dh=-212 dv=0 dx=0 dy=0 dh=0 dv=0
PairPos2: "'kern' Horizontal Kerning lookup 15-1" uniFEB3 dx=-212 dy=0 dh=-212 dv=0 dx=0 dy=0 dh=0 dv=0
PairPos2: "'kern' Horizontal Kerning lookup 15-1" uni0633 dx=-212 dy=0 dh=-212 dv=0 dx=0 dy=0 dh=0 dv=0
PairPos2: "'kern' Horizontal Kerning lookup 15-1" uni0632 dx=-85 dy=0 dh=-85 dv=0 dx=0 dy=0 dh=0 dv=0
PairPos2: "'kern' Horizontal Kerning lookup 15-1" uni0631 dx=-85 dy=0 dh=-85 dv=0 dx=0 dy=0 dh=0 dv=0
PairPos2: "'kern' Horizontal Kerning lookup 15-1" uni0630 dx=-212 dy=0 dh=-212 dv=0 dx=0 dy=0 dh=0 dv=0
PairPos2: "'kern' Horizontal Kerning lookup 15-1" uni062F dx=-212 dy=0 dh=-212 dv=0 dx=0 dy=0 dh=0 dv=0
PairPos2: "'kern' Horizontal Kerning lookup 15-1" uniFEA7 dx=-212 dy=0 dh=-212 dv=0 dx=0 dy=0 dh=0 dv=0
PairPos2: "'kern' Horizontal Kerning lookup 15-1" uniFEA3 dx=-212 dy=0 dh=-212 dv=0 dx=0 dy=0 dh=0 dv=0
PairPos2: "'kern' Horizontal Kerning lookup 15-1" uniFE9F dx=-212 dy=0 dh=-212 dv=0 dx=0 dy=0 dh=0 dv=0
PairPos2: "'kern' Horizontal Kerning lookup 15-1" uniFE9B dx=-212 dy=0 dh=-212 dv=0 dx=0 dy=0 dh=0 dv=0
PairPos2: "'kern' Horizontal Kerning lookup 15-1" uni062B dx=-212 dy=0 dh=-212 dv=0 dx=0 dy=0 dh=0 dv=0
PairPos2: "'kern' Horizontal Kerning lookup 15-1" uniFE97 dx=-212 dy=0 dh=-212 dv=0 dx=0 dy=0 dh=0 dv=0
PairPos2: "'kern' Horizontal Kerning lookup 15-1" uni062A dx=-212 dy=0 dh=-212 dv=0 dx=0 dy=0 dh=0 dv=0
PairPos2: "'kern' Horizontal Kerning lookup 15-1" uni0629 dx=-212 dy=0 dh=-212 dv=0 dx=0 dy=0 dh=0 dv=0
PairPos2: "'kern' Horizontal Kerning lookup 15-1" uniFE91 dx=-85 dy=0 dh=-85 dv=0 dx=0 dy=0 dh=0 dv=0
PairPos2: "'kern' Horizontal Kerning lookup 15-1" uni0628 dx=-212 dy=0 dh=-212 dv=0 dx=0 dy=0 dh=0 dv=0
PairPos2: "'kern' Horizontal Kerning lookup 15-1" uni0627 dx=-212 dy=0 dh=-212 dv=0 dx=0 dy=0 dh=0 dv=0
PairPos2: "'kern' Horizontal Kerning lookup 15-1" uni0623 dx=-212 dy=0 dh=-212 dv=0 dx=0 dy=0 dh=0 dv=0
PairPos2: "'kern' Horizontal Kerning lookup 15-1" uni0622 dx=-212 dy=0 dh=-212 dv=0 dx=0 dy=0 dh=0 dv=0
PairPos2: "'kern' Horizontal Kerning lookup 15-1" uni0621 dx=-212 dy=0 dh=-212 dv=0 dx=0 dy=0 dh=0 dv=0
PairPos2: "'kern' Horizontal Kerning lookup 15-1" uniFB94 dx=-307 dy=0 dh=-307 dv=0 dx=0 dy=0 dh=0 dv=0
PairPos2: "'kern' Horizontal Kerning lookup 15-1" uniFB92 dx=-307 dy=0 dh=-307 dv=0 dx=0 dy=0 dh=0 dv=0
PairPos2: "'kern' Horizontal Kerning lookup 15-1" afii57509 dx=-307 dy=0 dh=-307 dv=0 dx=0 dy=0 dh=0 dv=0
PairPos2: "'kern' Horizontal Kerning lookup 15-1" afii57508 dx=-85 dy=0 dh=-85 dv=0 dx=0 dy=0 dh=0 dv=0
PairPos2: "'kern' Horizontal Kerning lookup 15-1" uniFB7C dx=-159 dy=0 dh=-159 dv=0 dx=0 dy=0 dh=0 dv=0
PairPos2: "'kern' Horizontal Kerning lookup 15-1" afii57506 dx=-212 dy=0 dh=-212 dv=0 dx=0 dy=0 dh=0 dv=0
PairPos2: "'kern' Horizontal Kerning lookup 15-1" afii57440 dx=-212 dy=0 dh=-212 dv=0 dx=0 dy=0 dh=0 dv=0
PairPos2: "'kern' Horizontal Kerning lookup 15-1" uniFE8B dx=-212 dy=0 dh=-212 dv=0 dx=0 dy=0 dh=0 dv=0
EndChar

StartChar: uniFEB2
Encoding: 65202 65202 188
Width: 2555
VWidth: 2351
GlyphClass: 2
Flags: W
AnchorPoint: "Anchor-10" 1687.64 1112.47 basechar 0
AnchorPoint: "Anchor-7" 638.95 -688.09 basechar 0
LayerCount: 2
Fore
SplineSet
1710.70214844 114.645507812 m 1,0,1
 1622.75292969 -0.0185546875 1622.75292969 -0.0185546875 1476.11230469 -0.31640625 c 0,2,3
 1405.72949219 -0.072265625 1405.72949219 -0.072265625 1338.32519531 27.2783203125 c 1,4,5
 1320.265625 -240.849609375 1320.265625 -240.849609375 1154.93652344 -378.817382812 c 128,-1,6
 989.607421875 -516.78515625 989.607421875 -516.78515625 690.450195312 -517.545898438 c 0,7,8
 417.515625 -518.0234375 417.515625 -518.0234375 252.698242188 -392.291992188 c 0,9,10
 58.9609375 -243.701171875 58.9609375 -243.701171875 59.55859375 58.439453125 c 0,11,12
 60.017578125 273.498046875 60.017578125 273.498046875 155.828125 489.950195312 c 2,13,-1
 170.991210938 524.205078125 l 1,14,-1
 206.166015625 511.318359375 l 1,15,-1
 354.900390625 456.826171875 l 1,16,-1
 393.923828125 442.529296875 l 1,17,-1
 378.14453125 404.080078125 l 2,18,19
 339.387695312 309.646484375 339.387695312 309.646484375 320.166015625 227.233398438 c 128,-1,20
 300.943359375 144.8203125 300.943359375 144.8203125 300.893554688 75.26171875 c 0,21,22
 300.942382812 -98.98046875 300.942382812 -98.98046875 395.223632812 -181.858398438 c 128,-1,23
 489.50390625 -264.736328125 489.50390625 -264.736328125 692.98046875 -264.501953125 c 0,24,25
 911.19921875 -264.264648438 911.19921875 -264.264648438 1012.55957031 -176.780273438 c 128,-1,26
 1113.91992188 -89.2958984375 1113.91992188 -89.2958984375 1113.8515625 93.134765625 c 0,27,28
 1113.89648438 135.573242188 1113.89648438 135.573242188 1102.91894531 187.055664062 c 128,-1,29
 1091.94238281 238.538085938 1091.94238281 238.538085938 1068.97167969 300.768554688 c 128,-1,30
 1046 363 1046 363 1011.56640625 433.033203125 c 2,31,-1
 998.028320312 460.567382812 l 1,32,-1
 1021.11328125 480.778320312 l 1,33,-1
 1157.94238281 600.573242188 l 1,34,-1
 1197.56933594 635.266601562 l 1,35,-1
 1220.35449219 587.782226562 l 2,36,37
 1221.47753906 585.440429688 1221.47753906 585.440429688 1324.03417969 342.513671875 c 0,38,39
 1341.5546875 301.091796875 1341.5546875 301.091796875 1376.49511719 281.120117188 c 128,-1,40
 1411.43457031 261.1484375 1411.43457031 261.1484375 1471.984375 261.26171875 c 0,41,42
 1525.96582031 261.541992188 1525.96582031 261.541992188 1555.47460938 296.728515625 c 128,-1,43
 1584.98339844 331.9140625 1584.98339844 331.9140625 1593.31738281 417.338867188 c 2,44,-1
 1611.8828125 607.65625 l 1,45,-1
 1615.40527344 643.772460938 l 1,46,-1
 1651.69335938 643.772460938 l 1,47,-1
 1769.70996094 643.772460938 l 1,48,-1
 1804.76074219 643.772460938 l 1,49,-1
 1809.36328125 609.025390625 l 1,50,-1
 1834.80664062 416.956054688 l 2,51,52
 1845.73144531 333.987304688 1845.73144531 333.987304688 1881.32519531 298.326171875 c 128,-1,53
 1916.91796875 262.666015625 1916.91796875 262.666015625 1984.11914062 262.434570312 c 0,54,55
 2023.87109375 262.3203125 2023.87109375 262.3203125 2049.86914062 276.555664062 c 128,-1,56
 2075.8671875 290.791015625 2075.8671875 290.791015625 2092.04003906 325.165039062 c 128,-1,57
 2108.21289062 359.5390625 2108.21289062 359.5390625 2113.28320312 416.97265625 c 2,58,-1
 2131.84863281 627.290039062 l 1,59,-1
 2135.06835938 663.772460938 l 1,60,-1
 2171.69335938 663.772460938 l 1,61,-1
 2289.70996094 663.772460938 l 1,62,-1
 2325.19824219 663.772460938 l 1,63,-1
 2329.42480469 628.537109375 l 1,64,-1
 2354.86230469 416.517578125 l 2,65,66
 2361.19042969 364.173828125 2361.19042969 364.173828125 2380.03613281 331.755859375 c 128,-1,67
 2398.88183594 299.338867188 2398.88183594 299.338867188 2432.01660156 283.669921875 c 128,-1,68
 2465.15039062 268.000976562 2465.15039062 268.000976562 2516.03125 266.954101562 c 2,69,-1
 2562.38085938 266.000976562 l 2,70,71
 2573.90234375 265.760742188 2573.90234375 265.760742188 2585.03320312 262.673828125 c 128,-1,72
 2596.1640625 259.586914062 2596.1640625 259.586914062 2605.85351562 253.459960938 c 0,73,74
 2630.5546875 237.84375 2630.5546875 237.84375 2640.05078125 210.77734375 c 128,-1,75
 2649.54785156 183.709960938 2649.54785156 183.709960938 2649.54785156 148.530273438 c 2,76,-1
 2649.54785156 114.653320312 l 2,77,78
 2649.98925781 42.8212890625 2649.98925781 42.8212890625 2609.48242188 14.8798828125 c 0,79,80
 2588.68066406 0.5302734375 2588.68066406 0.5302734375 2560.79199219 0.5302734375 c 2,81,-1
 2509.02636719 0.5302734375 l 2,82,83
 2319.80078125 0.955078125 2319.80078125 0.955078125 2229.38964844 106.849609375 c 1,84,85
 2185.74804688 54.9580078125 2185.74804688 54.9580078125 2123.62011719 28.8818359375 c 128,-1,86
 2061.49121094 2.806640625 2061.49121094 2.806640625 1984.53417969 2.6474609375 c 0,87,88
 1895.21191406 2.8037109375 1895.21191406 2.8037109375 1825.57128906 30.8408203125 c 128,-1,89
 1755.9296875 58.8779296875 1755.9296875 58.8779296875 1710.70214844 114.645507812 c 1,0,1
EndSplineSet
EndChar

StartChar: uniFEB3
Encoding: 65203 65203 189
Width: 1612
VWidth: 2351
GlyphClass: 2
Flags: W
AnchorPoint: "Anchor-10" 684.23 1053.89 basechar 0
AnchorPoint: "Anchor-7" 705.43 -158.22 basechar 0
LayerCount: 2
Fore
SplineSet
-3.822265625 265.479492188 m 2,0,-1
 83.4306640625 265.477539062 l 2,1,2
 148.963867188 265.333984375 148.963867188 265.333984375 190.659179688 282.049804688 c 128,-1,3
 232.353515625 298.764648438 232.353515625 298.764648438 253.515625 332.274414062 c 128,-1,4
 274.676757812 365.784179688 274.676757812 365.784179688 279.685546875 419.595703125 c 2,5,-1
 297.125 606.94921875 l 1,6,-1
 300.50390625 643.2421875 l 1,7,-1
 336.953125 643.2421875 l 1,8,-1
 455.35546875 643.2421875 l 1,9,-1
 490.400390625 643.2421875 l 1,10,-1
 495.0078125 608.500976562 l 1,11,-1
 519.827148438 421.368164062 l 2,12,13
 531.165039062 336.149414062 531.165039062 336.149414062 569.901367188 299.014648438 c 128,-1,14
 608.63671875 261.87890625 608.63671875 261.87890625 682.900390625 261.791992188 c 0,15,16
 723.235351562 261.583007812 723.235351562 261.583007812 749.74609375 275.9140625 c 128,-1,17
 776.2578125 290.244140625 776.2578125 290.244140625 792.892578125 324.734375 c 128,-1,18
 809.52734375 359.224609375 809.52734375 359.224609375 815.145507812 416.80859375 c 2,19,-1
 833.7109375 607.125976562 l 1,20,-1
 837.233398438 643.2421875 l 1,21,-1
 873.521484375 643.2421875 l 1,22,-1
 991.538085938 643.2421875 l 1,23,-1
 1026.49121094 643.2421875 l 1,24,-1
 1031.17675781 608.604492188 l 1,25,-1
 1057.11035156 416.915039062 l 2,26,27
 1068.91992188 329.860351562 1068.91992188 329.860351562 1103.34179688 293.513671875 c 128,-1,28
 1137.76269531 257.166992188 1137.76269531 257.166992188 1200.18066406 257.94140625 c 0,29,30
 1236.82128906 258.365234375 1236.82128906 258.365234375 1258.1953125 270.282226562 c 128,-1,31
 1279.56835938 282.198242188 1279.56835938 282.198242188 1292.54394531 307.376953125 c 0,32,33
 1329.43164062 377.840820312 1329.43164062 377.840820312 1306.20605469 525.434570312 c 0,34,35
 1293.70703125 604.390625 1293.70703125 604.390625 1267.04003906 720.588867188 c 2,36,-1
 1258.81933594 756.411132812 l 1,37,-1
 1293.81933594 767.627929688 l 1,38,-1
 1450.99414062 817.997070312 l 1,39,-1
 1488.03710938 829.868164062 l 1,40,-1
 1500.9375 793.170898438 l 2,41,42
 1544.53613281 669.146484375 1544.53613281 669.146484375 1555.52246094 508.747070312 c 0,43,44
 1557.64160156 475.360351562 1557.64160156 475.360351562 1557.89746094 444.295898438 c 0,45,46
 1558.76074219 339.340820312 1558.76074219 339.340820312 1536.77539062 257.3984375 c 128,-1,47
 1514.79101562 175.456054688 1514.79101562 175.456054688 1470.7421875 118.438476562 c 128,-1,48
 1426.69433594 61.4208984375 1426.69433594 61.4208984375 1359.06347656 31.294921875 c 128,-1,49
 1291.43261719 1.169921875 1291.43261719 1.169921875 1202.8359375 0.53125 c 0,50,51
 1029.79199219 -0.888671875 1029.79199219 -0.888671875 933.41796875 115.827148438 c 1,52,53
 843.001953125 0.0146484375 843.001953125 0.0146484375 678.517578125 0.22265625 c 0,54,55
 486.879882812 0.951171875 486.879882812 0.951171875 387.014648438 112.935546875 c 1,56,57
 275.068359375 0 275.068359375 0 80.779296875 0 c 2,58,-1
 -4 0 l 2,59,60
 -29.490234375 0 -29.490234375 0 -49.1357421875 12.5048828125 c 0,61,62
 -91.6240234375 39.548828125 -91.6240234375 39.548828125 -91.6240234375 114 c 2,63,-1
 -91.6240234375 147.90234375 l 2,64,65
 -92 224.984375 -92 224.984375 -48.712890625 252.73828125 c 0,66,67
 -29.2333984375 265.227539062 -29.2333984375 265.227539062 -3.822265625 265.479492188 c 2,0,-1
EndSplineSet
EndChar

StartChar: uniFEB4
Encoding: 65204 65204 190
Width: 1776
VWidth: 2346
GlyphClass: 2
Flags: W
AnchorPoint: "Anchor-10" 705.43 1048.59 basechar 0
AnchorPoint: "Anchor-7" 804.01 -179.42 basechar 0
LayerCount: 2
Fore
SplineSet
1576.69238281 415.96875 m 2,0,1
 1582.97265625 363.625976562 1582.97265625 363.625976562 1601.79394531 331.215820312 c 128,-1,2
 1620.61621094 298.805664062 1620.61621094 298.805664062 1653.765625 283.138671875 c 128,-1,3
 1686.9140625 267.471679688 1686.9140625 267.471679688 1737.859375 266.423828125 c 2,4,-1
 1784.40820312 265.466796875 l 2,5,6
 1790.18359375 265.287109375 1790.18359375 265.287109375 1795.73242188 264.453125 c 128,-1,7
 1801.28027344 263.618164062 1801.28027344 263.618164062 1806.76367188 262.079101562 c 128,-1,8
 1812.24707031 260.5390625 1812.24707031 260.5390625 1817.578125 258.16015625 c 128,-1,9
 1822.90917969 255.78125 1822.90917969 255.78125 1827.83398438 252.63671875 c 0,10,11
 1852.37402344 236.966796875 1852.37402344 236.966796875 1861.875 209.96875 c 128,-1,12
 1871.37597656 182.970703125 1871.37597656 182.970703125 1871.37597656 148 c 2,13,-1
 1871.37597656 113.8984375 l 2,14,15
 1871.26660156 92.4140625 1871.26660156 92.4140625 1868.07519531 75.2431640625 c 128,-1,16
 1864.8828125 58.0732421875 1864.8828125 58.0732421875 1855.10546875 40.8681640625 c 128,-1,17
 1845.328125 23.6640625 1845.328125 23.6640625 1829.0859375 13.0947265625 c 0,18,19
 1808.9609375 0 1808.9609375 0 1782.62011719 0 c 2,20,-1
 1730.89941406 0 l 2,21,22
 1541.78710938 0 1541.78710938 0 1451.27148438 106.176757812 c 1,23,24
 1363.37792969 2.009765625 1363.37792969 2.009765625 1206.35351562 2.1171875 c 0,25,26
 1021.95703125 2.009765625 1021.95703125 2.009765625 930.874023438 116.102539062 c 1,27,28
 835.7734375 1.017578125 835.7734375 1.017578125 681.6953125 1.2822265625 c 0,29,30
 486.380859375 1.9541015625 486.380859375 1.9541015625 387.048828125 112.969726562 c 1,31,32
 275.068359375 0 275.068359375 0 80.779296875 0 c 2,33,-1
 -4 0 l 2,34,35
 -29.490234375 0 -29.490234375 0 -49.1357421875 12.5048828125 c 0,36,37
 -91.6240234375 39.548828125 -91.6240234375 39.548828125 -91.6240234375 114 c 2,38,-1
 -91.6240234375 147.90234375 l 2,39,40
 -92.00390625 225.758789062 -92.00390625 225.758789062 -48.23046875 253.240234375 c 0,41,42
 -28.732421875 265.48046875 -28.732421875 265.48046875 -3.623046875 265.479492188 c 2,43,-1
 83.4306640625 265.477539062 l 2,44,45
 148.963867188 265.333984375 148.963867188 265.333984375 190.659179688 282.049804688 c 128,-1,46
 232.353515625 298.764648438 232.353515625 298.764648438 253.515625 332.274414062 c 128,-1,47
 274.676757812 365.784179688 274.676757812 365.784179688 279.685546875 419.595703125 c 2,48,-1
 297.125 606.94921875 l 1,49,-1
 300.50390625 643.2421875 l 1,50,-1
 336.953125 643.2421875 l 1,51,-1
 455.35546875 643.2421875 l 1,52,-1
 490.400390625 643.2421875 l 1,53,-1
 495.0078125 608.500976562 l 1,54,-1
 519.827148438 421.368164062 l 2,55,56
 531.165039062 336.149414062 531.165039062 336.149414062 569.901367188 299.014648438 c 128,-1,57
 608.63671875 261.87890625 608.63671875 261.87890625 682.900390625 261.791992188 c 0,58,59
 723.235351562 261.583007812 723.235351562 261.583007812 749.74609375 275.9140625 c 128,-1,60
 776.2578125 290.244140625 776.2578125 290.244140625 792.892578125 324.734375 c 128,-1,61
 809.52734375 359.224609375 809.52734375 359.224609375 815.145507812 416.80859375 c 2,62,-1
 833.7109375 607.125976562 l 1,63,-1
 837.233398438 643.2421875 l 1,64,-1
 873.521484375 643.2421875 l 1,65,-1
 991.538085938 643.2421875 l 1,66,-1
 1026.58886719 643.2421875 l 1,67,-1
 1031.19140625 608.495117188 l 1,68,-1
 1056.63183594 416.448242188 l 2,69,70
 1064.0625 360.267578125 1064.0625 360.267578125 1082.70507812 326.138671875 c 128,-1,71
 1101.34765625 292.009765625 1101.34765625 292.009765625 1131.21386719 276.969726562 c 128,-1,72
 1161.08105469 261.930664062 1161.08105469 261.930664062 1205.96386719 261.904296875 c 0,73,74
 1265.70996094 261.548828125 1265.70996094 261.548828125 1296.65625 296.462890625 c 128,-1,75
 1327.6015625 331.376953125 1327.6015625 331.376953125 1335.11132812 416.442382812 c 2,76,-1
 1353.67675781 626.759765625 l 1,77,-1
 1356.89648438 663.2421875 l 1,78,-1
 1393.52148438 663.2421875 l 1,79,-1
 1511.53808594 663.2421875 l 1,80,-1
 1547.02636719 663.2421875 l 1,81,-1
 1551.25292969 628.006835938 l 1,82,-1
 1576.69238281 415.96875 l 2,0,1
EndSplineSet
EndChar

StartChar: uniFEBA
Encoding: 65210 65210 196
Width: 2610
VWidth: 2351
GlyphClass: 2
Flags: W
AnchorPoint: "Anchor-10" 1687.64 1112.47 basechar 0
AnchorPoint: "Anchor-7" 638.95 -688.09 basechar 0
LayerCount: 2
Fore
SplineSet
1726.57421875 -0.7109375 m 2,0,-1
 1533.10449219 0 l 2,1,2
 1479.46875 0.197265625 1479.46875 0.197265625 1430.43847656 7.9921875 c 128,-1,3
 1381.40820312 15.7861328125 1381.40820312 15.7861328125 1338.56542969 30.9619140625 c 1,4,5
 1321.20898438 -239.422851562 1321.20898438 -239.422851562 1155.92675781 -378.102539062 c 128,-1,6
 990.64453125 -516.782226562 990.64453125 -516.782226562 690.450195312 -517.545898438 c 0,7,8
 417.515625 -518.0234375 417.515625 -518.0234375 252.698242188 -392.291992188 c 0,9,10
 58.9609375 -243.701171875 58.9609375 -243.701171875 59.55859375 58.439453125 c 0,11,12
 60.017578125 273.498046875 60.017578125 273.498046875 155.828125 489.950195312 c 2,13,-1
 170.991210938 524.205078125 l 1,14,-1
 206.166015625 511.318359375 l 1,15,-1
 354.900390625 456.826171875 l 1,16,-1
 393.923828125 442.529296875 l 1,17,-1
 378.14453125 404.080078125 l 2,18,19
 339.387695312 309.646484375 339.387695312 309.646484375 320.166015625 227.233398438 c 128,-1,20
 300.943359375 144.8203125 300.943359375 144.8203125 300.893554688 75.26171875 c 0,21,22
 300.942382812 -98.98046875 300.942382812 -98.98046875 395.223632812 -181.858398438 c 128,-1,23
 489.50390625 -264.736328125 489.50390625 -264.736328125 692.98046875 -264.501953125 c 0,24,25
 911.19921875 -264.264648438 911.19921875 -264.264648438 1012.55957031 -176.780273438 c 128,-1,26
 1113.91992188 -89.2958984375 1113.91992188 -89.2958984375 1113.8515625 93.134765625 c 0,27,28
 1113.89648438 135.573242188 1113.89648438 135.573242188 1102.91894531 187.055664062 c 128,-1,29
 1091.94238281 238.538085938 1091.94238281 238.538085938 1068.97167969 300.768554688 c 128,-1,30
 1046 363 1046 363 1011.56640625 433.033203125 c 2,31,-1
 998.028320312 460.567382812 l 1,32,-1
 1021.11328125 480.778320312 l 1,33,-1
 1157.94238281 600.573242188 l 1,34,-1
 1201.62207031 638.814453125 l 1,35,-1
 1221.79785156 584.37890625 l 2,36,37
 1230.64746094 560.500976562 1230.64746094 560.500976562 1256.51855469 499.258789062 c 128,-1,38
 1282.38964844 438.016601562 1282.38964844 438.016601562 1323.82421875 343.002929688 c 0,39,40
 1333.31738281 321.49609375 1333.31738281 321.49609375 1348.85742188 311.998046875 c 1,41,42
 1717.90039062 836.9921875 1717.90039062 836.9921875 2067.04980469 837.189453125 c 0,43,44
 2234.66503906 836.98046875 2234.66503906 836.98046875 2341.35644531 738.455078125 c 0,45,46
 2455.64160156 631.858398438 2455.64160156 631.858398438 2455.45898438 462.856445312 c 0,47,48
 2455.27539062 409.984375 2455.27539062 409.984375 2444.47753906 360.4921875 c 128,-1,49
 2433.6796875 311 2433.6796875 311 2412.35449219 265.190429688 c 1,50,-1
 2572.47558594 265.19140625 l 1,51,-1
 2617.69238281 264.765625 l 2,52,53
 2629.32324219 264.578125 2629.32324219 264.578125 2640.34277344 261.596679688 c 128,-1,54
 2651.36132812 258.614257812 2651.36132812 258.614257812 2661.08496094 252.563476562 c 0,55,56
 2705.18261719 225.124023438 2705.18261719 225.124023438 2705.18261719 147.2890625 c 2,57,-1
 2705.18261719 113.240234375 l 2,58,59
 2705.00390625 40.4423828125 2705.00390625 40.4423828125 2663.7734375 12.9111328125 c 0,60,61
 2653.35253906 5.953125 2653.35253906 5.953125 2641.19628906 2.62109375 c 128,-1,62
 2629.0390625 -0.7109375 2629.0390625 -0.7109375 2616.42675781 -0.7109375 c 2,63,-1
 2560.23242188 -0.7109375 l 2,64,65
 2291.40625 -0.982421875 2291.40625 -0.982421875 2194.23242188 73.138671875 c 1,66,67
 2033.75292969 -1.83984375 2033.75292969 -1.83984375 1726.57421875 -0.7109375 c 2,0,-1
1611.59863281 264.91796875 m 1,68,-1
 1709.97851562 264.91796875 l 2,69,70
 1968.54003906 264.998046875 1968.54003906 264.998046875 2085.30078125 310.081054688 c 0,71,72
 2150.77929688 335.794921875 2150.77929688 335.794921875 2176.92871094 372.811523438 c 128,-1,73
 2203.078125 409.827148438 2203.078125 409.827148438 2198.04003906 464.336914062 c 0,74,75
 2196.00585938 484.790039062 2196.00585938 484.790039062 2190.046875 500.92578125 c 128,-1,76
 2184.08691406 517.061523438 2184.08691406 517.061523438 2174.58300781 529.387695312 c 0,77,78
 2155.93261719 553.311523438 2155.93261719 553.311523438 2128.68652344 565.32421875 c 128,-1,79
 2101.44140625 577.337890625 2101.44140625 577.337890625 2061.59863281 577.580078125 c 0,80,81
 2034.0546875 577.671875 2034.0546875 577.671875 2005.72460938 571.900390625 c 128,-1,82
 1977.39453125 566.129882812 1977.39453125 566.129882812 1947.66308594 554.252929688 c 128,-1,83
 1917.93164062 542.375976562 1917.93164062 542.375976562 1886.74609375 523.793945312 c 128,-1,84
 1855.56054688 505.212890625 1855.56054688 505.212890625 1823.45117188 480.137695312 c 0,85,86
 1779.68554688 446.221679688 1779.68554688 446.221679688 1726.1328125 391.879882812 c 128,-1,87
 1672.58105469 337.5390625 1672.58105469 337.5390625 1611.59863281 264.91796875 c 1,68,-1
EndSplineSet
EndChar

